<svg xmlns="http://www.w3.org/2000/svg" xmlns:xlink="http://www.w3.org/1999/xlink" width="500" zoomAndPan="magnify" viewBox="0 0 375 374.999991" height="500" preserveAspectRatio="xMidYMid meet" version="1.0"><defs><clipPath id="587e69b1bf"><path d="M 187.5 0 C 83.945312 0 0 83.945312 0 187.5 C 0 291.054688 83.945312 375 187.5 375 C 291.054688 375 375 291.054688 375 187.5 C 375 83.945312 291.054688 0 187.5 0 Z M 187.5 0 " clip-rule="nonzero"/></clipPath><clipPath id="ba8d5f9686"><path d="M 0 0 L 375 0 L 375 375 L 0 375 Z M 0 0 " clip-rule="nonzero"/></clipPath><clipPath id="40cb2ea676"><path d="M 187.5 0 C 83.945312 0 0 83.945312 0 187.5 C 0 291.054688 83.945312 375 187.5 375 C 291.054688 375 375 291.054688 375 187.5 C 375 83.945312 291.054688 0 187.5 0 Z M 187.5 0 " clip-rule="nonzero"/></clipPath><clipPath id="9bed0ec013"><rect x="0" width="375" y="0" height="375"/></clipPath><clipPath id="c2257badff"><path d="M 49 96.261719 L 327 96.261719 L 327 192 L 49 192 Z M 49 96.261719 " clip-rule="nonzero"/></clipPath><clipPath id="bd671d5703"><path d="M 37.5 215 L 313 215 L 313 278 L 37.5 278 Z M 37.5 215 " clip-rule="nonzero"/></clipPath></defs><g clip-path="url(#587e69b1bf)"><g transform="matrix(1, 0, 0, 1, 0, 0)"><g clip-path="url(#9bed0ec013)"><g clip-path="url(#ba8d5f9686)"><g clip-path="url(#40cb2ea676)"><rect x="-82.5" width="540" fill="#ffffff" height="539.999987" y="-82.499998" fill-opacity="1"/></g></g></g></g></g><g clip-path="url(#c2257badff)"><path fill="#000000" d="M 122.484375 162.652344 C 122.484375 166.367188 122.863281 169.378906 123.578125 171.605469 C 124.371094 173.808594 125.386719 176.222656 126.78125 178.839844 C 127.234375 179.546875 127.46875 180.320312 127.480469 181.15625 C 127.480469 182.15625 126.875 183.175781 125.59375 184.171875 L 119.261719 188.394531 C 118.488281 188.953125 117.621094 189.257812 116.664062 189.296875 C 115.644531 189.296875 114.644531 188.808594 113.648438 187.902344 C 112.289062 186.441406 111.085938 184.867188 110.03125 183.175781 C 108.914062 181.238281 107.882812 179.261719 106.9375 177.238281 C 99.101562 186.492188 89.28125 191.125 77.449219 191.125 C 69.027344 191.125 62.296875 188.695312 57.398438 183.871094 C 52.480469 179.046875 49.972656 172.601562 49.972656 164.558594 C 49.972656 156 52.988281 149.066406 59.09375 143.828125 C 65.21875 138.589844 73.339844 135.988281 83.667969 135.988281 C 87.058594 135.988281 90.582031 136.292969 94.296875 136.78125 C 98.007812 137.289062 101.832031 138.101562 105.828125 139.003906 L 105.828125 131.65625 C 105.828125 124.003906 104.226562 118.671875 101.117188 115.5625 C 97.914062 112.433594 92.484375 110.925781 84.761719 110.925781 C 81.253906 110.925781 77.65625 111.34375 73.945312 112.246094 C 70.25 113.125 66.640625 114.261719 63.109375 115.65625 C 61.96875 116.171875 60.800781 116.613281 59.605469 116.976562 C 59.082031 117.148438 58.550781 117.25 58.003906 117.277344 C 56.589844 117.277344 55.890625 116.261719 55.890625 114.148438 L 55.890625 109.210938 C 55.890625 107.609375 56.078125 106.386719 56.589844 105.707031 C 57.359375 104.769531 58.300781 104.058594 59.414062 103.578125 C 62.902344 101.769531 67.121094 100.261719 72.039062 99.054688 C 76.941406 97.738281 82.160156 97.152344 87.679688 97.152344 C 99.609375 97.152344 108.332031 99.867188 113.949219 105.292969 C 119.46875 110.71875 122.277344 118.972656 122.277344 130.054688 L 122.277344 162.652344 Z M 81.765625 177.9375 C 85.0625 177.9375 88.472656 177.332031 92.089844 176.125 C 95.707031 174.921875 98.910156 172.695312 101.605469 169.683594 C 103.242188 167.804688 104.382812 165.664062 105.015625 163.257812 C 105.621094 160.824219 106.035156 157.921875 106.035156 154.492188 L 106.035156 150.273438 C 102.988281 149.535156 99.910156 148.96875 96.800781 148.578125 C 93.671875 148.171875 90.53125 147.964844 87.378906 147.957031 C 80.652344 147.957031 75.753906 149.273438 72.4375 151.988281 C 69.121094 154.703125 67.535156 158.527344 67.535156 163.558594 C 67.535156 168.269531 68.722656 171.792969 71.230469 174.222656 C 73.640625 176.730469 77.148438 177.9375 81.765625 177.9375 Z M 162.285156 188.808594 C 160.472656 188.808594 159.269531 188.507812 158.476562 187.789062 C 157.667969 187.1875 156.96875 185.792969 156.367188 183.871094 L 132.8125 106.101562 C 132.351562 104.792969 132.050781 103.449219 131.90625 102.070312 C 131.90625 100.46875 132.699219 99.566406 134.300781 99.566406 L 144.136719 99.566406 C 146.019531 99.566406 147.339844 99.867188 148.039062 100.5625 C 148.847656 101.167969 149.449219 102.578125 150.054688 104.484375 L 166.898438 171.09375 L 182.539062 104.484375 C 183.03125 102.484375 183.632812 101.167969 184.445312 100.5625 C 185.675781 99.808594 187.015625 99.476562 188.457031 99.566406 L 196.484375 99.566406 C 198.367188 99.566406 199.6875 99.867188 200.480469 100.5625 C 201.289062 101.167969 201.988281 102.578125 202.402344 104.484375 L 218.230469 171.90625 L 235.566406 104.484375 C 235.894531 103 236.566406 101.691406 237.582031 100.5625 C 238.78125 99.804688 240.085938 99.472656 241.503906 99.566406 L 250.828125 99.566406 C 252.433594 99.566406 253.335938 100.375 253.335938 102.070312 C 253.335938 102.578125 253.222656 103.089844 253.148438 103.691406 C 252.984375 104.546875 252.746094 105.382812 252.433594 106.199219 L 228.253906 183.964844 C 227.671875 185.980469 226.953125 187.300781 226.164062 187.902344 C 224.996094 188.652344 223.722656 188.984375 222.339844 188.902344 L 213.726562 188.902344 C 211.824219 188.902344 210.523438 188.601562 209.714844 187.902344 C 208.902344 187.1875 208.207031 185.886719 207.808594 183.871094 L 192.265625 118.992188 L 176.8125 183.796875 C 176.320312 185.8125 175.71875 187.113281 174.925781 187.808594 C 174.117188 188.527344 172.703125 188.828125 170.914062 188.828125 L 162.285156 188.828125 Z M 291.136719 191.523438 C 285.914062 191.527344 280.765625 190.925781 275.683594 189.714844 C 270.671875 188.507812 266.773438 187.1875 264.152344 185.679688 C 262.550781 184.777344 261.457031 183.777344 261.042969 182.855469 C 260.65625 181.957031 260.460938 181.023438 260.460938 180.046875 L 260.460938 174.921875 C 260.460938 172.808594 261.25 171.792969 262.757812 171.792969 C 263.378906 171.792969 263.980469 171.894531 264.566406 172.09375 C 265.171875 172.300781 266.074219 172.695312 267.074219 173.113281 C 270.464844 174.621094 274.195312 175.824219 278.097656 176.636719 C 282.109375 177.425781 286.011719 177.839844 290.023438 177.839844 C 296.355469 177.839844 301.257812 176.730469 304.667969 174.523438 C 305.484375 174.027344 306.226562 173.433594 306.886719 172.742188 C 307.550781 172.050781 308.109375 171.285156 308.566406 170.441406 C 309.027344 169.601562 309.367188 168.714844 309.589844 167.785156 C 309.816406 166.855469 309.914062 165.910156 309.886719 164.953125 C 309.921875 163.648438 309.703125 162.386719 309.230469 161.167969 C 308.761719 159.949219 308.074219 158.867188 307.171875 157.921875 C 305.382812 156 301.972656 154.285156 297.054688 152.683594 L 282.507812 148.164062 C 275.195312 145.84375 269.769531 142.414062 266.46875 137.894531 C 264.855469 135.804688 263.621094 133.511719 262.761719 131.011719 C 261.902344 128.515625 261.46875 125.949219 261.457031 123.308594 C 261.457031 119.085938 262.363281 115.355469 264.152344 112.132812 C 265.960938 108.929688 268.375 106.101562 271.386719 103.878906 C 274.402344 101.582031 277.796875 99.867188 281.808594 98.660156 C 285.824219 97.453125 290.023438 96.945312 294.433594 96.945312 C 296.65625 96.945312 298.957031 97.039062 301.160156 97.339844 C 303.460938 97.640625 305.570312 98.058594 307.683594 98.472656 C 309.679688 98.960938 311.601562 99.453125 313.390625 100.074219 C 315.199219 100.675781 316.59375 101.28125 317.613281 101.882812 C 318.8125 102.484375 319.816406 103.320312 320.628906 104.386719 C 321.289062 105.394531 321.585938 106.5 321.511719 107.703125 L 321.511719 112.433594 C 321.511719 114.546875 320.722656 115.65625 319.214844 115.65625 C 317.867188 115.503906 316.597656 115.101562 315.40625 114.449219 C 309.277344 111.734375 302.855469 110.425781 296.148438 110.53125 C 290.441406 110.53125 285.917969 111.4375 282.808594 113.359375 C 279.699219 115.242188 278.097656 118.183594 278.097656 122.308594 C 278.097656 125.117188 279.097656 127.527344 281.113281 129.449219 C 283.109375 131.355469 286.820312 133.257812 292.136719 134.972656 L 306.382812 139.496094 C 313.597656 141.8125 318.816406 145.035156 321.925781 149.160156 C 325.035156 153.289062 326.527344 158.019531 326.527344 163.257812 C 326.527344 167.589844 325.640625 171.492188 323.925781 174.921875 C 322.128906 178.402344 319.691406 181.355469 316.613281 183.777344 C 313.503906 186.285156 309.792969 188.109375 305.476562 189.410156 C 300.953125 190.824219 296.242188 191.523438 291.136719 191.523438 Z M 291.136719 191.523438 " fill-opacity="1" fill-rule="nonzero"/></g><g clip-path="url(#bd671d5703)"><path fill="#000000" d="M 310.074219 240.402344 C 277.097656 264.84375 229.160156 277.828125 187.949219 277.828125 C 130.191406 277.828125 78.144531 256.402344 38.839844 220.785156 C 35.730469 217.960938 38.535156 214.132812 42.230469 216.359375 C 84.761719 241.101562 137.203125 256.097656 191.472656 256.097656 C 228.046875 256.097656 268.261719 248.449219 305.269531 232.753906 C 310.789062 230.246094 315.5 236.371094 310.074219 240.402344 Z M 310.074219 240.402344 " fill-opacity="1" fill-rule="evenodd"/></g><path fill="#000000" d="M 323.8125 224.707031 C 319.609375 219.296875 295.941406 222.105469 285.21875 223.40625 C 282.015625 223.820312 281.507812 220.992188 284.410156 218.882812 C 303.253906 205.597656 334.25 209.421875 337.851562 213.851562 C 341.46875 218.375 336.851562 249.464844 319.195312 264.351562 C 316.5 266.671875 313.898438 265.484375 315.105469 262.46875 C 319.101562 252.480469 328.03125 230.058594 323.8125 224.726562 Z M 323.8125 224.707031 " fill-opacity="1" fill-rule="evenodd"/></svg>