<svg xmlns="http://www.w3.org/2000/svg" xmlns:xlink="http://www.w3.org/1999/xlink" width="927" zoomAndPan="magnify" viewBox="0 0 695.25 279.749991" height="373" preserveAspectRatio="xMidYMid meet" version="1.0"><defs><g/><clipPath id="8d1b6b9438"><path d="M 7.863281 0.0273438 L 686.628906 0.0273438 L 686.628906 279.472656 L 7.863281 279.472656 Z M 7.863281 0.0273438 " clip-rule="nonzero"/></clipPath><clipPath id="4448ff006a"><path d="M 0.863281 0.0273438 L 679.628906 0.0273438 L 679.628906 279.472656 L 0.863281 279.472656 Z M 0.863281 0.0273438 " clip-rule="nonzero"/></clipPath><clipPath id="7c9ec3c2ef"><rect x="0" width="680" y="0" height="280"/></clipPath><clipPath id="f3d87a42c1"><path d="M 295.804688 95 L 390 95 L 390 117 L 295.804688 117 Z M 295.804688 95 " clip-rule="nonzero"/></clipPath><clipPath id="fdd894332f"><path d="M 379 93.371094 L 398.441406 93.371094 L 398.441406 113 L 379 113 Z M 379 93.371094 " clip-rule="nonzero"/></clipPath><clipPath id="e3ae1e9ce2"><rect x="0" width="616" y="0" height="89"/></clipPath><clipPath id="fb627d360b"><rect x="0" width="123" y="0" height="33"/></clipPath></defs><g clip-path="url(#8d1b6b9438)"><g transform="matrix(1, 0, 0, 1, 7, 0.000000000000009708)"><g clip-path="url(#7c9ec3c2ef)"><g clip-path="url(#4448ff006a)"><path fill="#ffffff" d="M 0.863281 0.0273438 L 679.835938 0.0273438 L 679.835938 279.472656 L 0.863281 279.472656 Z M 0.863281 0.0273438 " fill-opacity="1" fill-rule="nonzero"/></g></g></g></g><path fill="#000000" d="M 324.734375 77.601562 C 324.734375 78.867188 324.863281 79.890625 325.105469 80.648438 C 325.375 81.398438 325.722656 82.21875 326.199219 83.113281 C 326.351562 83.351562 326.429688 83.617188 326.433594 83.902344 C 326.433594 84.242188 326.230469 84.585938 325.792969 84.925781 L 323.636719 86.363281 C 323.375 86.554688 323.078125 86.65625 322.753906 86.671875 C 322.40625 86.671875 322.066406 86.503906 321.726562 86.199219 C 321.265625 85.699219 320.855469 85.164062 320.496094 84.585938 C 320.113281 83.929688 319.765625 83.253906 319.441406 82.566406 C 316.773438 85.714844 313.433594 87.292969 309.402344 87.292969 C 306.535156 87.292969 304.246094 86.46875 302.578125 84.824219 C 300.902344 83.183594 300.050781 80.988281 300.050781 78.25 C 300.050781 75.335938 301.078125 72.976562 303.15625 71.191406 C 305.238281 69.410156 308.003906 68.523438 311.519531 68.523438 C 312.675781 68.523438 313.875 68.628906 315.136719 68.792969 C 316.402344 68.96875 317.703125 69.242188 319.0625 69.550781 L 319.0625 67.050781 C 319.0625 64.445312 318.519531 62.628906 317.460938 61.570312 C 316.371094 60.507812 314.523438 59.992188 311.890625 59.992188 C 310.699219 59.992188 309.472656 60.132812 308.210938 60.441406 C 306.953125 60.742188 305.722656 61.128906 304.523438 61.601562 C 304.132812 61.777344 303.734375 61.929688 303.328125 62.050781 C 303.152344 62.109375 302.96875 62.144531 302.78125 62.15625 C 302.300781 62.15625 302.066406 61.808594 302.066406 61.089844 L 302.066406 59.410156 C 302.066406 58.863281 302.128906 58.445312 302.300781 58.214844 C 302.5625 57.898438 302.886719 57.65625 303.265625 57.492188 C 304.449219 56.875 305.886719 56.363281 307.5625 55.953125 C 309.230469 55.503906 311.007812 55.304688 312.886719 55.304688 C 316.945312 55.304688 319.917969 56.226562 321.828125 58.074219 C 323.707031 59.921875 324.664062 62.730469 324.664062 66.503906 L 324.664062 77.601562 Z M 310.871094 82.804688 C 311.996094 82.804688 313.15625 82.597656 314.386719 82.1875 C 315.621094 81.777344 316.710938 81.019531 317.628906 79.996094 C 318.183594 79.355469 318.570312 78.625 318.789062 77.808594 C 318.992188 76.980469 319.132812 75.992188 319.132812 74.824219 L 319.132812 73.386719 C 318.097656 73.136719 317.050781 72.941406 315.992188 72.808594 C 314.925781 72.671875 313.859375 72.601562 312.785156 72.597656 C 310.492188 72.597656 308.824219 73.046875 307.695312 73.972656 C 306.566406 74.894531 306.027344 76.195312 306.027344 77.910156 C 306.027344 79.511719 306.433594 80.714844 307.285156 81.539062 C 308.109375 82.394531 309.300781 82.804688 310.871094 82.804688 Z M 338.285156 86.503906 C 337.667969 86.503906 337.257812 86.402344 336.988281 86.160156 C 336.710938 85.953125 336.472656 85.480469 336.269531 84.824219 L 328.25 58.351562 C 328.09375 57.90625 327.992188 57.449219 327.941406 56.976562 C 327.941406 56.433594 328.210938 56.125 328.757812 56.125 L 332.105469 56.125 C 332.746094 56.125 333.195312 56.226562 333.433594 56.464844 C 333.710938 56.667969 333.914062 57.152344 334.121094 57.796875 L 339.855469 80.476562 L 345.179688 57.796875 C 345.347656 57.117188 345.550781 56.667969 345.828125 56.464844 C 346.246094 56.207031 346.703125 56.09375 347.195312 56.125 L 349.925781 56.125 C 350.566406 56.125 351.015625 56.226562 351.285156 56.464844 C 351.5625 56.667969 351.800781 57.152344 351.941406 57.796875 L 357.328125 80.75 L 363.230469 57.796875 C 363.34375 57.292969 363.570312 56.847656 363.917969 56.464844 C 364.324219 56.207031 364.769531 56.09375 365.25 56.125 L 368.425781 56.125 C 368.972656 56.125 369.28125 56.398438 369.28125 56.976562 C 369.28125 57.152344 369.242188 57.324219 369.214844 57.53125 C 369.160156 57.820312 369.078125 58.105469 368.972656 58.382812 L 360.742188 84.855469 C 360.542969 85.542969 360.300781 85.992188 360.03125 86.199219 C 359.632812 86.453125 359.199219 86.566406 358.726562 86.539062 L 355.796875 86.539062 C 355.148438 86.539062 354.707031 86.433594 354.429688 86.199219 C 354.152344 85.953125 353.917969 85.511719 353.78125 84.824219 L 348.488281 62.738281 L 343.230469 84.800781 C 343.0625 85.484375 342.855469 85.929688 342.585938 86.164062 C 342.3125 86.410156 341.832031 86.511719 341.222656 86.511719 L 338.285156 86.511719 Z M 382.148438 87.429688 C 380.371094 87.433594 378.617188 87.226562 376.886719 86.8125 C 375.183594 86.402344 373.855469 85.953125 372.960938 85.441406 C 372.417969 85.132812 372.046875 84.792969 371.902344 84.480469 C 371.773438 84.171875 371.707031 83.855469 371.707031 83.523438 L 371.707031 81.777344 C 371.707031 81.058594 371.976562 80.714844 372.488281 80.714844 C 372.699219 80.714844 372.902344 80.746094 373.105469 80.816406 C 373.308594 80.886719 373.617188 81.019531 373.957031 81.160156 C 375.113281 81.675781 376.382812 82.085938 377.710938 82.363281 C 379.074219 82.632812 380.402344 82.773438 381.769531 82.773438 C 383.925781 82.773438 385.59375 82.394531 386.753906 81.644531 C 387.324219 81.300781 387.765625 80.835938 388.082031 80.253906 C 388.402344 79.671875 388.550781 79.046875 388.53125 78.382812 C 388.554688 77.457031 388.25 76.660156 387.609375 75.992188 C 387 75.335938 385.835938 74.753906 384.164062 74.207031 L 379.210938 72.667969 C 376.722656 71.878906 374.875 70.710938 373.75 69.171875 C 372.621094 67.710938 372.054688 66.054688 372.046875 64.207031 C 372.046875 62.769531 372.351562 61.5 372.960938 60.402344 C 373.578125 59.3125 374.398438 58.351562 375.425781 57.59375 C 376.453125 56.8125 377.605469 56.226562 378.972656 55.816406 C 380.339844 55.40625 381.769531 55.234375 383.269531 55.234375 C 384.027344 55.234375 384.8125 55.265625 385.5625 55.367188 C 386.34375 55.46875 387.0625 55.609375 387.78125 55.753906 C 388.460938 55.917969 389.117188 56.085938 389.726562 56.296875 C 390.339844 56.503906 390.816406 56.707031 391.160156 56.914062 C 391.570312 57.117188 391.910156 57.402344 392.1875 57.765625 C 392.414062 58.109375 392.515625 58.484375 392.488281 58.894531 L 392.488281 60.507812 C 392.488281 61.222656 392.21875 61.601562 391.707031 61.601562 C 391.25 61.550781 390.816406 61.414062 390.410156 61.191406 C 388.324219 60.265625 386.136719 59.820312 383.855469 59.859375 C 381.910156 59.859375 380.371094 60.164062 379.3125 60.820312 C 378.253906 61.460938 377.710938 62.460938 377.710938 63.867188 C 377.710938 64.824219 378.050781 65.644531 378.734375 66.296875 C 379.417969 66.945312 380.679688 67.59375 382.488281 68.179688 L 387.339844 69.71875 C 389.796875 70.507812 391.574219 71.605469 392.632812 73.007812 C 393.6875 74.414062 394.195312 76.023438 394.195312 77.808594 C 394.195312 79.28125 393.894531 80.609375 393.3125 81.777344 C 392.699219 82.964844 391.871094 83.96875 390.820312 84.792969 C 389.761719 85.644531 388.5 86.269531 387.03125 86.710938 C 385.492188 87.191406 383.886719 87.429688 382.148438 87.429688 Z M 382.148438 87.429688 " fill-opacity="1" fill-rule="nonzero"/><g clip-path="url(#f3d87a42c1)"><path fill="#000000" d="M 388.597656 104.011719 C 377.371094 112.328125 361.050781 116.75 347.019531 116.75 C 327.359375 116.75 309.640625 109.457031 296.257812 97.332031 C 295.199219 96.371094 296.15625 95.066406 297.414062 95.824219 C 311.890625 104.246094 329.746094 109.351562 348.21875 109.351562 C 360.671875 109.351562 374.359375 106.75 386.960938 101.40625 C 388.839844 100.550781 390.445312 102.636719 388.597656 104.011719 Z M 388.597656 104.011719 " fill-opacity="1" fill-rule="evenodd"/></g><g clip-path="url(#fdd894332f)"><path fill="#000000" d="M 393.273438 98.667969 C 391.84375 96.824219 383.785156 97.78125 380.132812 98.222656 C 379.042969 98.363281 378.871094 97.402344 379.859375 96.683594 C 386.273438 92.160156 396.828125 93.464844 398.050781 94.972656 C 399.28125 96.511719 397.710938 107.09375 391.699219 112.164062 C 390.785156 112.953125 389.898438 112.546875 390.308594 111.523438 C 391.667969 108.121094 394.710938 100.488281 393.273438 98.671875 Z M 393.273438 98.667969 " fill-opacity="1" fill-rule="evenodd"/></g><g transform="matrix(1, 0, 0, 1, 43, 119)"><g clip-path="url(#e3ae1e9ce2)"><g fill="#000000" fill-opacity="1"><g transform="translate(1.746689, 70.927014)"><g><path d="M 28.46875 0.90625 C 20.40625 0.90625 14.273438 -1.222656 10.078125 -5.484375 C 5.890625 -9.742188 3.796875 -15.976562 3.796875 -24.1875 C 3.796875 -32.238281 5.984375 -38.488281 10.359375 -42.9375 C 14.742188 -47.394531 20.851562 -49.625 28.6875 -49.625 C 32.4375 -49.625 35.945312 -49.132812 39.21875 -48.15625 C 39.96875 -47.914062 40.472656 -47.597656 40.734375 -47.203125 C 40.992188 -46.804688 41.125 -46.160156 41.125 -45.265625 L 41.125 -39.359375 C 41.125 -38.097656 40.628906 -37.46875 39.640625 -37.46875 C 39.410156 -37.46875 38.828125 -37.582031 37.890625 -37.8125 C 35.597656 -38.332031 33.300781 -38.59375 31 -38.59375 C 26.6875 -38.59375 23.425781 -37.457031 21.21875 -35.1875 C 19.019531 -32.914062 17.921875 -29.550781 17.921875 -25.09375 L 17.921875 -23.546875 C 17.921875 -19.191406 18.988281 -15.863281 21.125 -13.5625 C 23.257812 -11.269531 26.410156 -10.125 30.578125 -10.125 C 33.484375 -10.125 36.203125 -10.425781 38.734375 -11.03125 C 39.484375 -11.21875 40.019531 -11.3125 40.34375 -11.3125 C 41.332031 -11.3125 41.828125 -10.679688 41.828125 -9.421875 L 41.828125 -3.515625 C 41.828125 -2.617188 41.695312 -1.972656 41.4375 -1.578125 C 41.175781 -1.179688 40.671875 -0.863281 39.921875 -0.625 C 36.734375 0.394531 32.914062 0.90625 28.46875 0.90625 Z M 28.46875 0.90625 "/></g></g></g><g fill="#000000" fill-opacity="1"><g transform="translate(43.431791, 70.927014)"><g><path d="M 28.328125 -9.5625 C 31.890625 -9.5625 34.570312 -10.800781 36.375 -13.28125 C 38.175781 -15.769531 39.078125 -19.425781 39.078125 -24.25 C 39.078125 -29.175781 38.164062 -32.890625 36.34375 -35.390625 C 34.519531 -37.898438 31.847656 -39.15625 28.328125 -39.15625 C 24.816406 -39.15625 22.15625 -37.910156 20.34375 -35.421875 C 18.539062 -32.941406 17.640625 -29.289062 17.640625 -24.46875 C 17.640625 -19.59375 18.539062 -15.890625 20.34375 -13.359375 C 22.15625 -10.828125 24.816406 -9.5625 28.328125 -9.5625 Z M 28.328125 1.1875 C 23.222656 1.1875 18.816406 0.125 15.109375 -2 C 11.410156 -4.132812 8.597656 -7.125 6.671875 -10.96875 C 4.753906 -14.8125 3.796875 -19.3125 3.796875 -24.46875 C 3.796875 -29.757812 4.800781 -34.3125 6.8125 -38.125 C 8.832031 -41.945312 11.679688 -44.863281 15.359375 -46.875 C 19.035156 -48.894531 23.359375 -49.90625 28.328125 -49.90625 C 33.429688 -49.90625 37.832031 -48.847656 41.53125 -46.734375 C 45.238281 -44.628906 48.066406 -41.65625 50.015625 -37.8125 C 51.960938 -33.976562 52.9375 -29.457031 52.9375 -24.25 C 52.9375 -18.957031 51.925781 -14.390625 49.90625 -10.546875 C 47.894531 -6.703125 45.035156 -3.785156 41.328125 -1.796875 C 37.628906 0.191406 33.296875 1.1875 28.328125 1.1875 Z M 28.328125 1.1875 "/></g></g></g><g fill="#000000" fill-opacity="1"><g transform="translate(100.160097, 70.927014)"><g><path d="M 7.3125 0 C 6.5625 0 6.019531 -0.160156 5.6875 -0.484375 C 5.363281 -0.816406 5.203125 -1.359375 5.203125 -2.109375 L 5.203125 -46.609375 C 5.203125 -47.398438 5.363281 -47.945312 5.6875 -48.25 C 6.019531 -48.5625 6.5625 -48.71875 7.3125 -48.71875 L 17.859375 -48.71875 C 18.515625 -48.71875 19.015625 -48.609375 19.359375 -48.390625 C 19.710938 -48.179688 20.054688 -47.726562 20.390625 -47.03125 L 31.421875 -22.28125 L 42.59375 -47.03125 C 42.925781 -47.726562 43.265625 -48.179688 43.609375 -48.390625 C 43.960938 -48.609375 44.46875 -48.71875 45.125 -48.71875 L 55.1875 -48.71875 C 55.976562 -48.71875 56.523438 -48.5625 56.828125 -48.25 C 57.140625 -47.945312 57.296875 -47.398438 57.296875 -46.609375 L 57.296875 -2.109375 C 57.296875 -1.359375 57.140625 -0.816406 56.828125 -0.484375 C 56.523438 -0.160156 55.976562 0 55.1875 0 L 47.734375 0 C 46.984375 0 46.441406 -0.160156 46.109375 -0.484375 C 45.785156 -0.816406 45.625 -1.359375 45.625 -2.109375 L 45.625 -30.09375 L 37.953125 -12.796875 C 37.628906 -12.085938 37.289062 -11.628906 36.9375 -11.421875 C 36.582031 -11.210938 36.078125 -11.109375 35.421875 -11.109375 L 27.0625 -11.109375 C 26.40625 -11.109375 25.898438 -11.210938 25.546875 -11.421875 C 25.203125 -11.628906 24.863281 -12.085938 24.53125 -12.796875 L 16.875 -30.09375 L 16.875 -2.109375 C 16.875 -1.359375 16.71875 -0.816406 16.40625 -0.484375 C 16.101562 -0.160156 15.554688 0 14.765625 0 Z M 7.3125 0 "/></g></g></g><g fill="#000000" fill-opacity="1"><g transform="translate(162.652588, 70.927014)"><g><path d="M 7.3125 0 C 6.5625 0 6.019531 -0.160156 5.6875 -0.484375 C 5.363281 -0.816406 5.203125 -1.359375 5.203125 -2.109375 L 5.203125 -46.609375 C 5.203125 -47.398438 5.363281 -47.945312 5.6875 -48.25 C 6.019531 -48.5625 6.5625 -48.71875 7.3125 -48.71875 L 17.859375 -48.71875 C 18.515625 -48.71875 19.015625 -48.609375 19.359375 -48.390625 C 19.710938 -48.179688 20.054688 -47.726562 20.390625 -47.03125 L 31.421875 -22.28125 L 42.59375 -47.03125 C 42.925781 -47.726562 43.265625 -48.179688 43.609375 -48.390625 C 43.960938 -48.609375 44.46875 -48.71875 45.125 -48.71875 L 55.1875 -48.71875 C 55.976562 -48.71875 56.523438 -48.5625 56.828125 -48.25 C 57.140625 -47.945312 57.296875 -47.398438 57.296875 -46.609375 L 57.296875 -2.109375 C 57.296875 -1.359375 57.140625 -0.816406 56.828125 -0.484375 C 56.523438 -0.160156 55.976562 0 55.1875 0 L 47.734375 0 C 46.984375 0 46.441406 -0.160156 46.109375 -0.484375 C 45.785156 -0.816406 45.625 -1.359375 45.625 -2.109375 L 45.625 -30.09375 L 37.953125 -12.796875 C 37.628906 -12.085938 37.289062 -11.628906 36.9375 -11.421875 C 36.582031 -11.210938 36.078125 -11.109375 35.421875 -11.109375 L 27.0625 -11.109375 C 26.40625 -11.109375 25.898438 -11.210938 25.546875 -11.421875 C 25.203125 -11.628906 24.863281 -12.085938 24.53125 -12.796875 L 16.875 -30.09375 L 16.875 -2.109375 C 16.875 -1.359375 16.71875 -0.816406 16.40625 -0.484375 C 16.101562 -0.160156 15.554688 0 14.765625 0 Z M 7.3125 0 "/></g></g></g><g fill="#000000" fill-opacity="1"><g transform="translate(225.145079, 70.927014)"><g><path d="M 26.21875 1.1875 C 19.46875 1.1875 14.226562 -0.460938 10.5 -3.765625 C 6.78125 -7.066406 4.921875 -11.765625 4.921875 -17.859375 L 4.921875 -46.609375 C 4.921875 -47.398438 5.082031 -47.945312 5.40625 -48.25 C 5.738281 -48.5625 6.28125 -48.71875 7.03125 -48.71875 L 16.375 -48.71875 C 17.175781 -48.71875 17.726562 -48.5625 18.03125 -48.25 C 18.332031 -47.945312 18.484375 -47.398438 18.484375 -46.609375 L 18.484375 -17.4375 C 18.484375 -14.851562 19.140625 -12.894531 20.453125 -11.5625 C 21.765625 -10.226562 23.6875 -9.5625 26.21875 -9.5625 C 31.425781 -9.5625 34.03125 -12.1875 34.03125 -17.4375 L 34.03125 -46.609375 C 34.03125 -47.398438 34.191406 -47.945312 34.515625 -48.25 C 34.835938 -48.5625 35.375 -48.71875 36.125 -48.71875 L 45.484375 -48.71875 C 46.273438 -48.71875 46.820312 -48.5625 47.125 -48.25 C 47.4375 -47.945312 47.59375 -47.398438 47.59375 -46.609375 L 47.59375 -17.78125 C 47.59375 -11.738281 45.71875 -7.066406 41.96875 -3.765625 C 38.21875 -0.460938 32.96875 1.1875 26.21875 1.1875 Z M 26.21875 1.1875 "/></g></g></g><g fill="#000000" fill-opacity="1"><g transform="translate(277.655649, 70.927014)"><g><path d="M 7.3125 0 C 6.5625 0 6.019531 -0.160156 5.6875 -0.484375 C 5.363281 -0.816406 5.203125 -1.359375 5.203125 -2.109375 L 5.203125 -46.609375 C 5.203125 -47.398438 5.363281 -47.945312 5.6875 -48.25 C 6.019531 -48.5625 6.5625 -48.71875 7.3125 -48.71875 L 17.21875 -48.71875 C 18.019531 -48.71875 18.617188 -48.597656 19.015625 -48.359375 C 19.410156 -48.128906 19.773438 -47.734375 20.109375 -47.171875 L 36.34375 -17.921875 L 36.34375 -46.609375 C 36.34375 -47.398438 36.503906 -47.945312 36.828125 -48.25 C 37.160156 -48.5625 37.703125 -48.71875 38.453125 -48.71875 L 45.90625 -48.71875 C 46.695312 -48.71875 47.242188 -48.5625 47.546875 -48.25 C 47.859375 -47.945312 48.015625 -47.398438 48.015625 -46.609375 L 48.015625 -2.109375 C 48.015625 -1.359375 47.859375 -0.816406 47.546875 -0.484375 C 47.242188 -0.160156 46.695312 0 45.90625 0 L 35.984375 0 C 35.191406 0 34.597656 -0.113281 34.203125 -0.34375 C 33.804688 -0.582031 33.441406 -0.984375 33.109375 -1.546875 L 16.875 -30.515625 L 16.875 -2.109375 C 16.875 -1.359375 16.71875 -0.816406 16.40625 -0.484375 C 16.101562 -0.160156 15.554688 0 14.765625 0 Z M 7.3125 0 "/></g></g></g><g fill="#000000" fill-opacity="1"><g transform="translate(330.869186, 70.927014)"><g><path d="M 7.59375 0 C 6.84375 0 6.300781 -0.160156 5.96875 -0.484375 C 5.644531 -0.816406 5.484375 -1.359375 5.484375 -2.109375 L 5.484375 -46.609375 C 5.484375 -47.398438 5.644531 -47.945312 5.96875 -48.25 C 6.300781 -48.5625 6.84375 -48.71875 7.59375 -48.71875 L 16.9375 -48.71875 C 17.738281 -48.71875 18.289062 -48.5625 18.59375 -48.25 C 18.894531 -47.945312 19.046875 -47.398438 19.046875 -46.609375 L 19.046875 -2.109375 C 19.046875 -1.359375 18.894531 -0.816406 18.59375 -0.484375 C 18.289062 -0.160156 17.738281 0 16.9375 0 Z M 7.59375 0 "/></g></g></g><g fill="#000000" fill-opacity="1"><g transform="translate(355.402248, 70.927014)"><g><path d="M 16.875 0 C 16.125 0 15.582031 -0.160156 15.25 -0.484375 C 14.925781 -0.816406 14.765625 -1.359375 14.765625 -2.109375 L 14.765625 -38.09375 L 2.734375 -38.09375 C 1.984375 -38.09375 1.441406 -38.253906 1.109375 -38.578125 C 0.785156 -38.910156 0.625 -39.453125 0.625 -40.203125 L 0.625 -46.609375 C 0.625 -47.398438 0.785156 -47.945312 1.109375 -48.25 C 1.441406 -48.5625 1.984375 -48.71875 2.734375 -48.71875 L 40.34375 -48.71875 C 41.144531 -48.71875 41.695312 -48.5625 42 -48.25 C 42.300781 -47.945312 42.453125 -47.398438 42.453125 -46.609375 L 42.453125 -40.203125 C 42.453125 -39.453125 42.300781 -38.910156 42 -38.578125 C 41.695312 -38.253906 41.144531 -38.09375 40.34375 -38.09375 L 28.328125 -38.09375 L 28.328125 -2.109375 C 28.328125 -1.359375 28.175781 -0.816406 27.875 -0.484375 C 27.570312 -0.160156 27.019531 0 26.21875 0 Z M 16.875 0 "/></g></g></g><g fill="#000000" fill-opacity="1"><g transform="translate(401.305019, 70.927014)"><g><path d="M 18.625 0 C 17.875 0 17.332031 -0.160156 17 -0.484375 C 16.675781 -0.816406 16.515625 -1.359375 16.515625 -2.109375 L 16.515625 -18.34375 L 1.828125 -45.203125 C 1.265625 -46.179688 0.984375 -46.882812 0.984375 -47.3125 C 0.984375 -48.25 1.59375 -48.71875 2.8125 -48.71875 L 12.796875 -48.71875 C 13.546875 -48.71875 14.140625 -48.578125 14.578125 -48.296875 C 15.023438 -48.015625 15.390625 -47.546875 15.671875 -46.890625 L 23.6875 -28.046875 L 31.84375 -46.890625 C 32.125 -47.546875 32.488281 -48.015625 32.9375 -48.296875 C 33.382812 -48.578125 33.984375 -48.71875 34.734375 -48.71875 L 44 -48.71875 C 45.21875 -48.71875 45.828125 -48.25 45.828125 -47.3125 C 45.828125 -46.882812 45.546875 -46.179688 44.984375 -45.203125 L 30.09375 -18.203125 L 30.09375 -2.109375 C 30.09375 -1.359375 29.9375 -0.816406 29.625 -0.484375 C 29.320312 -0.160156 28.773438 0 27.984375 0 Z M 18.625 0 "/></g></g></g><g fill="#000000" fill-opacity="1"><g transform="translate(448.121661, 70.927014)"><g/></g></g><g fill="#000000" fill-opacity="1"><g transform="translate(465.554861, 70.927014)"><g><path d="M 7.3125 0 C 6.5625 0 6.019531 -0.160156 5.6875 -0.484375 C 5.363281 -0.816406 5.203125 -1.359375 5.203125 -2.109375 L 5.203125 -46.609375 C 5.203125 -47.398438 5.363281 -47.945312 5.6875 -48.25 C 6.019531 -48.5625 6.5625 -48.71875 7.3125 -48.71875 L 24.25 -48.71875 C 31.75 -48.71875 37.5625 -46.609375 41.6875 -42.390625 C 45.8125 -38.171875 47.875 -32.171875 47.875 -24.390625 C 47.875 -19.285156 46.957031 -14.890625 45.125 -11.203125 C 43.300781 -7.523438 40.691406 -4.738281 37.296875 -2.84375 C 33.898438 -0.945312 29.832031 0 25.09375 0 Z M 18.765625 -10.40625 L 23.40625 -10.40625 C 30.488281 -10.40625 34.03125 -14.859375 34.03125 -23.765625 L 34.03125 -25.03125 C 34.03125 -33.882812 30.535156 -38.3125 23.546875 -38.3125 L 18.765625 -38.3125 Z M 18.765625 -10.40625 "/></g></g></g><g fill="#000000" fill-opacity="1"><g transform="translate(515.113049, 70.927014)"><g><path d="M 29.53125 -18.984375 L 24.46875 -37.046875 L 19.546875 -18.984375 Z M 2.453125 0 C 1.234375 0 0.625 -0.46875 0.625 -1.40625 C 0.625 -1.78125 0.8125 -2.484375 1.1875 -3.515625 L 16.734375 -47.03125 C 16.960938 -47.6875 17.238281 -48.128906 17.5625 -48.359375 C 17.894531 -48.597656 18.4375 -48.71875 19.1875 -48.71875 L 30.4375 -48.71875 C 31.1875 -48.71875 31.722656 -48.597656 32.046875 -48.359375 C 32.378906 -48.128906 32.664062 -47.6875 32.90625 -47.03125 L 48.5 -3.515625 C 48.875 -2.484375 49.0625 -1.78125 49.0625 -1.40625 C 49.0625 -0.46875 48.453125 0 47.234375 0 L 36.6875 0 C 35.9375 0 35.382812 -0.140625 35.03125 -0.421875 C 34.6875 -0.703125 34.398438 -1.265625 34.171875 -2.109375 L 32.0625 -9.421875 L 17.015625 -9.421875 L 14.96875 -2.109375 C 14.738281 -1.265625 14.445312 -0.703125 14.09375 -0.421875 C 13.738281 -0.140625 13.1875 0 12.4375 0 Z M 2.453125 0 "/></g></g></g><g fill="#000000" fill-opacity="1"><g transform="translate(559.89118, 70.927014)"><g><path d="M 18.625 0 C 17.875 0 17.332031 -0.160156 17 -0.484375 C 16.675781 -0.816406 16.515625 -1.359375 16.515625 -2.109375 L 16.515625 -18.34375 L 1.828125 -45.203125 C 1.265625 -46.179688 0.984375 -46.882812 0.984375 -47.3125 C 0.984375 -48.25 1.59375 -48.71875 2.8125 -48.71875 L 12.796875 -48.71875 C 13.546875 -48.71875 14.140625 -48.578125 14.578125 -48.296875 C 15.023438 -48.015625 15.390625 -47.546875 15.671875 -46.890625 L 23.6875 -28.046875 L 31.84375 -46.890625 C 32.125 -47.546875 32.488281 -48.015625 32.9375 -48.296875 C 33.382812 -48.578125 33.984375 -48.71875 34.734375 -48.71875 L 44 -48.71875 C 45.21875 -48.71875 45.828125 -48.25 45.828125 -47.3125 C 45.828125 -46.882812 45.546875 -46.179688 44.984375 -45.203125 L 30.09375 -18.203125 L 30.09375 -2.109375 C 30.09375 -1.359375 29.9375 -0.816406 29.625 -0.484375 C 29.320312 -0.160156 28.773438 0 27.984375 0 Z M 18.625 0 "/></g></g></g></g></g><g transform="matrix(1, 0, 0, 1, 286, 194)"><g clip-path="url(#fb627d360b)"><g fill="#ff9900" fill-opacity="1"><g transform="translate(1.011862, 26.058378)"><g><path d="M 10.65625 -3.59375 C 11.988281 -3.59375 12.992188 -4.054688 13.671875 -4.984375 C 14.359375 -5.921875 14.703125 -7.300781 14.703125 -9.125 C 14.703125 -10.96875 14.359375 -12.359375 13.671875 -13.296875 C 12.984375 -14.242188 11.976562 -14.71875 10.65625 -14.71875 C 9.332031 -14.71875 8.332031 -14.25 7.65625 -13.3125 C 6.976562 -12.382812 6.640625 -11.015625 6.640625 -9.203125 C 6.640625 -7.367188 6.976562 -5.972656 7.65625 -5.015625 C 8.332031 -4.066406 9.332031 -3.59375 10.65625 -3.59375 Z M 10.65625 0.453125 C 8.726562 0.453125 7.066406 0.0507812 5.671875 -0.75 C 4.285156 -1.550781 3.226562 -2.675781 2.5 -4.125 C 1.78125 -5.570312 1.421875 -7.265625 1.421875 -9.203125 C 1.421875 -11.191406 1.800781 -12.90625 2.5625 -14.34375 C 3.320312 -15.78125 4.394531 -16.875 5.78125 -17.625 C 7.164062 -18.382812 8.789062 -18.765625 10.65625 -18.765625 C 12.570312 -18.765625 14.226562 -18.367188 15.625 -17.578125 C 17.019531 -16.785156 18.082031 -15.664062 18.8125 -14.21875 C 19.539062 -12.78125 19.90625 -11.082031 19.90625 -9.125 C 19.90625 -7.132812 19.523438 -5.414062 18.765625 -3.96875 C 18.015625 -2.519531 16.941406 -1.421875 15.546875 -0.671875 C 14.148438 0.078125 12.519531 0.453125 10.65625 0.453125 Z M 10.65625 0.453125 "/></g></g></g><g fill="#ff9900" fill-opacity="1"><g transform="translate(22.336523, 26.058378)"><g><path d="M 10.703125 0.34375 C 7.671875 0.34375 5.363281 -0.457031 3.78125 -2.0625 C 2.207031 -3.664062 1.421875 -6.007812 1.421875 -9.09375 C 1.421875 -12.125 2.242188 -14.476562 3.890625 -16.15625 C 5.546875 -17.832031 7.84375 -18.671875 10.78125 -18.671875 C 12.195312 -18.671875 13.519531 -18.484375 14.75 -18.109375 C 15.03125 -18.023438 15.21875 -17.90625 15.3125 -17.75 C 15.414062 -17.601562 15.46875 -17.363281 15.46875 -17.03125 L 15.46875 -14.8125 C 15.46875 -14.332031 15.28125 -14.09375 14.90625 -14.09375 C 14.820312 -14.09375 14.601562 -14.132812 14.25 -14.21875 C 13.382812 -14.414062 12.519531 -14.515625 11.65625 -14.515625 C 10.039062 -14.515625 8.816406 -14.085938 7.984375 -13.234375 C 7.148438 -12.378906 6.734375 -11.113281 6.734375 -9.4375 L 6.734375 -8.859375 C 6.734375 -7.210938 7.132812 -5.957031 7.9375 -5.09375 C 8.738281 -4.238281 9.925781 -3.8125 11.5 -3.8125 C 12.59375 -3.8125 13.613281 -3.925781 14.5625 -4.15625 C 14.84375 -4.21875 15.046875 -4.25 15.171875 -4.25 C 15.546875 -4.25 15.734375 -4.015625 15.734375 -3.546875 L 15.734375 -1.328125 C 15.734375 -0.984375 15.679688 -0.738281 15.578125 -0.59375 C 15.484375 -0.445312 15.296875 -0.328125 15.015625 -0.234375 C 13.816406 0.148438 12.378906 0.34375 10.703125 0.34375 Z M 10.703125 0.34375 "/></g></g></g><g fill="#ff9900" fill-opacity="1"><g transform="translate(38.799056, 26.058378)"><g><path d="M 2.75 0 C 2.46875 0 2.265625 -0.0625 2.140625 -0.1875 C 2.015625 -0.3125 1.953125 -0.515625 1.953125 -0.796875 L 1.953125 -17.53125 C 1.953125 -17.832031 2.015625 -18.039062 2.140625 -18.15625 C 2.265625 -18.269531 2.46875 -18.328125 2.75 -18.328125 L 13.9375 -18.328125 C 14.226562 -18.328125 14.429688 -18.269531 14.546875 -18.15625 C 14.660156 -18.039062 14.71875 -17.832031 14.71875 -17.53125 L 14.71875 -15.25 C 14.71875 -14.96875 14.660156 -14.765625 14.546875 -14.640625 C 14.429688 -14.523438 14.226562 -14.46875 13.9375 -14.46875 L 6.921875 -14.46875 L 6.921875 -11.265625 L 12.484375 -11.265625 C 12.773438 -11.265625 12.976562 -11.207031 13.09375 -11.09375 C 13.207031 -10.976562 13.265625 -10.769531 13.265625 -10.46875 L 13.265625 -8.203125 C 13.265625 -7.910156 13.207031 -7.703125 13.09375 -7.578125 C 12.976562 -7.460938 12.773438 -7.40625 12.484375 -7.40625 L 6.921875 -7.40625 L 6.921875 -3.859375 L 13.984375 -3.859375 C 14.285156 -3.859375 14.492188 -3.800781 14.609375 -3.6875 C 14.722656 -3.570312 14.78125 -3.363281 14.78125 -3.0625 L 14.78125 -0.796875 C 14.78125 -0.515625 14.722656 -0.3125 14.609375 -0.1875 C 14.492188 -0.0625 14.285156 0 13.984375 0 Z M 2.75 0 "/></g></g></g><g fill="#ff9900" fill-opacity="1"><g transform="translate(54.865314, 26.058378)"><g><path d="M 11.109375 -7.140625 L 9.203125 -13.9375 L 7.34375 -7.140625 Z M 0.921875 0 C 0.460938 0 0.234375 -0.175781 0.234375 -0.53125 C 0.234375 -0.664062 0.304688 -0.929688 0.453125 -1.328125 L 6.296875 -17.6875 C 6.378906 -17.9375 6.484375 -18.101562 6.609375 -18.1875 C 6.734375 -18.28125 6.9375 -18.328125 7.21875 -18.328125 L 11.453125 -18.328125 C 11.734375 -18.328125 11.929688 -18.28125 12.046875 -18.1875 C 12.171875 -18.101562 12.28125 -17.9375 12.375 -17.6875 L 18.234375 -1.328125 C 18.378906 -0.929688 18.453125 -0.664062 18.453125 -0.53125 C 18.453125 -0.175781 18.222656 0 17.765625 0 L 13.796875 0 C 13.515625 0 13.304688 -0.0507812 13.171875 -0.15625 C 13.046875 -0.257812 12.9375 -0.472656 12.84375 -0.796875 L 12.0625 -3.546875 L 6.390625 -3.546875 L 5.625 -0.796875 C 5.539062 -0.472656 5.429688 -0.257812 5.296875 -0.15625 C 5.171875 -0.0507812 4.960938 0 4.671875 0 Z M 0.921875 0 "/></g></g></g><g fill="#ff9900" fill-opacity="1"><g transform="translate(73.547514, 26.058378)"><g><path d="M 2.75 0 C 2.46875 0 2.265625 -0.0625 2.140625 -0.1875 C 2.015625 -0.3125 1.953125 -0.515625 1.953125 -0.796875 L 1.953125 -17.53125 C 1.953125 -17.832031 2.015625 -18.039062 2.140625 -18.15625 C 2.265625 -18.269531 2.46875 -18.328125 2.75 -18.328125 L 6.484375 -18.328125 C 6.773438 -18.328125 6.992188 -18.28125 7.140625 -18.1875 C 7.296875 -18.101562 7.4375 -17.953125 7.5625 -17.734375 L 13.671875 -6.734375 L 13.671875 -17.53125 C 13.671875 -17.832031 13.726562 -18.039062 13.84375 -18.15625 C 13.96875 -18.269531 14.175781 -18.328125 14.46875 -18.328125 L 17.265625 -18.328125 C 17.566406 -18.328125 17.773438 -18.269531 17.890625 -18.15625 C 18.003906 -18.039062 18.0625 -17.832031 18.0625 -17.53125 L 18.0625 -0.796875 C 18.0625 -0.515625 18.003906 -0.3125 17.890625 -0.1875 C 17.773438 -0.0625 17.566406 0 17.265625 0 L 13.53125 0 C 13.238281 0 13.015625 -0.0390625 12.859375 -0.125 C 12.710938 -0.21875 12.578125 -0.367188 12.453125 -0.578125 L 6.34375 -11.46875 L 6.34375 -0.796875 C 6.34375 -0.515625 6.285156 -0.3125 6.171875 -0.1875 C 6.054688 -0.0625 5.847656 0 5.546875 0 Z M 2.75 0 "/></g></g></g><g fill="#ff9900" fill-opacity="1"><g transform="translate(93.550945, 26.058378)"><g><path d="M 2.859375 0 C 2.578125 0 2.375 -0.0625 2.25 -0.1875 C 2.125 -0.3125 2.0625 -0.515625 2.0625 -0.796875 L 2.0625 -17.53125 C 2.0625 -17.832031 2.125 -18.039062 2.25 -18.15625 C 2.375 -18.269531 2.578125 -18.328125 2.859375 -18.328125 L 6.375 -18.328125 C 6.675781 -18.328125 6.882812 -18.269531 7 -18.15625 C 7.113281 -18.039062 7.171875 -17.832031 7.171875 -17.53125 L 7.171875 -0.796875 C 7.171875 -0.515625 7.113281 -0.3125 7 -0.1875 C 6.882812 -0.0625 6.675781 0 6.375 0 Z M 2.859375 0 "/></g></g></g><g fill="#ff9900" fill-opacity="1"><g transform="translate(102.773137, 26.058378)"><g><path d="M 11.109375 -7.140625 L 9.203125 -13.9375 L 7.34375 -7.140625 Z M 0.921875 0 C 0.460938 0 0.234375 -0.175781 0.234375 -0.53125 C 0.234375 -0.664062 0.304688 -0.929688 0.453125 -1.328125 L 6.296875 -17.6875 C 6.378906 -17.9375 6.484375 -18.101562 6.609375 -18.1875 C 6.734375 -18.28125 6.9375 -18.328125 7.21875 -18.328125 L 11.453125 -18.328125 C 11.734375 -18.328125 11.929688 -18.28125 12.046875 -18.1875 C 12.171875 -18.101562 12.28125 -17.9375 12.375 -17.6875 L 18.234375 -1.328125 C 18.378906 -0.929688 18.453125 -0.664062 18.453125 -0.53125 C 18.453125 -0.175781 18.222656 0 17.765625 0 L 13.796875 0 C 13.515625 0 13.304688 -0.0507812 13.171875 -0.15625 C 13.046875 -0.257812 12.9375 -0.472656 12.84375 -0.796875 L 12.0625 -3.546875 L 6.390625 -3.546875 L 5.625 -0.796875 C 5.539062 -0.472656 5.429688 -0.257812 5.296875 -0.15625 C 5.171875 -0.0507812 4.960938 0 4.671875 0 Z M 0.921875 0 "/></g></g></g></g></g><path stroke-linecap="round" transform="matrix(0.749179, 0.00429602, -0.00429602, 0.749179, 99.910928, 210.328893)" fill="none" stroke-linejoin="miter" d="M 1.000582 0.999547 L 173.392332 1.001668 " stroke="#000000" stroke-width="2" stroke-opacity="1" stroke-miterlimit="4"/><path stroke-linecap="round" transform="matrix(0.749179, 0.00429602, -0.00429602, 0.749179, 463.939515, 210.703489)" fill="none" stroke-linejoin="miter" d="M 0.998927 1.000096 L 173.390676 1.002217 " stroke="#000000" stroke-width="2" stroke-opacity="1" stroke-miterlimit="4"/></svg>