<svg xmlns="http://www.w3.org/2000/svg" xmlns:xlink="http://www.w3.org/1999/xlink" width="500" zoomAndPan="magnify" viewBox="0 0 375 374.999991" height="500" preserveAspectRatio="xMidYMid meet" version="1.0"><defs><g/><clipPath id="bfa561fae4"><path d="M 187.5 0 C 83.945312 0 0 83.945312 0 187.5 C 0 291.054688 83.945312 375 187.5 375 C 291.054688 375 375 291.054688 375 187.5 C 375 83.945312 291.054688 0 187.5 0 Z M 187.5 0 " clip-rule="nonzero"/></clipPath><clipPath id="41352fdf77"><path d="M 0 0 L 375 0 L 375 375 L 0 375 Z M 0 0 " clip-rule="nonzero"/></clipPath><clipPath id="cecb88ab0f"><path d="M 187.5 0 C 83.945312 0 0 83.945312 0 187.5 C 0 291.054688 83.945312 375 187.5 375 C 291.054688 375 375 291.054688 375 187.5 C 375 83.945312 291.054688 0 187.5 0 Z M 187.5 0 " clip-rule="nonzero"/></clipPath><clipPath id="7050448523"><rect x="0" width="375" y="0" height="375"/></clipPath><clipPath id="0b3f583138"><path d="M 29.910156 168 L 212 168 L 212 210 L 29.910156 210 Z M 29.910156 168 " clip-rule="nonzero"/></clipPath><clipPath id="aede16f53e"><path d="M 192 164 L 229.410156 164 L 229.410156 202 L 192 202 Z M 192 164 " clip-rule="nonzero"/></clipPath><clipPath id="3961e36b45"><rect x="0" width="118" y="0" height="102"/></clipPath><clipPath id="ed5f47eb56"><rect x="0" width="291" y="0" height="89"/></clipPath></defs><g clip-path="url(#bfa561fae4)"><g transform="matrix(1, 0, 0, 1, 0, 0)"><g clip-path="url(#7050448523)"><g clip-path="url(#41352fdf77)"><g clip-path="url(#cecb88ab0f)"><rect x="-82.5" width="540" fill="#ffffff" height="539.999987" y="-82.499998" fill-opacity="1"/></g></g></g></g></g><g clip-path="url(#0b3f583138)"><path fill="#ff9900" d="M 210.367188 184.871094 C 188.535156 201.050781 156.796875 209.648438 129.515625 209.648438 C 91.277344 209.648438 56.820312 195.460938 30.796875 171.882812 C 28.738281 170.011719 30.597656 167.480469 33.042969 168.953125 C 61.199219 185.332031 95.917969 195.261719 131.847656 195.261719 C 156.0625 195.261719 182.683594 190.199219 207.1875 179.804688 C 210.839844 178.148438 213.960938 182.203125 210.367188 184.871094 Z M 210.367188 184.871094 " fill-opacity="1" fill-rule="evenodd"/></g><g clip-path="url(#aede16f53e)"><path fill="#ff9900" d="M 219.460938 174.480469 C 216.679688 170.898438 201.011719 172.757812 193.914062 173.617188 C 191.792969 173.894531 191.453125 172.023438 193.375 170.625 C 205.851562 161.828125 226.375 164.363281 228.757812 167.292969 C 231.152344 170.289062 228.09375 190.871094 216.40625 200.726562 C 214.621094 202.261719 212.898438 201.476562 213.699219 199.480469 C 216.34375 192.867188 222.257812 178.023438 219.460938 174.492188 Z M 219.460938 174.480469 " fill-opacity="1" fill-rule="evenodd"/></g><g transform="matrix(1, 0, 0, 1, 229, 67)"><g clip-path="url(#3961e36b45)"><g fill="#ff9900" fill-opacity="1"><g transform="translate(0.519032, 81.060265)"><g><path d="M 34.46875 1.109375 C 24.707031 1.109375 17.285156 -1.46875 12.203125 -6.625 C 7.128906 -11.789062 4.59375 -19.335938 4.59375 -29.265625 C 4.59375 -39.023438 7.242188 -46.597656 12.546875 -51.984375 C 17.847656 -57.378906 25.238281 -60.078125 34.71875 -60.078125 C 39.257812 -60.078125 43.515625 -59.484375 47.484375 -58.296875 C 48.390625 -58.003906 49 -57.617188 49.3125 -57.140625 C 49.625 -56.660156 49.78125 -55.878906 49.78125 -54.796875 L 49.78125 -47.65625 C 49.78125 -46.125 49.1875 -45.359375 48 -45.359375 C 47.707031 -45.359375 46.992188 -45.5 45.859375 -45.78125 C 43.085938 -46.40625 40.3125 -46.71875 37.53125 -46.71875 C 32.3125 -46.71875 28.367188 -45.34375 25.703125 -42.59375 C 23.035156 -39.84375 21.703125 -35.769531 21.703125 -30.375 L 21.703125 -28.5 C 21.703125 -23.226562 22.988281 -19.203125 25.5625 -16.421875 C 28.144531 -13.640625 31.960938 -12.25 37.015625 -12.25 C 40.535156 -12.25 43.828125 -12.617188 46.890625 -13.359375 C 47.796875 -13.585938 48.445312 -13.703125 48.84375 -13.703125 C 50.03125 -13.703125 50.625 -12.9375 50.625 -11.40625 L 50.625 -4.25 C 50.625 -3.175781 50.46875 -2.394531 50.15625 -1.90625 C 49.84375 -1.425781 49.234375 -1.046875 48.328125 -0.765625 C 44.472656 0.484375 39.851562 1.109375 34.46875 1.109375 Z M 34.46875 1.109375 "/></g></g></g><g fill="#ff9900" fill-opacity="1"><g transform="translate(53.52307, 81.060265)"><g><path d="M 8.84375 0 C 7.9375 0 7.285156 -0.195312 6.890625 -0.59375 C 6.492188 -0.988281 6.296875 -1.640625 6.296875 -2.546875 L 6.296875 -56.421875 C 6.296875 -57.378906 6.492188 -58.039062 6.890625 -58.40625 C 7.285156 -58.78125 7.9375 -58.96875 8.84375 -58.96875 L 29.359375 -58.96875 C 38.429688 -58.96875 45.460938 -56.414062 50.453125 -51.3125 C 55.453125 -46.207031 57.953125 -38.945312 57.953125 -29.53125 C 57.953125 -23.34375 56.84375 -18.019531 54.625 -13.5625 C 52.414062 -9.113281 49.253906 -5.738281 45.140625 -3.4375 C 41.023438 -1.144531 36.101562 0 30.375 0 Z M 22.71875 -12.59375 L 28.34375 -12.59375 C 36.90625 -12.59375 41.1875 -17.984375 41.1875 -28.765625 L 41.1875 -30.296875 C 41.1875 -41.015625 36.957031 -46.375 28.5 -46.375 L 22.71875 -46.375 Z M 22.71875 -12.59375 "/></g></g></g></g></g><g transform="matrix(1, 0, 0, 1, 42, 226)"><g clip-path="url(#ed5f47eb56)"><g fill="#ff9900" fill-opacity="1"><g transform="translate(1.372608, 71.631978)"><g><path d="M 29.640625 -10 C 33.367188 -10 36.175781 -11.296875 38.0625 -13.890625 C 39.945312 -16.492188 40.890625 -20.320312 40.890625 -25.375 C 40.890625 -30.519531 39.929688 -34.40625 38.015625 -37.03125 C 36.109375 -39.65625 33.316406 -40.96875 29.640625 -40.96875 C 25.960938 -40.96875 23.175781 -39.664062 21.28125 -37.0625 C 19.394531 -34.46875 18.453125 -30.644531 18.453125 -25.59375 C 18.453125 -20.5 19.394531 -16.625 21.28125 -13.96875 C 23.175781 -11.320312 25.960938 -10 29.640625 -10 Z M 29.640625 1.25 C 24.296875 1.25 19.6875 0.132812 15.8125 -2.09375 C 11.9375 -4.320312 8.992188 -7.445312 6.984375 -11.46875 C 4.972656 -15.488281 3.96875 -20.195312 3.96875 -25.59375 C 3.96875 -31.132812 5.019531 -35.898438 7.125 -39.890625 C 9.238281 -43.890625 12.21875 -46.941406 16.0625 -49.046875 C 19.914062 -51.160156 24.441406 -52.21875 29.640625 -52.21875 C 34.984375 -52.21875 39.59375 -51.113281 43.46875 -48.90625 C 47.34375 -46.695312 50.296875 -43.582031 52.328125 -39.5625 C 54.359375 -35.539062 55.375 -30.8125 55.375 -25.375 C 55.375 -19.832031 54.320312 -15.050781 52.21875 -11.03125 C 50.113281 -7.007812 47.125 -3.957031 43.25 -1.875 C 39.375 0.207031 34.835938 1.25 29.640625 1.25 Z M 29.640625 1.25 "/></g></g></g><g fill="#ff9900" fill-opacity="1"><g transform="translate(60.72396, 71.631978)"><g><path d="M 22.21875 0.8125 C 15.882812 0.8125 11.0625 -0.84375 7.75 -4.15625 C 4.445312 -7.46875 2.796875 -12.3125 2.796875 -18.6875 C 2.796875 -25.007812 4.546875 -29.921875 8.046875 -33.421875 C 11.554688 -36.929688 16.472656 -38.6875 22.796875 -38.6875 C 26.085938 -38.6875 29.03125 -38.171875 31.625 -37.140625 C 32.40625 -36.847656 32.929688 -36.503906 33.203125 -36.109375 C 33.472656 -35.710938 33.609375 -35.050781 33.609375 -34.125 L 33.609375 -29.859375 C 33.609375 -28.535156 33.09375 -27.875 32.0625 -27.875 C 31.820312 -27.875 31.210938 -27.992188 30.234375 -28.234375 C 28.660156 -28.628906 27.113281 -28.828125 25.59375 -28.828125 C 22.550781 -28.828125 20.316406 -28.066406 18.890625 -26.546875 C 17.472656 -25.023438 16.765625 -22.648438 16.765625 -19.421875 L 16.765625 -18.390625 C 16.765625 -15.203125 17.472656 -12.847656 18.890625 -11.328125 C 20.316406 -9.804688 22.476562 -9.046875 25.375 -9.046875 C 26.113281 -9.046875 26.992188 -9.101562 28.015625 -9.21875 C 29.046875 -9.34375 29.832031 -9.503906 30.375 -9.703125 C 31.351562 -9.953125 31.96875 -10.078125 32.21875 -10.078125 C 33.25 -10.078125 33.765625 -9.414062 33.765625 -8.09375 L 33.765625 -3.828125 C 33.765625 -2.890625 33.628906 -2.222656 33.359375 -1.828125 C 33.085938 -1.441406 32.554688 -1.101562 31.765625 -0.8125 C 28.828125 0.269531 25.644531 0.8125 22.21875 0.8125 Z M 22.21875 0.8125 "/></g></g></g><g fill="#ff9900" fill-opacity="1"><g transform="translate(96.025829, 71.631978)"><g><path d="M 22.65625 1.109375 C 9.414062 1.109375 2.796875 -5.5625 2.796875 -18.90625 C 2.796875 -25.175781 4.484375 -30.085938 7.859375 -33.640625 C 11.242188 -37.203125 15.953125 -38.984375 21.984375 -38.984375 C 27.085938 -38.984375 31.035156 -37.617188 33.828125 -34.890625 C 36.628906 -32.171875 38.03125 -28.285156 38.03125 -23.234375 C 38.03125 -21.472656 37.878906 -19.613281 37.578125 -17.65625 C 37.429688 -16.820312 37.195312 -16.242188 36.875 -15.921875 C 36.5625 -15.597656 36.015625 -15.4375 35.234375 -15.4375 L 15.375 -15.4375 C 15.613281 -12.988281 16.554688 -11.210938 18.203125 -10.109375 C 19.847656 -9.003906 22.3125 -8.453125 25.59375 -8.453125 C 28.238281 -8.453125 30.910156 -8.847656 33.609375 -9.640625 C 34.390625 -9.878906 35.003906 -10 35.453125 -10 C 36.523438 -10 37.0625 -9.335938 37.0625 -8.015625 L 37.0625 -4.046875 C 37.0625 -3.160156 36.9375 -2.519531 36.6875 -2.125 C 36.445312 -1.738281 35.910156 -1.375 35.078125 -1.03125 C 33.460938 -0.394531 31.488281 0.117188 29.15625 0.515625 C 26.832031 0.910156 24.664062 1.109375 22.65625 1.109375 Z M 26.40625 -23.390625 L 26.40625 -24.265625 C 26.40625 -27.941406 24.8125 -29.78125 21.625 -29.78125 C 19.851562 -29.78125 18.425781 -29.226562 17.34375 -28.125 C 16.269531 -27.03125 15.613281 -25.453125 15.375 -23.390625 Z M 26.40625 -23.390625 "/></g></g></g><g fill="#ff9900" fill-opacity="1"><g transform="translate(136.770125, 71.631978)"><g><path d="M 14.484375 1.328125 C 10.804688 1.328125 7.863281 0.257812 5.65625 -1.875 C 3.457031 -4.007812 2.359375 -6.816406 2.359375 -10.296875 C 2.359375 -12.796875 3.019531 -14.988281 4.34375 -16.875 C 5.664062 -18.757812 7.476562 -20.203125 9.78125 -21.203125 C 12.082031 -22.210938 14.707031 -22.71875 17.65625 -22.71875 C 20.050781 -22.71875 22.253906 -22.5 24.265625 -22.0625 L 24.265625 -23.96875 C 24.265625 -25.976562 23.796875 -27.390625 22.859375 -28.203125 C 21.929688 -29.015625 20.296875 -29.421875 17.953125 -29.421875 C 16.671875 -29.421875 15.179688 -29.285156 13.484375 -29.015625 C 11.796875 -28.742188 10.289062 -28.410156 8.96875 -28.015625 C 7.894531 -27.671875 7.132812 -27.5 6.6875 -27.5 C 5.8125 -27.5 5.375 -28.140625 5.375 -29.421875 L 5.375 -33.53125 C 5.375 -34.414062 5.492188 -35.050781 5.734375 -35.4375 C 5.984375 -35.832031 6.523438 -36.203125 7.359375 -36.546875 C 11.378906 -38.171875 16.0625 -38.984375 21.40625 -38.984375 C 26.800781 -38.984375 30.757812 -37.890625 33.28125 -35.703125 C 35.800781 -33.523438 37.0625 -30.082031 37.0625 -25.375 L 37.0625 -2.203125 C 37.0625 -1.421875 36.898438 -0.859375 36.578125 -0.515625 C 36.265625 -0.171875 35.691406 0 34.859375 0 L 28.09375 0 C 27.40625 0 26.878906 -0.132812 26.515625 -0.40625 C 26.148438 -0.675781 25.84375 -1.175781 25.59375 -1.90625 L 25.234375 -2.9375 C 23.753906 -1.5625 22.082031 -0.507812 20.21875 0.21875 C 18.363281 0.957031 16.453125 1.328125 14.484375 1.328125 Z M 18.96875 -7.421875 C 19.90625 -7.421875 20.863281 -7.628906 21.84375 -8.046875 C 22.820312 -8.460938 23.628906 -8.992188 24.265625 -9.640625 L 24.265625 -15.078125 C 22.597656 -15.273438 21.25 -15.375 20.21875 -15.375 C 16.9375 -15.375 15.296875 -14 15.296875 -11.25 C 15.296875 -10.070312 15.625 -9.140625 16.28125 -8.453125 C 16.945312 -7.765625 17.84375 -7.421875 18.96875 -7.421875 Z M 18.96875 -7.421875 "/></g></g></g><g fill="#ff9900" fill-opacity="1"><g transform="translate(178.396986, 71.631978)"><g><path d="M 6.90625 0 C 6.125 0 5.5625 -0.171875 5.21875 -0.515625 C 4.875 -0.859375 4.703125 -1.421875 4.703125 -2.203125 L 4.703125 -35.671875 C 4.703125 -36.503906 4.875 -37.078125 5.21875 -37.390625 C 5.5625 -37.710938 6.125 -37.875 6.90625 -37.875 L 14.046875 -37.875 C 14.734375 -37.875 15.257812 -37.738281 15.625 -37.46875 C 16 -37.195312 16.304688 -36.695312 16.546875 -35.96875 L 17.140625 -34.046875 C 19.441406 -35.765625 21.695312 -37.015625 23.90625 -37.796875 C 26.113281 -38.585938 28.441406 -38.984375 30.890625 -38.984375 C 34.421875 -38.984375 37.117188 -38.023438 38.984375 -36.109375 C 40.847656 -34.203125 41.78125 -31.484375 41.78125 -27.953125 L 41.78125 -2.203125 C 41.78125 -1.421875 41.617188 -0.859375 41.296875 -0.515625 C 40.972656 -0.171875 40.394531 0 39.5625 0 L 30.15625 0 C 29.375 0 28.8125 -0.171875 28.46875 -0.515625 C 28.125 -0.859375 27.953125 -1.421875 27.953125 -2.203125 L 27.953125 -24.859375 C 27.953125 -26.328125 27.664062 -27.40625 27.09375 -28.09375 C 26.53125 -28.78125 25.585938 -29.125 24.265625 -29.125 C 22.453125 -29.125 20.539062 -28.507812 18.53125 -27.28125 L 18.53125 -2.203125 C 18.53125 -1.421875 18.367188 -0.859375 18.046875 -0.515625 C 17.734375 -0.171875 17.160156 0 16.328125 0 Z M 6.90625 0 "/></g></g></g><g fill="#ff9900" fill-opacity="1"><g transform="translate(224.730739, 71.631978)"><g><path d="M 6.90625 0 C 6.125 0 5.5625 -0.171875 5.21875 -0.515625 C 4.875 -0.859375 4.703125 -1.421875 4.703125 -2.203125 L 4.703125 -35.671875 C 4.703125 -36.503906 4.875 -37.078125 5.21875 -37.390625 C 5.5625 -37.710938 6.125 -37.875 6.90625 -37.875 L 16.328125 -37.875 C 17.160156 -37.875 17.734375 -37.710938 18.046875 -37.390625 C 18.367188 -37.078125 18.53125 -36.503906 18.53125 -35.671875 L 18.53125 -2.203125 C 18.53125 -1.421875 18.367188 -0.859375 18.046875 -0.515625 C 17.734375 -0.171875 17.160156 0 16.328125 0 Z M 11.625 -42.65625 C 9.269531 -42.65625 7.390625 -43.289062 5.984375 -44.5625 C 4.585938 -45.84375 3.890625 -47.535156 3.890625 -49.640625 C 3.890625 -51.753906 4.585938 -53.445312 5.984375 -54.71875 C 7.390625 -55.988281 9.269531 -56.625 11.625 -56.625 C 13.976562 -56.625 15.851562 -55.988281 17.25 -54.71875 C 18.644531 -53.445312 19.34375 -51.753906 19.34375 -49.640625 C 19.34375 -47.535156 18.644531 -45.84375 17.25 -44.5625 C 15.851562 -43.289062 13.976562 -42.65625 11.625 -42.65625 Z M 11.625 -42.65625 "/></g></g></g><g fill="#ff9900" fill-opacity="1"><g transform="translate(247.971187, 71.631978)"><g><path d="M 14.484375 1.328125 C 10.804688 1.328125 7.863281 0.257812 5.65625 -1.875 C 3.457031 -4.007812 2.359375 -6.816406 2.359375 -10.296875 C 2.359375 -12.796875 3.019531 -14.988281 4.34375 -16.875 C 5.664062 -18.757812 7.476562 -20.203125 9.78125 -21.203125 C 12.082031 -22.210938 14.707031 -22.71875 17.65625 -22.71875 C 20.050781 -22.71875 22.253906 -22.5 24.265625 -22.0625 L 24.265625 -23.96875 C 24.265625 -25.976562 23.796875 -27.390625 22.859375 -28.203125 C 21.929688 -29.015625 20.296875 -29.421875 17.953125 -29.421875 C 16.671875 -29.421875 15.179688 -29.285156 13.484375 -29.015625 C 11.796875 -28.742188 10.289062 -28.410156 8.96875 -28.015625 C 7.894531 -27.671875 7.132812 -27.5 6.6875 -27.5 C 5.8125 -27.5 5.375 -28.140625 5.375 -29.421875 L 5.375 -33.53125 C 5.375 -34.414062 5.492188 -35.050781 5.734375 -35.4375 C 5.984375 -35.832031 6.523438 -36.203125 7.359375 -36.546875 C 11.378906 -38.171875 16.0625 -38.984375 21.40625 -38.984375 C 26.800781 -38.984375 30.757812 -37.890625 33.28125 -35.703125 C 35.800781 -33.523438 37.0625 -30.082031 37.0625 -25.375 L 37.0625 -2.203125 C 37.0625 -1.421875 36.898438 -0.859375 36.578125 -0.515625 C 36.265625 -0.171875 35.691406 0 34.859375 0 L 28.09375 0 C 27.40625 0 26.878906 -0.132812 26.515625 -0.40625 C 26.148438 -0.675781 25.84375 -1.175781 25.59375 -1.90625 L 25.234375 -2.9375 C 23.753906 -1.5625 22.082031 -0.507812 20.21875 0.21875 C 18.363281 0.957031 16.453125 1.328125 14.484375 1.328125 Z M 18.96875 -7.421875 C 19.90625 -7.421875 20.863281 -7.628906 21.84375 -8.046875 C 22.820312 -8.460938 23.628906 -8.992188 24.265625 -9.640625 L 24.265625 -15.078125 C 22.597656 -15.273438 21.25 -15.375 20.21875 -15.375 C 16.9375 -15.375 15.296875 -14 15.296875 -11.25 C 15.296875 -10.070312 15.625 -9.140625 16.28125 -8.453125 C 16.945312 -7.765625 17.84375 -7.421875 18.96875 -7.421875 Z M 18.96875 -7.421875 "/></g></g></g></g></g><path fill="#252f3e" d="M 86.175781 133.398438 C 86.175781 135.855469 86.425781 137.851562 86.898438 139.324219 C 87.421875 140.785156 88.097656 142.378906 89.019531 144.113281 C 89.320312 144.582031 89.472656 145.09375 89.480469 145.648438 C 89.480469 146.308594 89.082031 146.984375 88.234375 147.644531 L 84.042969 150.4375 C 83.527344 150.808594 82.953125 151.011719 82.320312 151.039062 C 81.648438 151.039062 80.984375 150.714844 80.324219 150.113281 C 79.425781 149.148438 78.628906 148.105469 77.929688 146.984375 C 77.191406 145.703125 76.507812 144.394531 75.882812 143.054688 C 70.695312 149.179688 64.195312 152.25 56.359375 152.25 C 50.78125 152.25 46.328125 150.640625 43.085938 147.445312 C 39.828125 144.25 38.171875 139.984375 38.171875 134.65625 C 38.171875 128.996094 40.167969 124.402344 44.207031 120.933594 C 48.261719 117.46875 53.640625 115.746094 60.476562 115.746094 C 62.722656 115.746094 65.054688 115.945312 67.511719 116.269531 C 69.96875 116.605469 72.503906 117.144531 75.148438 117.742188 L 75.148438 112.875 C 75.148438 107.8125 74.085938 104.28125 72.027344 102.222656 C 69.90625 100.152344 66.316406 99.152344 61.199219 99.152344 C 58.878906 99.152344 56.496094 99.425781 54.039062 100.027344 C 51.59375 100.609375 49.203125 101.359375 46.867188 102.285156 C 46.109375 102.625 45.335938 102.917969 44.546875 103.15625 C 44.199219 103.273438 43.847656 103.339844 43.484375 103.355469 C 42.550781 103.355469 42.085938 102.683594 42.085938 101.285156 L 42.085938 98.019531 C 42.085938 96.957031 42.210938 96.148438 42.550781 95.699219 C 43.058594 95.078125 43.683594 94.605469 44.421875 94.289062 C 46.726562 93.089844 49.523438 92.09375 52.777344 91.292969 C 56.023438 90.421875 59.476562 90.035156 63.132812 90.035156 C 71.03125 90.035156 76.804688 91.832031 80.523438 95.421875 C 84.179688 99.015625 86.039062 104.480469 86.039062 111.816406 L 86.039062 133.398438 Z M 59.214844 143.515625 C 61.398438 143.515625 63.65625 143.117188 66.050781 142.316406 C 68.449219 141.519531 70.570312 140.046875 72.351562 138.050781 C 73.4375 136.808594 74.191406 135.390625 74.609375 133.796875 C 75.011719 132.1875 75.285156 130.265625 75.285156 127.996094 L 75.285156 125.203125 C 73.269531 124.710938 71.230469 124.339844 69.171875 124.078125 C 67.101562 123.8125 65.023438 123.671875 62.933594 123.667969 C 58.480469 123.667969 55.238281 124.539062 53.039062 126.335938 C 50.84375 128.132812 49.796875 130.664062 49.796875 133.996094 C 49.796875 137.117188 50.582031 139.449219 52.242188 141.058594 C 53.839844 142.71875 56.160156 143.515625 59.214844 143.515625 Z M 112.523438 150.714844 C 111.324219 150.714844 110.527344 150.515625 110.003906 150.039062 C 109.46875 149.640625 109.003906 148.71875 108.605469 147.445312 L 93.011719 95.960938 C 92.707031 95.09375 92.507812 94.203125 92.414062 93.289062 C 92.414062 92.230469 92.9375 91.628906 93.996094 91.628906 L 100.507812 91.628906 C 101.757812 91.628906 102.628906 91.832031 103.09375 92.292969 C 103.628906 92.691406 104.027344 93.625 104.425781 94.886719 L 115.578125 138.988281 L 125.933594 94.886719 C 126.257812 93.5625 126.65625 92.691406 127.195312 92.292969 C 128.011719 91.792969 128.894531 91.570312 129.851562 91.628906 L 135.164062 91.628906 C 136.414062 91.628906 137.285156 91.832031 137.8125 92.292969 C 138.347656 92.691406 138.808594 93.625 139.082031 94.886719 L 149.5625 139.523438 L 161.039062 94.886719 C 161.257812 93.90625 161.703125 93.039062 162.375 92.292969 C 163.167969 91.789062 164.03125 91.570312 164.96875 91.628906 L 171.144531 91.628906 C 172.207031 91.628906 172.804688 92.167969 172.804688 93.289062 C 172.804688 93.625 172.730469 93.964844 172.679688 94.363281 C 172.570312 94.929688 172.414062 95.484375 172.207031 96.023438 L 156.199219 147.507812 C 155.8125 148.84375 155.339844 149.714844 154.816406 150.113281 C 154.042969 150.609375 153.199219 150.828125 152.28125 150.777344 L 146.582031 150.777344 C 145.320312 150.777344 144.460938 150.578125 143.921875 150.113281 C 143.386719 149.640625 142.925781 148.78125 142.664062 147.445312 L 132.371094 104.492188 L 122.140625 147.394531 C 121.816406 148.730469 121.417969 149.589844 120.894531 150.050781 C 120.359375 150.527344 119.421875 150.726562 118.238281 150.726562 L 112.523438 150.726562 Z M 197.828125 152.511719 C 194.371094 152.515625 190.960938 152.117188 187.601562 151.3125 C 184.28125 150.515625 181.699219 149.640625 179.964844 148.644531 C 178.90625 148.042969 178.179688 147.382812 177.90625 146.773438 C 177.652344 146.179688 177.523438 145.558594 177.519531 144.914062 L 177.519531 141.519531 C 177.519531 140.121094 178.042969 139.449219 179.042969 139.449219 C 179.453125 139.449219 179.851562 139.515625 180.238281 139.648438 C 180.636719 139.785156 181.238281 140.046875 181.898438 140.320312 C 184.144531 141.320312 186.613281 142.117188 189.195312 142.65625 C 191.855469 143.179688 194.4375 143.453125 197.09375 143.453125 C 201.285156 143.453125 204.527344 142.71875 206.785156 141.257812 C 207.328125 140.929688 207.820312 140.535156 208.257812 140.078125 C 208.695312 139.617188 209.066406 139.113281 209.371094 138.554688 C 209.671875 138 209.898438 137.410156 210.046875 136.796875 C 210.195312 136.179688 210.261719 135.554688 210.242188 134.921875 C 210.265625 134.054688 210.121094 133.21875 209.808594 132.414062 C 209.5 131.605469 209.042969 130.890625 208.445312 130.265625 C 207.261719 128.996094 205.003906 127.859375 201.746094 126.796875 L 192.117188 123.804688 C 187.277344 122.269531 183.683594 120 181.5 117.003906 C 180.429688 115.621094 179.613281 114.105469 179.042969 112.449219 C 178.476562 110.796875 178.1875 109.097656 178.179688 107.347656 C 178.179688 104.554688 178.78125 102.085938 179.964844 99.953125 C 181.164062 97.832031 182.757812 95.960938 184.753906 94.488281 C 186.75 92.964844 188.996094 91.832031 191.65625 91.03125 C 194.3125 90.234375 197.09375 89.894531 200.011719 89.894531 C 201.484375 89.894531 203.007812 89.957031 204.464844 90.160156 C 205.988281 90.359375 207.386719 90.632812 208.78125 90.90625 C 210.105469 91.230469 211.378906 91.554688 212.5625 91.96875 C 213.761719 92.367188 214.683594 92.765625 215.359375 93.164062 C 216.152344 93.5625 216.816406 94.117188 217.355469 94.824219 C 217.792969 95.492188 217.988281 96.222656 217.941406 97.019531 L 217.941406 100.152344 C 217.941406 101.546875 217.414062 102.285156 216.417969 102.285156 C 215.527344 102.183594 214.6875 101.917969 213.898438 101.484375 C 209.839844 99.6875 205.589844 98.820312 201.148438 98.890625 C 197.367188 98.890625 194.375 99.488281 192.316406 100.761719 C 190.257812 102.011719 189.195312 103.957031 189.195312 106.6875 C 189.195312 108.546875 189.859375 110.144531 191.191406 111.417969 C 192.515625 112.675781 194.972656 113.9375 198.492188 115.070312 L 207.921875 118.066406 C 212.699219 119.601562 216.15625 121.734375 218.214844 124.464844 C 220.273438 127.199219 221.257812 130.328125 221.257812 133.796875 C 221.257812 136.667969 220.671875 139.25 219.535156 141.519531 C 218.347656 143.824219 216.734375 145.777344 214.695312 147.382812 C 212.636719 149.042969 210.179688 150.253906 207.324219 151.113281 C 204.328125 152.046875 201.210938 152.511719 197.828125 152.511719 Z M 197.828125 152.511719 " fill-opacity="1" fill-rule="nonzero"/></svg>