<svg xmlns="http://www.w3.org/2000/svg" xmlns:xlink="http://www.w3.org/1999/xlink" width="500" zoomAndPan="magnify" viewBox="0 0 375 374.999991" height="500" preserveAspectRatio="xMidYMid meet" version="1.0"><defs><g/><clipPath id="e09836cfff"><path d="M 187.5 0 C 83.945312 0 0 83.945312 0 187.5 C 0 291.054688 83.945312 375 187.5 375 C 291.054688 375 375 291.054688 375 187.5 C 375 83.945312 291.054688 0 187.5 0 Z M 187.5 0 " clip-rule="nonzero"/></clipPath><clipPath id="d9e41ea46a"><path d="M 0 0 L 375 0 L 375 375 L 0 375 Z M 0 0 " clip-rule="nonzero"/></clipPath><clipPath id="a510be8a3c"><path d="M 187.5 0 C 83.945312 0 0 83.945312 0 187.5 C 0 291.054688 83.945312 375 187.5 375 C 291.054688 375 375 291.054688 375 187.5 C 375 83.945312 291.054688 0 187.5 0 Z M 187.5 0 " clip-rule="nonzero"/></clipPath><clipPath id="7962a39e27"><rect x="0" width="375" y="0" height="375"/></clipPath><clipPath id="95f3edaa85"><path d="M 29.910156 168 L 212 168 L 212 210 L 29.910156 210 Z M 29.910156 168 " clip-rule="nonzero"/></clipPath><clipPath id="9e37e9af18"><path d="M 192 164 L 229.410156 164 L 229.410156 202 L 192 202 Z M 192 164 " clip-rule="nonzero"/></clipPath><clipPath id="6027035815"><rect x="0" width="118" y="0" height="102"/></clipPath><clipPath id="08b14305ba"><rect x="0" width="291" y="0" height="89"/></clipPath></defs><g clip-path="url(#e09836cfff)"><g transform="matrix(1, 0, 0, 1, 0, 0)"><g clip-path="url(#7962a39e27)"><g clip-path="url(#d9e41ea46a)"><g clip-path="url(#a510be8a3c)"><rect x="-82.5" width="540" fill="#ffffff" height="539.999987" y="-82.499998" fill-opacity="1"/></g></g></g></g></g><g clip-path="url(#95f3edaa85)"><path fill="#ff9900" d="M 210.367188 184.871094 C 188.535156 201.050781 156.796875 209.648438 129.515625 209.648438 C 91.277344 209.648438 56.820312 195.460938 30.796875 171.882812 C 28.738281 170.011719 30.597656 167.480469 33.042969 168.953125 C 61.199219 185.332031 95.917969 195.261719 131.847656 195.261719 C 156.0625 195.261719 182.683594 190.199219 207.1875 179.804688 C 210.839844 178.148438 213.960938 182.203125 210.367188 184.871094 Z M 210.367188 184.871094 " fill-opacity="1" fill-rule="evenodd"/></g><g clip-path="url(#9e37e9af18)"><path fill="#ff9900" d="M 219.460938 174.480469 C 216.679688 170.898438 201.011719 172.757812 193.914062 173.617188 C 191.792969 173.894531 191.453125 172.023438 193.375 170.625 C 205.851562 161.828125 226.375 164.363281 228.757812 167.292969 C 231.152344 170.289062 228.09375 190.871094 216.40625 200.726562 C 214.621094 202.261719 212.898438 201.476562 213.699219 199.480469 C 216.34375 192.867188 222.257812 178.023438 219.460938 174.492188 Z M 219.460938 174.480469 " fill-opacity="1" fill-rule="evenodd"/></g><g transform="matrix(1, 0, 0, 1, 229, 67)"><g clip-path="url(#6027035815)"><g fill="#ff9900" fill-opacity="1"><g transform="translate(0.519032, 81.060265)"><g><path d="M 34.46875 1.109375 C 24.707031 1.109375 17.285156 -1.46875 12.203125 -6.625 C 7.128906 -11.789062 4.59375 -19.335938 4.59375 -29.265625 C 4.59375 -39.023438 7.242188 -46.597656 12.546875 -51.984375 C 17.847656 -57.378906 25.238281 -60.078125 34.71875 -60.078125 C 39.257812 -60.078125 43.515625 -59.484375 47.484375 -58.296875 C 48.390625 -58.003906 49 -57.617188 49.3125 -57.140625 C 49.625 -56.660156 49.78125 -55.878906 49.78125 -54.796875 L 49.78125 -47.65625 C 49.78125 -46.125 49.1875 -45.359375 48 -45.359375 C 47.707031 -45.359375 46.992188 -45.5 45.859375 -45.78125 C 43.085938 -46.40625 40.3125 -46.71875 37.53125 -46.71875 C 32.3125 -46.71875 28.367188 -45.34375 25.703125 -42.59375 C 23.035156 -39.84375 21.703125 -35.769531 21.703125 -30.375 L 21.703125 -28.5 C 21.703125 -23.226562 22.988281 -19.203125 25.5625 -16.421875 C 28.144531 -13.640625 31.960938 -12.25 37.015625 -12.25 C 40.535156 -12.25 43.828125 -12.617188 46.890625 -13.359375 C 47.796875 -13.585938 48.445312 -13.703125 48.84375 -13.703125 C 50.03125 -13.703125 50.625 -12.9375 50.625 -11.40625 L 50.625 -4.25 C 50.625 -3.175781 50.46875 -2.394531 50.15625 -1.90625 C 49.84375 -1.425781 49.234375 -1.046875 48.328125 -0.765625 C 44.472656 0.484375 39.851562 1.109375 34.46875 1.109375 Z M 34.46875 1.109375 "/></g></g></g><g fill="#ff9900" fill-opacity="1"><g transform="translate(53.52307, 81.060265)"><g><path d="M 8.84375 0 C 7.9375 0 7.285156 -0.195312 6.890625 -0.59375 C 6.492188 -0.988281 6.296875 -1.640625 6.296875 -2.546875 L 6.296875 -56.421875 C 6.296875 -57.378906 6.492188 -58.039062 6.890625 -58.40625 C 7.285156 -58.78125 7.9375 -58.96875 8.84375 -58.96875 L 29.359375 -58.96875 C 38.429688 -58.96875 45.460938 -56.414062 50.453125 -51.3125 C 55.453125 -46.207031 57.953125 -38.945312 57.953125 -29.53125 C 57.953125 -23.34375 56.84375 -18.019531 54.625 -13.5625 C 52.414062 -9.113281 49.253906 -5.738281 45.140625 -3.4375 C 41.023438 -1.144531 36.101562 0 30.375 0 Z M 22.71875 -12.59375 L 28.34375 -12.59375 C 36.90625 -12.59375 41.1875 -17.984375 41.1875 -28.765625 L 41.1875 -30.296875 C 41.1875 -41.015625 36.957031 -46.375 28.5 -46.375 L 22.71875 -46.375 Z M 22.71875 -12.59375 "/></g></g></g></g></g><g transform="matrix(1, 0, 0, 1, 42, 226)"><g clip-path="url(#08b14305ba)"><g fill="#ff9900" fill-opacity="1"><g transform="translate(1.372608, 71.631978)"><g><path d="M 29.640625 -10 C 33.367188 -10 36.175781 -11.296875 38.0625 -13.890625 C 39.945312 -16.492188 40.890625 -20.320312 40.890625 -25.375 C 40.890625 -30.519531 39.929688 -34.40625 38.015625 -37.03125 C 36.109375 -39.65625 33.316406 -40.96875 29.640625 -40.96875 C 25.960938 -40.96875 23.175781 -39.664062 21.28125 -37.0625 C 19.394531 -34.46875 18.453125 -30.644531 18.453125 -25.59375 C 18.453125 -20.5 19.394531 -16.625 21.28125 -13.96875 C 23.175781 -11.320312 25.960938 -10 29.640625 -10 Z M 29.640625 1.25 C 24.296875 1.25 19.6875 0.132812 15.8125 -2.09375 C 11.9375 -4.320312 8.992188 -7.445312 6.984375 -11.46875 C 4.972656 -15.488281 3.96875 -20.195312 3.96875 -25.59375 C 3.96875 -31.132812 5.019531 -35.898438 7.125 -39.890625 C 9.238281 -43.890625 12.21875 -46.941406 16.0625 -49.046875 C 19.914062 -51.160156 24.441406 -52.21875 29.640625 -52.21875 C 34.984375 -52.21875 39.59375 -51.113281 43.46875 -48.90625 C 47.34375 -46.695312 50.296875 -43.582031 52.328125 -39.5625 C 54.359375 -35.539062 55.375 -30.8125 55.375 -25.375 C 55.375 -19.832031 54.320312 -15.050781 52.21875 -11.03125 C 50.113281 -7.007812 47.125 -3.957031 43.25 -1.875 C 39.375 0.207031 34.835938 1.25 29.640625 1.25 Z M 29.640625 1.25 "/></g></g></g><g fill="#ff9900" fill-opacity="1"><g transform="translate(60.72396, 71.631978)"><g><path d="M 22.21875 0.8125 C 15.882812 0.8125 11.0625 -0.84375 7.75 -4.15625 C 4.445312 -7.46875 2.796875 -12.3125 2.796875 -18.6875 C 2.796875 -25.007812 4.546875 -29.921875 8.046875 -33.421875 C 11.554688 -36.929688 16.472656 -38.6875 22.796875 -38.6875 C 26.085938 -38.6875 29.03125 -38.171875 31.625 -37.140625 C 32.40625 -36.847656 32.929688 -36.503906 33.203125 -36.109375 C 33.472656 -35.710938 33.609375 -35.050781 33.609375 -34.125 L 33.609375 -29.859375 C 33.609375 -28.535156 33.09375 -27.875 32.0625 -27.875 C 31.820312 -27.875 31.210938 -27.992188 30.234375 -28.234375 C 28.660156 -28.628906 27.113281 -28.828125 25.59375 -28.828125 C 22.550781 -28.828125 20.316406 -28.066406 18.890625 -26.546875 C 17.472656 -25.023438 16.765625 -22.648438 16.765625 -19.421875 L 16.765625 -18.390625 C 16.765625 -15.203125 17.472656 -12.847656 18.890625 -11.328125 C 20.316406 -9.804688 22.476562 -9.046875 25.375 -9.046875 C 26.113281 -9.046875 26.992188 -9.101562 28.015625 -9.21875 C 29.046875 -9.34375 29.832031 -9.503906 30.375 -9.703125 C 31.351562 -9.953125 31.96875 -10.078125 32.21875 -10.078125 C 33.25 -10.078125 33.765625 -9.414062 33.765625 -8.09375 L 33.765625 -3.828125 C 33.765625 -2.890625 33.628906 -2.222656 33.359375 -1.828125 C 33.085938 -1.441406 32.554688 -1.101562 31.765625 -0.8125 C 28.828125 0.269531 25.644531 0.8125 22.21875 0.8125 Z M 22.21875 0.8125 "/></g></g></g><g fill="#ff9900" fill-opacity="1"><g transform="translate(96.025829, 71.631978)"><g><path d="M 22.65625 1.109375 C 9.414062 1.109375 2.796875 -5.5625 2.796875 -18.90625 C 2.796875 -25.175781 4.484375 -30.085938 7.859375 -33.640625 C 11.242188 -37.203125 15.953125 -38.984375 21.984375 -38.984375 C 27.085938 -38.984375 31.035156 -37.617188 33.828125 -34.890625 C 36.628906 -32.171875 38.03125 -28.285156 38.03125 -23.234375 C 38.03125 -21.472656 37.878906 -19.613281 37.578125 -17.65625 C 37.429688 -16.820312 37.195312 -16.242188 36.875 -15.921875 C 36.5625 -15.597656 36.015625 -15.4375 35.234375 -15.4375 L 15.375 -15.4375 C 15.613281 -12.988281 16.554688 -11.210938 18.203125 -10.109375 C 19.847656 -9.003906 22.3125 -8.453125 25.59375 -8.453125 C 28.238281 -8.453125 30.910156 -8.847656 33.609375 -9.640625 C 34.390625 -9.878906 35.003906 -10 35.453125 -10 C 36.523438 -10 37.0625 -9.335938 37.0625 -8.015625 L 37.0625 -4.046875 C 37.0625 -3.160156 36.9375 -2.519531 36.6875 -2.125 C 36.445312 -1.738281 35.910156 -1.375 35.078125 -1.03125 C 33.460938 -0.394531 31.488281 0.117188 29.15625 0.515625 C 26.832031 0.910156 24.664062 1.109375 22.65625 1.109375 Z M 26.40625 -23.390625 L 26.40625 -24.265625 C 26.40625 -27.941406 24.8125 -29.78125 21.625 -29.78125 C 19.851562 -29.78125 18.425781 -29.226562 17.34375 -28.125 C 16.269531 -27.03125 15.613281 -25.453125 15.375 -23.390625 Z M 26.40625 -23.390625 "/></g></g></g><g fill="#ff9900" fill-opacity="1"><g transform="translate(136.770125, 71.631978)"><g><path d="M 14.484375 1.328125 C 10.804688 1.328125 7.863281 0.257812 5.65625 -1.875 C 3.457031 -4.007812 2.359375 -6.816406 2.359375 -10.296875 C 2.359375 -12.796875 3.019531 -14.988281 4.34375 -16.875 C 5.664062 -18.757812 7.476562 -20.203125 9.78125 -21.203125 C 12.082031 -22.210938 14.707031 -22.71875 17.65625 -22.71875 C 20.050781 -22.71875 22.253906 -22.5 24.265625 -22.0625 L 24.265625 -23.96875 C 24.265625 -25.976562 23.796875 -27.390625 22.859375 -28.203125 C 21.929688 -29.015625 20.296875 -29.421875 17.953125 -29.421875 C 16.671875 -29.421875 15.179688 -29.285156 13.484375 -29.015625 C 11.796875 -28.742188 10.289062 -28.410156 8.96875 -28.015625 C 7.894531 -27.671875 7.132812 -27.5 6.6875 -27.5 C 5.8125 -27.5 5.375 -28.140625 5.375 -29.421875 L 5.375 -33.53125 C 5.375 -34.414062 5.492188 -35.050781 5.734375 -35.4375 C 5.984375 -35.832031 6.523438 -36.203125 7.359375 -36.546875 C 11.378906 -38.171875 16.0625 -38.984375 21.40625 -38.984375 C 26.800781 -38.984375 30.757812 -37.890625 33.28125 -35.703125 C 35.800781 -33.523438 37.0625 -30.082031 37.0625 -25.375 L 37.0625 -2.203125 C 37.0625 -1.421875 36.898438 -0.859375 36.578125 -0.515625 C 36.265625 -0.171875 35.691406 0 34.859375 0 L 28.09375 0 C 27.40625 0 26.878906 -0.132812 26.515625 -0.40625 C 26.148438 -0.675781 25.84375 -1.175781 25.59375 -1.90625 L 25.234375 -2.9375 C 23.753906 -1.5625 22.082031 -0.507812 20.21875 0.21875 C 18.363281 0.957031 16.453125 1.328125 14.484375 1.328125 Z M 18.96875 -7.421875 C 19.90625 -7.421875 20.863281 -7.628906 21.84375 -8.046875 C 22.820312 -8.460938 23.628906 -8.992188 24.265625 -9.640625 L 24.265625 -15.078125 C 22.597656 -15.273438 21.25 -15.375 20.21875 -15.375 C 16.9375 -15.375 15.296875 -14 15.296875 -11.25 C 15.296875 -10.070312 15.625 -9.140625 16.28125 -8.453125 C 16.945312 -7.765625 17.84375 -7.421875 18.96875 -7.421875 Z M 18.96875 -7.421875 "/></g></g></g><g fill="#ff9900" fill-opacity="1"><g transform="translate(178.396986, 71.631978)"><g><path d="M 6.90625 0 C 6.125 0 5.5625 -0.171875 5.21875 -0.515625 C 4.875 -0.859375 4.703125 -1.421875 4.703125 -2.203125 L 4.703125 -35.671875 C 4.703125 -36.503906 4.875 -37.078125 5.21875 -37.390625 C 5.5625 -37.710938 6.125 -37.875 6.90625 -37.875 L 14.046875 -37.875 C 14.734375 -37.875 15.257812 -37.738281 15.625 -37.46875 C 16 -37.195312 16.304688 -36.695312 16.546875 -35.96875 L 17.140625 -34.046875 C 19.441406 -35.765625 21.695312 -37.015625 23.90625 -37.796875 C 26.113281 -38.585938 28.441406 -38.984375 30.890625 -38.984375 C 34.421875 -38.984375 37.117188 -38.023438 38.984375 -36.109375 C 40.847656 -34.203125 41.78125 -31.484375 41.78125 -27.953125 L 41.78125 -2.203125 C 41.78125 -1.421875 41.617188 -0.859375 41.296875 -0.515625 C 40.972656 -0.171875 40.394531 0 39.5625 0 L 30.15625 0 C 29.375 0 28.8125 -0.171875 28.46875 -0.515625 C 28.125 -0.859375 27.953125 -1.421875 27.953125 -2.203125 L 27.953125 -24.859375 C 27.953125 -26.328125 27.664062 -27.40625 27.09375 -28.09375 C 26.53125 -28.78125 25.585938 -29.125 24.265625 -29.125 C 22.453125 -29.125 20.539062 -28.507812 18.53125 -27.28125 L 18.53125 -2.203125 C 18.53125 -1.421875 18.367188 -0.859375 18.046875 -0.515625 C 17.734375 -0.171875 17.160156 0 16.328125 0 Z M 6.90625 0 "/></g></g></g><g fill="#ff9900" fill-opacity="1"><g transform="translate(224.730739, 71.631978)"><g><path d="M 6.90625 0 C 6.125 0 5.5625 -0.171875 5.21875 -0.515625 C 4.875 -0.859375 4.703125 -1.421875 4.703125 -2.203125 L 4.703125 -35.671875 C 4.703125 -36.503906 4.875 -37.078125 5.21875 -37.390625 C 5.5625 -37.710938 6.125 -37.875 6.90625 -37.875 L 16.328125 -37.875 C 17.160156 -37.875 17.734375 -37.710938 18.046875 -37.390625 C 18.367188 -37.078125 18.53125 -36.503906 18.53125 -35.671875 L 18.53125 -2.203125 C 18.53125 -1.421875 18.367188 -0.859375 18.046875 -0.515625 C 17.734375 -0.171875 17.160156 0 16.328125 0 Z M 11.625 -42.65625 C 9.269531 -42.65625 7.390625 -43.289062 5.984375 -44.5625 C 4.585938 -45.84375 3.890625 -47.535156 3.890625 -49.640625 C 3.890625 -51.753906 4.585938 -53.445312 5.984375 -54.71875 C 7.390625 -55.988281 9.269531 -56.625 11.625 -56.625 C 13.976562 -56.625 15.851562 -55.988281 17.25 -54.71875 C 18.644531 -53.445312 19.34375 -51.753906 19.34375 -49.640625 C 19.34375 -47.535156 18.644531 -45.84375 17.25 -44.5625 C 15.851562 -43.289062 13.976562 -42.65625 11.625 -42.65625 Z M 11.625 -42.65625 "/></g></g></g><g fill="#ff9900" fill-opacity="1"><g transform="translate(247.971187, 71.631978)"><g><path d="M 14.484375 1.328125 C 10.804688 1.328125 7.863281 0.257812 5.65625 -1.875 C 3.457031 -4.007812 2.359375 -6.816406 2.359375 -10.296875 C 2.359375 -12.796875 3.019531 -14.988281 4.34375 -16.875 C 5.664062 -18.757812 7.476562 -20.203125 9.78125 -21.203125 C 12.082031 -22.210938 14.707031 -22.71875 17.65625 -22.71875 C 20.050781 -22.71875 22.253906 -22.5 24.265625 -22.0625 L 24.265625 -23.96875 C 24.265625 -25.976562 23.796875 -27.390625 22.859375 -28.203125 C 21.929688 -29.015625 20.296875 -29.421875 17.953125 -29.421875 C 16.671875 -29.421875 15.179688 -29.285156 13.484375 -29.015625 C 11.796875 -28.742188 10.289062 -28.410156 8.96875 -28.015625 C 7.894531 -27.671875 7.132812 -27.5 6.6875 -27.5 C 5.8125 -27.5 5.375 -28.140625 5.375 -29.421875 L 5.375 -33.53125 C 5.375 -34.414062 5.492188 -35.050781 5.734375 -35.4375 C 5.984375 -35.832031 6.523438 -36.203125 7.359375 -36.546875 C 11.378906 -38.171875 16.0625 -38.984375 21.40625 -38.984375 C 26.800781 -38.984375 30.757812 -37.890625 33.28125 -35.703125 C 35.800781 -33.523438 37.0625 -30.082031 37.0625 -25.375 L 37.0625 -2.203125 C 37.0625 -1.421875 36.898438 -0.859375 36.578125 -0.515625 C 36.265625 -0.171875 35.691406 0 34.859375 0 L 28.09375 0 C 27.40625 0 26.878906 -0.132812 26.515625 -0.40625 C 26.148438 -0.675781 25.84375 -1.175781 25.59375 -1.90625 L 25.234375 -2.9375 C 23.753906 -1.5625 22.082031 -0.507812 20.21875 0.21875 C 18.363281 0.957031 16.453125 1.328125 14.484375 1.328125 Z M 18.96875 -7.421875 C 19.90625 -7.421875 20.863281 -7.628906 21.84375 -8.046875 C 22.820312 -8.460938 23.628906 -8.992188 24.265625 -9.640625 L 24.265625 -15.078125 C 22.597656 -15.273438 21.25 -15.375 20.21875 -15.375 C 16.9375 -15.375 15.296875 -14 15.296875 -11.25 C 15.296875 -10.070312 15.625 -9.140625 16.28125 -8.453125 C 16.945312 -7.765625 17.84375 -7.421875 18.96875 -7.421875 Z M 18.96875 -7.421875 "/></g></g></g></g></g><path fill="#000000" d="M 86.144531 133.320312 C 86.144531 135.777344 86.394531 137.773438 86.867188 139.242188 C 87.390625 140.703125 88.066406 142.296875 88.988281 144.03125 C 89.289062 144.5 89.441406 145.007812 89.449219 145.566406 C 89.449219 146.226562 89.050781 146.898438 88.203125 147.558594 L 84.011719 150.351562 C 83.5 150.722656 82.925781 150.921875 82.292969 150.953125 C 81.621094 150.953125 80.957031 150.628906 80.296875 150.027344 C 79.398438 149.0625 78.601562 148.019531 77.902344 146.898438 C 77.164062 145.621094 76.484375 144.308594 75.859375 142.972656 C 70.671875 149.09375 64.175781 152.160156 56.34375 152.160156 C 50.773438 152.160156 46.320312 150.550781 43.078125 147.359375 C 39.824219 144.167969 38.164062 139.902344 38.164062 134.578125 C 38.164062 128.917969 40.160156 124.332031 44.199219 120.863281 C 48.253906 117.398438 53.628906 115.675781 60.460938 115.675781 C 62.703125 115.675781 65.035156 115.875 67.492188 116.199219 C 69.949219 116.539062 72.480469 117.074219 75.125 117.671875 L 75.125 112.808594 C 75.125 107.746094 74.0625 104.21875 72.007812 102.160156 C 69.886719 100.089844 66.296875 99.09375 61.183594 99.09375 C 58.863281 99.09375 56.484375 99.367188 54.027344 99.96875 C 51.582031 100.546875 49.191406 101.300781 46.855469 102.222656 C 46.101562 102.566406 45.328125 102.855469 44.539062 103.097656 C 44.191406 103.210938 43.839844 103.277344 43.476562 103.296875 C 42.542969 103.296875 42.082031 102.621094 42.082031 101.226562 L 42.082031 97.960938 C 42.082031 96.898438 42.207031 96.089844 42.542969 95.640625 C 43.050781 95.019531 43.675781 94.550781 44.414062 94.230469 C 46.71875 93.035156 49.511719 92.035156 52.765625 91.238281 C 56.007812 90.367188 59.460938 89.980469 63.117188 89.980469 C 71.007812 89.980469 76.78125 91.773438 80.496094 95.367188 C 84.152344 98.957031 86.007812 104.417969 86.007812 111.75 L 86.007812 133.320312 Z M 59.199219 143.433594 C 61.382812 143.433594 63.640625 143.035156 66.035156 142.234375 C 68.425781 141.4375 70.546875 139.964844 72.332031 137.972656 C 73.414062 136.730469 74.167969 135.3125 74.585938 133.71875 C 74.984375 132.109375 75.261719 130.191406 75.261719 127.921875 L 75.261719 125.128906 C 73.246094 124.640625 71.207031 124.265625 69.152344 124.007812 C 67.082031 123.738281 65.003906 123.601562 62.917969 123.59375 C 58.464844 123.59375 55.222656 124.46875 53.027344 126.261719 C 50.835938 128.058594 49.785156 130.589844 49.785156 133.917969 C 49.785156 137.035156 50.574219 139.367188 52.230469 140.976562 C 53.828125 142.636719 56.144531 143.433594 59.199219 143.433594 Z M 112.480469 150.628906 C 111.28125 150.628906 110.484375 150.429688 109.960938 149.953125 C 109.425781 149.554688 108.964844 148.632812 108.5625 147.359375 L 92.976562 95.902344 C 92.675781 95.035156 92.476562 94.148438 92.378906 93.234375 C 92.378906 92.175781 92.902344 91.574219 93.964844 91.574219 L 100.472656 91.574219 C 101.71875 91.574219 102.59375 91.773438 103.054688 92.234375 C 103.589844 92.636719 103.988281 93.570312 104.386719 94.828125 L 115.535156 138.90625 L 125.882812 94.828125 C 126.207031 93.507812 126.605469 92.636719 127.144531 92.234375 C 127.957031 91.738281 128.84375 91.515625 129.796875 91.574219 L 135.109375 91.574219 C 136.355469 91.574219 137.230469 91.773438 137.753906 92.234375 C 138.289062 92.636719 138.75 93.570312 139.027344 94.828125 L 149.5 139.441406 L 160.96875 94.828125 C 161.1875 93.847656 161.632812 92.984375 162.304688 92.234375 C 163.097656 91.734375 163.960938 91.515625 164.898438 91.574219 L 171.070312 91.574219 C 172.128906 91.574219 172.730469 92.113281 172.730469 93.234375 C 172.730469 93.570312 172.652344 93.90625 172.605469 94.304688 C 172.496094 94.875 172.339844 95.425781 172.128906 95.964844 L 156.132812 147.421875 C 155.746094 148.757812 155.273438 149.628906 154.75 150.027344 C 153.976562 150.523438 153.132812 150.742188 152.21875 150.691406 L 146.519531 150.691406 C 145.261719 150.691406 144.398438 150.488281 143.863281 150.027344 C 143.328125 149.554688 142.867188 148.695312 142.605469 147.359375 L 132.316406 104.429688 L 122.09375 147.3125 C 121.769531 148.644531 121.371094 149.503906 120.847656 149.964844 C 120.308594 150.441406 119.375 150.640625 118.191406 150.640625 L 112.480469 150.640625 Z M 197.742188 152.421875 C 194.285156 152.425781 190.878906 152.027344 187.515625 151.226562 C 184.199219 150.429688 181.617188 149.554688 179.886719 148.558594 C 178.824219 147.960938 178.101562 147.296875 177.828125 146.6875 C 177.574219 146.09375 177.445312 145.476562 177.441406 144.828125 L 177.441406 141.4375 C 177.441406 140.042969 177.964844 139.367188 178.964844 139.367188 C 179.371094 139.367188 179.773438 139.433594 180.160156 139.566406 C 180.558594 139.703125 181.15625 139.964844 181.816406 140.242188 C 184.0625 141.238281 186.53125 142.035156 189.113281 142.574219 C 191.769531 143.097656 194.347656 143.371094 197.003906 143.371094 C 201.195312 143.371094 204.4375 142.636719 206.695312 141.175781 C 207.234375 140.847656 207.726562 140.453125 208.164062 139.996094 C 208.601562 139.539062 208.972656 139.03125 209.273438 138.476562 C 209.578125 137.917969 209.804688 137.332031 209.953125 136.714844 C 210.101562 136.101562 210.164062 135.476562 210.148438 134.84375 C 210.171875 133.976562 210.027344 133.144531 209.714844 132.335938 C 209.402344 131.53125 208.949219 130.816406 208.351562 130.191406 C 207.167969 128.917969 204.910156 127.785156 201.65625 126.726562 L 192.03125 123.730469 C 187.191406 122.199219 183.601562 119.929688 181.417969 116.9375 C 180.351562 115.554688 179.535156 114.035156 178.964844 112.382812 C 178.398438 110.734375 178.109375 109.03125 178.101562 107.285156 C 178.101562 104.492188 178.699219 102.023438 179.886719 99.890625 C 181.082031 97.773438 182.679688 95.902344 184.671875 94.429688 C 186.667969 92.910156 188.914062 91.773438 191.570312 90.976562 C 194.226562 90.179688 197.003906 89.84375 199.921875 89.84375 C 201.394531 89.84375 202.914062 89.90625 204.375 90.105469 C 205.894531 90.304688 207.292969 90.578125 208.6875 90.851562 C 210.011719 91.175781 211.28125 91.5 212.464844 91.910156 C 213.664062 92.3125 214.585938 92.710938 215.257812 93.109375 C 216.050781 93.507812 216.71875 94.058594 217.253906 94.765625 C 217.691406 95.433594 217.886719 96.164062 217.839844 96.960938 L 217.839844 100.089844 C 217.839844 101.488281 217.316406 102.222656 216.320312 102.222656 C 215.429688 102.121094 214.589844 101.855469 213.800781 101.425781 C 209.742188 99.628906 205.496094 98.761719 201.058594 98.832031 C 197.28125 98.832031 194.285156 99.429688 192.230469 100.703125 C 190.171875 101.949219 189.113281 103.894531 189.113281 106.625 C 189.113281 108.484375 189.773438 110.078125 191.109375 111.351562 C 192.429688 112.609375 194.886719 113.871094 198.402344 115.003906 L 207.828125 117.996094 C 212.605469 119.53125 216.058594 121.664062 218.113281 124.394531 C 220.171875 127.125 221.15625 130.253906 221.15625 133.71875 C 221.15625 136.585938 220.570312 139.167969 219.4375 141.4375 C 218.25 143.742188 216.636719 145.695312 214.597656 147.296875 C 212.542969 148.957031 210.085938 150.164062 207.230469 151.027344 C 204.238281 151.960938 201.121094 152.421875 197.742188 152.421875 Z M 197.742188 152.421875 " fill-opacity="1" fill-rule="nonzero"/></svg>