<svg xmlns="http://www.w3.org/2000/svg" xmlns:xlink="http://www.w3.org/1999/xlink" width="1280" zoomAndPan="magnify" viewBox="0 0 960 239.999995" height="320" preserveAspectRatio="xMidYMid meet" version="1.0"><defs><g/><clipPath id="f6047c97b4"><path d="M 0.371094 0.648438 L 960 0.648438 L 960 239.351562 L 0.371094 239.351562 Z M 0.371094 0.648438 " clip-rule="nonzero"/></clipPath><clipPath id="ff049b530d"><path d="M 0.371094 0.648438 L 960 0.648438 L 960 239.351562 L 0.371094 239.351562 Z M 0.371094 0.648438 " clip-rule="nonzero"/></clipPath><clipPath id="2895c92825"><rect x="0" width="960" y="0" height="240"/></clipPath><clipPath id="0fa48c409b"><path d="M 428.5 52 L 523 52 L 523 74.988281 L 428.5 74.988281 Z M 428.5 52 " clip-rule="nonzero"/></clipPath><clipPath id="de3ec2c17e"><path d="M 512 50.238281 L 531.25 50.238281 L 531.25 70 L 512 70 Z M 512 50.238281 " clip-rule="nonzero"/></clipPath><clipPath id="970355535b"><rect x="0" width="617" y="0" height="89"/></clipPath><clipPath id="a1e25774b9"><path d="M 102 7 L 121.960938 7 L 121.960938 27 L 102 27 Z M 102 7 " clip-rule="nonzero"/></clipPath><clipPath id="a581fc886e"><rect x="0" width="122" y="0" height="33"/></clipPath><clipPath id="52e3fb2082"><path d="M 368.601562 196.621094 L 592.144531 196.621094 L 592.144531 228.570312 L 368.601562 228.570312 Z M 368.601562 196.621094 " clip-rule="nonzero"/></clipPath><clipPath id="2f19800ac0"><path d="M 0.601562 0.621094 L 224.144531 0.621094 L 224.144531 32.570312 L 0.601562 32.570312 Z M 0.601562 0.621094 " clip-rule="nonzero"/></clipPath><clipPath id="6795708e5e"><rect x="0" width="225" y="0" height="33"/></clipPath></defs><g clip-path="url(#f6047c97b4)"><g transform="matrix(1, 0, 0, 1, 0, 0)"><g clip-path="url(#2895c92825)"><g clip-path="url(#ff049b530d)"><path fill="#ffffff" d="M 0.371094 0.648438 L 960.773438 0.648438 L 960.773438 239.351562 L 0.371094 239.351562 Z M 0.371094 0.648438 " fill-opacity="1" fill-rule="nonzero"/></g></g></g></g><path fill="#252f3e" d="M 457.535156 34.632812 C 457.535156 35.902344 457.664062 36.933594 457.90625 37.691406 C 458.175781 38.445312 458.523438 39.269531 459 40.164062 C 459.15625 40.40625 459.234375 40.667969 459.238281 40.957031 C 459.238281 41.296875 459.035156 41.644531 458.597656 41.984375 L 456.433594 43.425781 C 456.167969 43.621094 455.871094 43.722656 455.542969 43.738281 C 455.195312 43.738281 454.855469 43.570312 454.515625 43.261719 C 454.050781 42.761719 453.640625 42.222656 453.277344 41.644531 C 452.898438 40.984375 452.546875 40.308594 452.222656 39.617188 C 449.546875 42.777344 446.191406 44.359375 442.148438 44.359375 C 439.269531 44.359375 436.972656 43.53125 435.300781 41.882812 C 433.621094 40.234375 432.761719 38.035156 432.761719 35.285156 C 432.761719 32.363281 433.792969 29.992188 435.878906 28.203125 C 437.972656 26.414062 440.746094 25.527344 444.273438 25.527344 C 445.433594 25.527344 446.636719 25.628906 447.902344 25.796875 C 449.171875 25.96875 450.476562 26.246094 451.84375 26.554688 L 451.84375 24.046875 C 451.84375 21.429688 451.296875 19.609375 450.234375 18.546875 C 449.140625 17.480469 447.285156 16.964844 444.644531 16.964844 C 443.449219 16.964844 442.21875 17.105469 440.953125 17.414062 C 439.691406 17.714844 438.457031 18.101562 437.25 18.578125 C 436.859375 18.757812 436.460938 18.90625 436.050781 19.03125 C 435.875 19.089844 435.691406 19.125 435.503906 19.132812 C 435.023438 19.132812 434.785156 18.785156 434.785156 18.066406 L 434.785156 16.378906 C 434.785156 15.832031 434.847656 15.414062 435.023438 15.179688 C 435.285156 14.859375 435.609375 14.617188 435.988281 14.453125 C 437.179688 13.835938 438.621094 13.320312 440.300781 12.910156 C 441.976562 12.457031 443.757812 12.257812 445.644531 12.257812 C 449.71875 12.257812 452.699219 13.183594 454.617188 15.039062 C 456.503906 16.894531 457.460938 19.710938 457.460938 23.496094 L 457.460938 34.632812 Z M 443.621094 39.855469 C 444.75 39.855469 445.914062 39.648438 447.152344 39.238281 C 448.386719 38.824219 449.480469 38.066406 450.402344 37.035156 C 450.960938 36.394531 451.347656 35.664062 451.566406 34.839844 C 451.773438 34.011719 451.914062 33.019531 451.914062 31.847656 L 451.914062 30.40625 C 450.875 30.152344 449.820312 29.960938 448.757812 29.824219 C 447.691406 29.6875 446.617188 29.617188 445.542969 29.613281 C 443.242188 29.613281 441.570312 30.0625 440.4375 30.992188 C 439.304688 31.917969 438.761719 33.226562 438.761719 34.945312 C 438.761719 36.550781 439.167969 37.757812 440.023438 38.585938 C 440.847656 39.441406 442.046875 39.855469 443.621094 39.855469 Z M 471.128906 43.570312 C 470.511719 43.570312 470.097656 43.464844 469.828125 43.222656 C 469.550781 43.015625 469.3125 42.539062 469.109375 41.882812 L 461.0625 15.316406 C 460.902344 14.867188 460.800781 14.410156 460.753906 13.9375 C 460.753906 13.390625 461.023438 13.082031 461.570312 13.082031 L 464.929688 13.082031 C 465.574219 13.082031 466.023438 13.183594 466.261719 13.421875 C 466.539062 13.628906 466.746094 14.113281 466.953125 14.761719 L 472.707031 37.519531 L 478.050781 14.761719 C 478.214844 14.082031 478.421875 13.628906 478.699219 13.421875 C 479.121094 13.164062 479.578125 13.050781 480.070312 13.082031 L 482.8125 13.082031 C 483.457031 13.082031 483.90625 13.183594 484.175781 13.421875 C 484.453125 13.628906 484.691406 14.113281 484.835938 14.761719 L 490.242188 37.796875 L 496.164062 14.761719 C 496.277344 14.253906 496.503906 13.808594 496.851562 13.421875 C 497.261719 13.164062 497.707031 13.050781 498.191406 13.082031 L 501.378906 13.082031 C 501.925781 13.082031 502.234375 13.359375 502.234375 13.9375 C 502.234375 14.113281 502.195312 14.285156 502.167969 14.492188 C 502.113281 14.785156 502.03125 15.070312 501.925781 15.347656 L 493.664062 41.914062 C 493.464844 42.605469 493.222656 43.054688 492.953125 43.261719 C 492.554688 43.515625 492.117188 43.628906 491.644531 43.601562 L 488.703125 43.601562 C 488.050781 43.601562 487.609375 43.5 487.332031 43.261719 C 487.054688 43.015625 486.816406 42.570312 486.679688 41.882812 L 481.371094 19.71875 L 476.09375 41.855469 C 475.925781 42.546875 475.71875 42.988281 475.449219 43.226562 C 475.171875 43.472656 474.6875 43.574219 474.078125 43.574219 L 471.128906 43.574219 Z M 515.148438 44.496094 C 513.363281 44.5 511.605469 44.292969 509.867188 43.878906 C 508.15625 43.464844 506.824219 43.015625 505.929688 42.5 C 505.382812 42.191406 505.007812 41.851562 504.867188 41.535156 C 504.734375 41.230469 504.667969 40.910156 504.667969 40.574219 L 504.667969 38.824219 C 504.667969 38.105469 504.9375 37.757812 505.453125 37.757812 C 505.664062 37.757812 505.871094 37.792969 506.070312 37.859375 C 506.277344 37.929688 506.585938 38.066406 506.925781 38.207031 C 508.085938 38.722656 509.359375 39.132812 510.691406 39.410156 C 512.0625 39.679688 513.394531 39.824219 514.765625 39.824219 C 516.929688 39.824219 518.605469 39.441406 519.769531 38.691406 C 520.339844 38.34375 520.78125 37.878906 521.101562 37.296875 C 521.421875 36.710938 521.570312 36.085938 521.550781 35.417969 C 521.578125 34.492188 521.265625 33.691406 520.625 33.019531 C 520.015625 32.363281 518.847656 31.777344 517.167969 31.230469 L 512.199219 29.683594 C 509.703125 28.890625 507.847656 27.722656 506.722656 26.175781 C 505.585938 24.707031 505.015625 23.046875 505.007812 21.195312 C 505.007812 19.75 505.316406 18.476562 505.929688 17.375 C 506.546875 16.28125 507.371094 15.316406 508.402344 14.554688 C 509.429688 13.769531 510.589844 13.183594 511.960938 12.773438 C 513.332031 12.363281 514.765625 12.1875 516.273438 12.1875 C 517.035156 12.1875 517.820312 12.21875 518.570312 12.324219 C 519.355469 12.425781 520.078125 12.566406 520.800781 12.710938 C 521.480469 12.875 522.136719 13.042969 522.75 13.257812 C 523.367188 13.460938 523.84375 13.667969 524.191406 13.875 C 524.601562 14.082031 524.945312 14.367188 525.222656 14.730469 C 525.449219 15.074219 525.546875 15.453125 525.523438 15.863281 L 525.523438 17.480469 C 525.523438 18.199219 525.253906 18.578125 524.738281 18.578125 C 524.277344 18.527344 523.84375 18.390625 523.4375 18.167969 C 521.34375 17.238281 519.152344 16.792969 516.859375 16.828125 C 514.910156 16.828125 513.363281 17.136719 512.300781 17.792969 C 511.238281 18.4375 510.691406 19.441406 510.691406 20.851562 C 510.691406 21.8125 511.035156 22.636719 511.722656 23.292969 C 512.40625 23.941406 513.671875 24.59375 515.488281 25.179688 L 520.355469 26.722656 C 522.820312 27.515625 524.601562 28.617188 525.664062 30.023438 C 526.726562 31.433594 527.234375 33.050781 527.234375 34.839844 C 527.234375 36.320312 526.933594 37.652344 526.347656 38.824219 C 525.734375 40.015625 524.902344 41.023438 523.851562 41.851562 C 522.789062 42.707031 521.519531 43.332031 520.046875 43.773438 C 518.5 44.257812 516.890625 44.496094 515.148438 44.496094 Z M 515.148438 44.496094 " fill-opacity="1" fill-rule="nonzero"/><g clip-path="url(#0fa48c409b)"><path fill="#ff9900" d="M 521.617188 61.226562 C 510.351562 69.574219 493.976562 74.011719 479.898438 74.011719 C 460.167969 74.011719 442.386719 66.691406 428.957031 54.523438 C 427.898438 53.558594 428.855469 52.253906 430.117188 53.011719 C 444.644531 61.464844 462.5625 66.589844 481.101562 66.589844 C 493.59375 66.589844 507.332031 63.976562 519.976562 58.613281 C 521.859375 57.757812 523.46875 59.847656 521.617188 61.226562 Z M 521.617188 61.226562 " fill-opacity="1" fill-rule="evenodd"/></g><g clip-path="url(#de3ec2c17e)"><path fill="#ff9900" d="M 526.308594 55.863281 C 524.875 54.015625 516.789062 54.976562 513.125 55.417969 C 512.03125 55.5625 511.859375 54.59375 512.847656 53.875 C 519.285156 49.335938 529.875 50.644531 531.105469 52.15625 C 532.339844 53.699219 530.765625 64.324219 524.730469 69.40625 C 523.8125 70.199219 522.921875 69.792969 523.335938 68.765625 C 524.699219 65.351562 527.75 57.691406 526.308594 55.871094 Z M 526.308594 55.863281 " fill-opacity="1" fill-rule="evenodd"/></g><g transform="matrix(1, 0, 0, 1, 175, 76)"><g clip-path="url(#970355535b)"><g fill="#252f3e" fill-opacity="1"><g transform="translate(2.173957, 70.899682)"><g><path d="M 28.5 0.921875 C 20.425781 0.921875 14.289062 -1.210938 10.09375 -5.484375 C 5.894531 -9.753906 3.796875 -15.992188 3.796875 -24.203125 C 3.796875 -32.273438 5.988281 -38.539062 10.375 -43 C 14.757812 -47.457031 20.875 -49.6875 28.71875 -49.6875 C 32.46875 -49.6875 35.984375 -49.191406 39.265625 -48.203125 C 40.015625 -47.972656 40.519531 -47.65625 40.78125 -47.25 C 41.039062 -46.851562 41.171875 -46.210938 41.171875 -45.328125 L 41.171875 -39.40625 C 41.171875 -38.144531 40.675781 -37.515625 39.6875 -37.515625 C 39.457031 -37.515625 38.875 -37.628906 37.9375 -37.859375 C 35.632812 -38.378906 33.332031 -38.640625 31.03125 -38.640625 C 26.71875 -38.640625 23.457031 -37.5 21.25 -35.21875 C 19.050781 -32.945312 17.953125 -29.582031 17.953125 -25.125 L 17.953125 -23.578125 C 17.953125 -19.210938 19.015625 -15.878906 21.140625 -13.578125 C 23.273438 -11.285156 26.429688 -10.140625 30.609375 -10.140625 C 33.515625 -10.140625 36.238281 -10.441406 38.78125 -11.046875 C 39.53125 -11.234375 40.066406 -11.328125 40.390625 -11.328125 C 41.378906 -11.328125 41.875 -10.695312 41.875 -9.4375 L 41.875 -3.515625 C 41.875 -2.628906 41.742188 -1.984375 41.484375 -1.578125 C 41.222656 -1.179688 40.71875 -0.867188 39.96875 -0.640625 C 36.78125 0.398438 32.957031 0.921875 28.5 0.921875 Z M 28.5 0.921875 "/></g></g></g><g fill="#252f3e" fill-opacity="1"><g transform="translate(43.904026, 70.899682)"><g><path d="M 28.359375 -9.578125 C 31.921875 -9.578125 34.601562 -10.816406 36.40625 -13.296875 C 38.21875 -15.785156 39.125 -19.445312 39.125 -24.28125 C 39.125 -29.207031 38.207031 -32.925781 36.375 -35.4375 C 34.550781 -37.945312 31.878906 -39.203125 28.359375 -39.203125 C 24.835938 -39.203125 22.175781 -37.957031 20.375 -35.46875 C 18.570312 -32.976562 17.671875 -29.316406 17.671875 -24.484375 C 17.671875 -19.609375 18.570312 -15.90625 20.375 -13.375 C 22.175781 -10.84375 24.835938 -9.578125 28.359375 -9.578125 Z M 28.359375 1.203125 C 23.242188 1.203125 18.832031 0.132812 15.125 -2 C 11.425781 -4.132812 8.613281 -7.125 6.6875 -10.96875 C 4.757812 -14.820312 3.796875 -19.328125 3.796875 -24.484375 C 3.796875 -29.785156 4.804688 -34.347656 6.828125 -38.171875 C 8.847656 -41.992188 11.695312 -44.914062 15.375 -46.9375 C 19.0625 -48.957031 23.390625 -49.96875 28.359375 -49.96875 C 33.472656 -49.96875 37.882812 -48.910156 41.59375 -46.796875 C 45.300781 -44.679688 48.128906 -41.703125 50.078125 -37.859375 C 52.023438 -34.015625 53 -29.488281 53 -24.28125 C 53 -18.976562 51.988281 -14.398438 49.96875 -10.546875 C 47.945312 -6.703125 45.082031 -3.78125 41.375 -1.78125 C 37.675781 0.207031 33.335938 1.203125 28.359375 1.203125 Z M 28.359375 1.203125 "/></g></g></g><g fill="#252f3e" fill-opacity="1"><g transform="translate(100.693527, 70.899682)"><g><path d="M 7.3125 0 C 6.5625 0 6.019531 -0.160156 5.6875 -0.484375 C 5.363281 -0.816406 5.203125 -1.359375 5.203125 -2.109375 L 5.203125 -46.65625 C 5.203125 -47.457031 5.363281 -48.007812 5.6875 -48.3125 C 6.019531 -48.613281 6.5625 -48.765625 7.3125 -48.765625 L 17.875 -48.765625 C 18.53125 -48.765625 19.035156 -48.660156 19.390625 -48.453125 C 19.742188 -48.242188 20.082031 -47.785156 20.40625 -47.078125 L 31.453125 -22.3125 L 42.640625 -47.078125 C 42.972656 -47.785156 43.316406 -48.242188 43.671875 -48.453125 C 44.023438 -48.660156 44.53125 -48.765625 45.1875 -48.765625 L 55.25 -48.765625 C 56.039062 -48.765625 56.585938 -48.613281 56.890625 -48.3125 C 57.203125 -48.007812 57.359375 -47.457031 57.359375 -46.65625 L 57.359375 -2.109375 C 57.359375 -1.359375 57.203125 -0.816406 56.890625 -0.484375 C 56.585938 -0.160156 56.039062 0 55.25 0 L 47.78125 0 C 47.03125 0 46.488281 -0.160156 46.15625 -0.484375 C 45.832031 -0.816406 45.671875 -1.359375 45.671875 -2.109375 L 45.671875 -30.125 L 38 -12.8125 C 37.675781 -12.101562 37.335938 -11.644531 36.984375 -11.4375 C 36.628906 -11.226562 36.125 -11.125 35.46875 -11.125 L 27.09375 -11.125 C 26.4375 -11.125 25.929688 -11.226562 25.578125 -11.4375 C 25.222656 -11.644531 24.882812 -12.101562 24.5625 -12.8125 L 16.890625 -30.125 L 16.890625 -2.109375 C 16.890625 -1.359375 16.734375 -0.816406 16.421875 -0.484375 C 16.117188 -0.160156 15.570312 0 14.78125 0 Z M 7.3125 0 "/></g></g></g><g fill="#252f3e" fill-opacity="1"><g transform="translate(163.25343, 70.899682)"><g><path d="M 7.3125 0 C 6.5625 0 6.019531 -0.160156 5.6875 -0.484375 C 5.363281 -0.816406 5.203125 -1.359375 5.203125 -2.109375 L 5.203125 -46.65625 C 5.203125 -47.457031 5.363281 -48.007812 5.6875 -48.3125 C 6.019531 -48.613281 6.5625 -48.765625 7.3125 -48.765625 L 17.875 -48.765625 C 18.53125 -48.765625 19.035156 -48.660156 19.390625 -48.453125 C 19.742188 -48.242188 20.082031 -47.785156 20.40625 -47.078125 L 31.453125 -22.3125 L 42.640625 -47.078125 C 42.972656 -47.785156 43.316406 -48.242188 43.671875 -48.453125 C 44.023438 -48.660156 44.53125 -48.765625 45.1875 -48.765625 L 55.25 -48.765625 C 56.039062 -48.765625 56.585938 -48.613281 56.890625 -48.3125 C 57.203125 -48.007812 57.359375 -47.457031 57.359375 -46.65625 L 57.359375 -2.109375 C 57.359375 -1.359375 57.203125 -0.816406 56.890625 -0.484375 C 56.585938 -0.160156 56.039062 0 55.25 0 L 47.78125 0 C 47.03125 0 46.488281 -0.160156 46.15625 -0.484375 C 45.832031 -0.816406 45.671875 -1.359375 45.671875 -2.109375 L 45.671875 -30.125 L 38 -12.8125 C 37.675781 -12.101562 37.335938 -11.644531 36.984375 -11.4375 C 36.628906 -11.226562 36.125 -11.125 35.46875 -11.125 L 27.09375 -11.125 C 26.4375 -11.125 25.929688 -11.226562 25.578125 -11.4375 C 25.222656 -11.644531 24.882812 -12.101562 24.5625 -12.8125 L 16.890625 -30.125 L 16.890625 -2.109375 C 16.890625 -1.359375 16.734375 -0.816406 16.421875 -0.484375 C 16.117188 -0.160156 15.570312 0 14.78125 0 Z M 7.3125 0 "/></g></g></g><g fill="#252f3e" fill-opacity="1"><g transform="translate(225.813333, 70.899682)"><g><path d="M 26.25 1.203125 C 19.488281 1.203125 14.242188 -0.445312 10.515625 -3.75 C 6.785156 -7.0625 4.921875 -11.769531 4.921875 -17.875 L 4.921875 -46.65625 C 4.921875 -47.457031 5.082031 -48.007812 5.40625 -48.3125 C 5.738281 -48.613281 6.28125 -48.765625 7.03125 -48.765625 L 16.390625 -48.765625 C 17.191406 -48.765625 17.742188 -48.613281 18.046875 -48.3125 C 18.359375 -48.007812 18.515625 -47.457031 18.515625 -46.65625 L 18.515625 -17.453125 C 18.515625 -14.867188 19.171875 -12.910156 20.484375 -11.578125 C 21.796875 -10.242188 23.71875 -9.578125 26.25 -9.578125 C 31.457031 -9.578125 34.0625 -12.203125 34.0625 -17.453125 L 34.0625 -46.65625 C 34.0625 -47.457031 34.222656 -48.007812 34.546875 -48.3125 C 34.878906 -48.613281 35.421875 -48.765625 36.171875 -48.765625 L 45.53125 -48.765625 C 46.332031 -48.765625 46.882812 -48.613281 47.1875 -48.3125 C 47.488281 -48.007812 47.640625 -47.457031 47.640625 -46.65625 L 47.640625 -17.8125 C 47.640625 -11.75 45.765625 -7.0625 42.015625 -3.75 C 38.265625 -0.445312 33.007812 1.203125 26.25 1.203125 Z M 26.25 1.203125 "/></g></g></g><g fill="#252f3e" fill-opacity="1"><g transform="translate(278.380548, 70.899682)"><g><path d="M 7.3125 0 C 6.5625 0 6.019531 -0.160156 5.6875 -0.484375 C 5.363281 -0.816406 5.203125 -1.359375 5.203125 -2.109375 L 5.203125 -46.65625 C 5.203125 -47.457031 5.363281 -48.007812 5.6875 -48.3125 C 6.019531 -48.613281 6.5625 -48.765625 7.3125 -48.765625 L 17.234375 -48.765625 C 18.035156 -48.765625 18.632812 -48.644531 19.03125 -48.40625 C 19.4375 -48.175781 19.800781 -47.78125 20.125 -47.21875 L 36.390625 -17.953125 L 36.390625 -46.65625 C 36.390625 -47.457031 36.550781 -48.007812 36.875 -48.3125 C 37.207031 -48.613281 37.75 -48.765625 38.5 -48.765625 L 45.953125 -48.765625 C 46.753906 -48.765625 47.304688 -48.613281 47.609375 -48.3125 C 47.910156 -48.007812 48.0625 -47.457031 48.0625 -46.65625 L 48.0625 -2.109375 C 48.0625 -1.359375 47.910156 -0.816406 47.609375 -0.484375 C 47.304688 -0.160156 46.753906 0 45.953125 0 L 36.03125 0 C 35.226562 0 34.628906 -0.113281 34.234375 -0.34375 C 33.835938 -0.582031 33.472656 -0.984375 33.140625 -1.546875 L 16.890625 -30.546875 L 16.890625 -2.109375 C 16.890625 -1.359375 16.734375 -0.816406 16.421875 -0.484375 C 16.117188 -0.160156 15.570312 0 14.78125 0 Z M 7.3125 0 "/></g></g></g><g fill="#252f3e" fill-opacity="1"><g transform="translate(331.651488, 70.899682)"><g><path d="M 7.59375 0 C 6.84375 0 6.300781 -0.160156 5.96875 -0.484375 C 5.644531 -0.816406 5.484375 -1.359375 5.484375 -2.109375 L 5.484375 -46.65625 C 5.484375 -47.457031 5.644531 -48.007812 5.96875 -48.3125 C 6.300781 -48.613281 6.84375 -48.765625 7.59375 -48.765625 L 16.953125 -48.765625 C 17.753906 -48.765625 18.304688 -48.613281 18.609375 -48.3125 C 18.921875 -48.007812 19.078125 -47.457031 19.078125 -46.65625 L 19.078125 -2.109375 C 19.078125 -1.359375 18.921875 -0.816406 18.609375 -0.484375 C 18.304688 -0.160156 17.753906 0 16.953125 0 Z M 7.59375 0 "/></g></g></g><g fill="#252f3e" fill-opacity="1"><g transform="translate(356.211014, 70.899682)"><g><path d="M 16.890625 0 C 16.140625 0 15.597656 -0.160156 15.265625 -0.484375 C 14.941406 -0.816406 14.78125 -1.359375 14.78125 -2.109375 L 14.78125 -38.140625 L 2.75 -38.140625 C 2 -38.140625 1.457031 -38.300781 1.125 -38.625 C 0.800781 -38.957031 0.640625 -39.5 0.640625 -40.25 L 0.640625 -46.65625 C 0.640625 -47.457031 0.800781 -48.007812 1.125 -48.3125 C 1.457031 -48.613281 2 -48.765625 2.75 -48.765625 L 40.390625 -48.765625 C 41.191406 -48.765625 41.742188 -48.613281 42.046875 -48.3125 C 42.347656 -48.007812 42.5 -47.457031 42.5 -46.65625 L 42.5 -40.25 C 42.5 -39.5 42.347656 -38.957031 42.046875 -38.625 C 41.742188 -38.300781 41.191406 -38.140625 40.390625 -38.140625 L 28.359375 -38.140625 L 28.359375 -2.109375 C 28.359375 -1.359375 28.207031 -0.816406 27.90625 -0.484375 C 27.601562 -0.160156 27.050781 0 26.25 0 Z M 16.890625 0 "/></g></g></g><g fill="#252f3e" fill-opacity="1"><g transform="translate(402.163302, 70.899682)"><g><path d="M 18.65625 0 C 17.894531 0 17.347656 -0.160156 17.015625 -0.484375 C 16.691406 -0.816406 16.53125 -1.359375 16.53125 -2.109375 L 16.53125 -18.375 L 1.828125 -45.25 C 1.265625 -46.238281 0.984375 -46.941406 0.984375 -47.359375 C 0.984375 -48.296875 1.59375 -48.765625 2.8125 -48.765625 L 12.8125 -48.765625 C 13.5625 -48.765625 14.15625 -48.625 14.59375 -48.34375 C 15.039062 -48.0625 15.40625 -47.59375 15.6875 -46.9375 L 23.71875 -28.078125 L 31.875 -46.9375 C 32.15625 -47.59375 32.519531 -48.0625 32.96875 -48.34375 C 33.414062 -48.625 34.015625 -48.765625 34.765625 -48.765625 L 44.0625 -48.765625 C 45.28125 -48.765625 45.890625 -48.296875 45.890625 -47.359375 C 45.890625 -46.941406 45.609375 -46.238281 45.046875 -45.25 L 30.125 -18.234375 L 30.125 -2.109375 C 30.125 -1.359375 29.96875 -0.816406 29.65625 -0.484375 C 29.351562 -0.160156 28.804688 0 28.015625 0 Z M 18.65625 0 "/></g></g></g><g fill="#252f3e" fill-opacity="1"><g transform="translate(449.030447, 70.899682)"><g/></g></g><g fill="#252f3e" fill-opacity="1"><g transform="translate(466.482452, 70.899682)"><g><path d="M 7.3125 0 C 6.5625 0 6.019531 -0.160156 5.6875 -0.484375 C 5.363281 -0.816406 5.203125 -1.359375 5.203125 -2.109375 L 5.203125 -46.65625 C 5.203125 -47.457031 5.363281 -48.007812 5.6875 -48.3125 C 6.019531 -48.613281 6.5625 -48.765625 7.3125 -48.765625 L 24.28125 -48.765625 C 31.789062 -48.765625 37.609375 -46.65625 41.734375 -42.4375 C 45.859375 -38.21875 47.921875 -32.210938 47.921875 -24.421875 C 47.921875 -19.304688 47.003906 -14.90625 45.171875 -11.21875 C 43.347656 -7.539062 40.734375 -4.75 37.328125 -2.84375 C 33.929688 -0.945312 29.863281 0 25.125 0 Z M 18.796875 -10.421875 L 23.4375 -10.421875 C 30.519531 -10.421875 34.0625 -14.875 34.0625 -23.78125 L 34.0625 -25.046875 C 34.0625 -33.921875 30.566406 -38.359375 23.578125 -38.359375 L 18.796875 -38.359375 Z M 18.796875 -10.421875 "/></g></g></g><g fill="#252f3e" fill-opacity="1"><g transform="translate(516.094099, 70.899682)"><g><path d="M 29.5625 -19 L 24.484375 -37.09375 L 19.5625 -19 Z M 2.46875 0 C 1.25 0 0.640625 -0.46875 0.640625 -1.40625 C 0.640625 -1.78125 0.828125 -2.484375 1.203125 -3.515625 L 16.75 -47.078125 C 16.976562 -47.734375 17.257812 -48.175781 17.59375 -48.40625 C 17.925781 -48.644531 18.46875 -48.765625 19.21875 -48.765625 L 30.46875 -48.765625 C 31.21875 -48.765625 31.753906 -48.644531 32.078125 -48.40625 C 32.410156 -48.175781 32.695312 -47.734375 32.9375 -47.078125 L 48.5625 -3.515625 C 48.9375 -2.484375 49.125 -1.78125 49.125 -1.40625 C 49.125 -0.46875 48.515625 0 47.296875 0 L 36.734375 0 C 35.984375 0 35.429688 -0.140625 35.078125 -0.421875 C 34.722656 -0.703125 34.429688 -1.265625 34.203125 -2.109375 L 32.09375 -9.4375 L 17.03125 -9.4375 L 14.984375 -2.109375 C 14.753906 -1.265625 14.460938 -0.703125 14.109375 -0.421875 C 13.753906 -0.140625 13.203125 0 12.453125 0 Z M 2.46875 0 "/></g></g></g><g fill="#252f3e" fill-opacity="1"><g transform="translate(560.920534, 70.899682)"><g><path d="M 18.65625 0 C 17.894531 0 17.347656 -0.160156 17.015625 -0.484375 C 16.691406 -0.816406 16.53125 -1.359375 16.53125 -2.109375 L 16.53125 -18.375 L 1.828125 -45.25 C 1.265625 -46.238281 0.984375 -46.941406 0.984375 -47.359375 C 0.984375 -48.296875 1.59375 -48.765625 2.8125 -48.765625 L 12.8125 -48.765625 C 13.5625 -48.765625 14.15625 -48.625 14.59375 -48.34375 C 15.039062 -48.0625 15.40625 -47.59375 15.6875 -46.9375 L 23.71875 -28.078125 L 31.875 -46.9375 C 32.15625 -47.59375 32.519531 -48.0625 32.96875 -48.34375 C 33.414062 -48.625 34.015625 -48.765625 34.765625 -48.765625 L 44.0625 -48.765625 C 45.28125 -48.765625 45.890625 -48.296875 45.890625 -47.359375 C 45.890625 -46.941406 45.609375 -46.238281 45.046875 -45.25 L 30.125 -18.234375 L 30.125 -2.109375 C 30.125 -1.359375 29.96875 -0.816406 29.65625 -0.484375 C 29.351562 -0.160156 28.804688 0 28.015625 0 Z M 18.65625 0 "/></g></g></g></g></g><g transform="matrix(1, 0, 0, 1, 419, 151)"><g clip-path="url(#a581fc886e)"><g fill="#ff9900" fill-opacity="1"><g transform="translate(0.70047, 26.06355)"><g><path d="M 10.65625 -3.59375 C 12 -3.59375 13.007812 -4.0625 13.6875 -5 C 14.363281 -5.9375 14.703125 -7.3125 14.703125 -9.125 C 14.703125 -10.976562 14.359375 -12.375 13.671875 -13.3125 C 12.984375 -14.257812 11.976562 -14.734375 10.65625 -14.734375 C 9.332031 -14.734375 8.332031 -14.265625 7.65625 -13.328125 C 6.976562 -12.398438 6.640625 -11.023438 6.640625 -9.203125 C 6.640625 -7.367188 6.976562 -5.972656 7.65625 -5.015625 C 8.332031 -4.066406 9.332031 -3.59375 10.65625 -3.59375 Z M 10.65625 0.453125 C 8.738281 0.453125 7.082031 0.0507812 5.6875 -0.75 C 4.289062 -1.550781 3.226562 -2.675781 2.5 -4.125 C 1.78125 -5.570312 1.421875 -7.265625 1.421875 -9.203125 C 1.421875 -11.191406 1.800781 -12.90625 2.5625 -14.34375 C 3.320312 -15.78125 4.394531 -16.878906 5.78125 -17.640625 C 7.164062 -18.398438 8.789062 -18.78125 10.65625 -18.78125 C 12.582031 -18.78125 14.238281 -18.382812 15.625 -17.59375 C 17.019531 -16.800781 18.082031 -15.679688 18.8125 -14.234375 C 19.550781 -12.785156 19.921875 -11.082031 19.921875 -9.125 C 19.921875 -7.132812 19.539062 -5.414062 18.78125 -3.96875 C 18.019531 -2.519531 16.941406 -1.421875 15.546875 -0.671875 C 14.160156 0.078125 12.53125 0.453125 10.65625 0.453125 Z M 10.65625 0.453125 "/></g></g></g><g fill="#ff9900" fill-opacity="1"><g transform="translate(22.048134, 26.06355)"><g><path d="M 10.71875 0.34375 C 7.675781 0.34375 5.363281 -0.457031 3.78125 -2.0625 C 2.207031 -3.664062 1.421875 -6.007812 1.421875 -9.09375 C 1.421875 -12.132812 2.242188 -14.488281 3.890625 -16.15625 C 5.546875 -17.832031 7.847656 -18.671875 10.796875 -18.671875 C 12.203125 -18.671875 13.523438 -18.488281 14.765625 -18.125 C 15.046875 -18.03125 15.234375 -17.90625 15.328125 -17.75 C 15.421875 -17.601562 15.46875 -17.363281 15.46875 -17.03125 L 15.46875 -14.8125 C 15.46875 -14.332031 15.285156 -14.09375 14.921875 -14.09375 C 14.828125 -14.09375 14.609375 -14.140625 14.265625 -14.234375 C 13.398438 -14.421875 12.535156 -14.515625 11.671875 -14.515625 C 10.046875 -14.515625 8.816406 -14.085938 7.984375 -13.234375 C 7.160156 -12.378906 6.75 -11.113281 6.75 -9.4375 L 6.75 -8.859375 C 6.75 -7.222656 7.148438 -5.972656 7.953125 -5.109375 C 8.753906 -4.242188 9.9375 -3.8125 11.5 -3.8125 C 12.59375 -3.8125 13.617188 -3.925781 14.578125 -4.15625 C 14.859375 -4.226562 15.0625 -4.265625 15.1875 -4.265625 C 15.550781 -4.265625 15.734375 -4.023438 15.734375 -3.546875 L 15.734375 -1.328125 C 15.734375 -0.984375 15.6875 -0.738281 15.59375 -0.59375 C 15.5 -0.445312 15.3125 -0.328125 15.03125 -0.234375 C 13.820312 0.148438 12.382812 0.34375 10.71875 0.34375 Z M 10.71875 0.34375 "/></g></g></g><g fill="#ff9900" fill-opacity="1"><g transform="translate(38.528426, 26.06355)"><g><path d="M 2.75 0 C 2.46875 0 2.265625 -0.0625 2.140625 -0.1875 C 2.015625 -0.3125 1.953125 -0.515625 1.953125 -0.796875 L 1.953125 -17.53125 C 1.953125 -17.832031 2.015625 -18.039062 2.140625 -18.15625 C 2.265625 -18.269531 2.46875 -18.328125 2.75 -18.328125 L 13.9375 -18.328125 C 14.238281 -18.328125 14.445312 -18.269531 14.5625 -18.15625 C 14.675781 -18.039062 14.734375 -17.832031 14.734375 -17.53125 L 14.734375 -15.265625 C 14.734375 -14.984375 14.675781 -14.78125 14.5625 -14.65625 C 14.445312 -14.53125 14.238281 -14.46875 13.9375 -14.46875 L 6.9375 -14.46875 L 6.9375 -11.265625 L 12.484375 -11.265625 C 12.785156 -11.265625 12.992188 -11.207031 13.109375 -11.09375 C 13.222656 -10.976562 13.28125 -10.769531 13.28125 -10.46875 L 13.28125 -8.203125 C 13.28125 -7.921875 13.222656 -7.71875 13.109375 -7.59375 C 12.992188 -7.46875 12.785156 -7.40625 12.484375 -7.40625 L 6.9375 -7.40625 L 6.9375 -3.859375 L 14 -3.859375 C 14.289062 -3.859375 14.492188 -3.800781 14.609375 -3.6875 C 14.722656 -3.570312 14.78125 -3.363281 14.78125 -3.0625 L 14.78125 -0.796875 C 14.78125 -0.515625 14.722656 -0.3125 14.609375 -0.1875 C 14.492188 -0.0625 14.289062 0 14 0 Z M 2.75 0 "/></g></g></g><g fill="#ff9900" fill-opacity="1"><g transform="translate(54.612015, 26.06355)"><g><path d="M 11.109375 -7.140625 L 9.203125 -13.9375 L 7.359375 -7.140625 Z M 0.921875 0 C 0.460938 0 0.234375 -0.175781 0.234375 -0.53125 C 0.234375 -0.664062 0.304688 -0.929688 0.453125 -1.328125 L 6.296875 -17.703125 C 6.378906 -17.941406 6.484375 -18.101562 6.609375 -18.1875 C 6.734375 -18.28125 6.9375 -18.328125 7.21875 -18.328125 L 11.453125 -18.328125 C 11.734375 -18.328125 11.9375 -18.28125 12.0625 -18.1875 C 12.1875 -18.101562 12.289062 -17.941406 12.375 -17.703125 L 18.25 -1.328125 C 18.394531 -0.929688 18.46875 -0.664062 18.46875 -0.53125 C 18.46875 -0.175781 18.238281 0 17.78125 0 L 13.8125 0 C 13.53125 0 13.320312 -0.0507812 13.1875 -0.15625 C 13.050781 -0.257812 12.941406 -0.472656 12.859375 -0.796875 L 12.0625 -3.546875 L 6.40625 -3.546875 L 5.640625 -0.796875 C 5.546875 -0.472656 5.429688 -0.257812 5.296875 -0.15625 C 5.171875 -0.0507812 4.96875 0 4.6875 0 Z M 0.921875 0 "/></g></g></g><g fill="#ff9900" fill-opacity="1"><g transform="translate(73.314368, 26.06355)"><g><path d="M 2.75 0 C 2.46875 0 2.265625 -0.0625 2.140625 -0.1875 C 2.015625 -0.3125 1.953125 -0.515625 1.953125 -0.796875 L 1.953125 -17.53125 C 1.953125 -17.832031 2.015625 -18.039062 2.140625 -18.15625 C 2.265625 -18.269531 2.46875 -18.328125 2.75 -18.328125 L 6.484375 -18.328125 C 6.785156 -18.328125 7.007812 -18.28125 7.15625 -18.1875 C 7.300781 -18.101562 7.4375 -17.957031 7.5625 -17.75 L 13.671875 -6.75 L 13.671875 -17.53125 C 13.671875 -17.832031 13.734375 -18.039062 13.859375 -18.15625 C 13.984375 -18.269531 14.1875 -18.328125 14.46875 -18.328125 L 17.28125 -18.328125 C 17.570312 -18.328125 17.773438 -18.269531 17.890625 -18.15625 C 18.003906 -18.039062 18.0625 -17.832031 18.0625 -17.53125 L 18.0625 -0.796875 C 18.0625 -0.515625 18.003906 -0.3125 17.890625 -0.1875 C 17.773438 -0.0625 17.570312 0 17.28125 0 L 13.546875 0 C 13.242188 0 13.015625 -0.0390625 12.859375 -0.125 C 12.710938 -0.21875 12.578125 -0.367188 12.453125 -0.578125 L 6.34375 -11.484375 L 6.34375 -0.796875 C 6.34375 -0.515625 6.285156 -0.3125 6.171875 -0.1875 C 6.054688 -0.0625 5.851562 0 5.5625 0 Z M 2.75 0 "/></g></g></g><g fill="#ff9900" fill-opacity="1"><g transform="translate(93.339377, 26.06355)"><g><path d="M 2.859375 0 C 2.578125 0 2.375 -0.0625 2.25 -0.1875 C 2.125 -0.3125 2.0625 -0.515625 2.0625 -0.796875 L 2.0625 -17.53125 C 2.0625 -17.832031 2.125 -18.039062 2.25 -18.15625 C 2.375 -18.269531 2.578125 -18.328125 2.859375 -18.328125 L 6.375 -18.328125 C 6.675781 -18.328125 6.882812 -18.269531 7 -18.15625 C 7.113281 -18.039062 7.171875 -17.832031 7.171875 -17.53125 L 7.171875 -0.796875 C 7.171875 -0.515625 7.113281 -0.3125 7 -0.1875 C 6.882812 -0.0625 6.675781 0 6.375 0 Z M 2.859375 0 "/></g></g></g><g clip-path="url(#a1e25774b9)"><g fill="#ff9900" fill-opacity="1"><g transform="translate(102.571518, 26.06355)"><g><path d="M 11.109375 -7.140625 L 9.203125 -13.9375 L 7.359375 -7.140625 Z M 0.921875 0 C 0.460938 0 0.234375 -0.175781 0.234375 -0.53125 C 0.234375 -0.664062 0.304688 -0.929688 0.453125 -1.328125 L 6.296875 -17.703125 C 6.378906 -17.941406 6.484375 -18.101562 6.609375 -18.1875 C 6.734375 -18.28125 6.9375 -18.328125 7.21875 -18.328125 L 11.453125 -18.328125 C 11.734375 -18.328125 11.9375 -18.28125 12.0625 -18.1875 C 12.1875 -18.101562 12.289062 -17.941406 12.375 -17.703125 L 18.25 -1.328125 C 18.394531 -0.929688 18.46875 -0.664062 18.46875 -0.53125 C 18.46875 -0.175781 18.238281 0 17.78125 0 L 13.8125 0 C 13.53125 0 13.320312 -0.0507812 13.1875 -0.15625 C 13.050781 -0.257812 12.941406 -0.472656 12.859375 -0.796875 L 12.0625 -3.546875 L 6.40625 -3.546875 L 5.640625 -0.796875 C 5.546875 -0.472656 5.429688 -0.257812 5.296875 -0.15625 C 5.171875 -0.0507812 4.96875 0 4.6875 0 Z M 0.921875 0 "/></g></g></g></g></g></g><path stroke-linecap="round" transform="matrix(0.749988, 0.00430066, -0.00430066, 0.749988, 232.397705, 167.323569)" fill="none" stroke-linejoin="miter" d="M 1.001521 1.000349 L 173.389795 1.001422 " stroke="#252f3e" stroke-width="2" stroke-opacity="1" stroke-miterlimit="4"/><path stroke-linecap="round" transform="matrix(0.749988, 0.00430066, -0.00430066, 0.749988, 596.819037, 167.698569)" fill="none" stroke-linejoin="miter" d="M 1.002246 1.000345 L 173.39052 1.001418 " stroke="#252f3e" stroke-width="2" stroke-opacity="1" stroke-miterlimit="4"/><g clip-path="url(#52e3fb2082)"><g transform="matrix(1, 0, 0, 1, 368, 196)"><g clip-path="url(#6795708e5e)"><g clip-path="url(#2f19800ac0)"><path fill="#ff9900" d="M 0.601562 0.621094 L 224.136719 0.621094 L 224.136719 32.570312 L 0.601562 32.570312 Z M 0.601562 0.621094 " fill-opacity="1" fill-rule="nonzero"/></g></g></g></g><g fill="#252f3e" fill-opacity="1"><g transform="translate(374.295572, 221.970043)"><g><path d="M 4.015625 0 L 2.375 -18.890625 L 6.1875 -18.890625 L 6.84375 -7.515625 C 6.875 -7.148438 6.890625 -6.75 6.890625 -6.3125 C 6.890625 -5.875 6.882812 -5.4375 6.875 -5 C 6.875 -4.570312 6.851562 -4.191406 6.8125 -3.859375 L 6.9375 -3.859375 C 7.050781 -4.242188 7.179688 -4.640625 7.328125 -5.046875 C 7.484375 -5.453125 7.644531 -5.863281 7.8125 -6.28125 C 7.988281 -6.695312 8.171875 -7.109375 8.359375 -7.515625 L 13.90625 -18.890625 L 18 -18.890625 L 8.328125 0 Z M 4.015625 0 "/></g></g></g><g fill="#252f3e" fill-opacity="1"><g transform="translate(389.896477, 221.970043)"><g><path d="M 0.65625 0 L 4.671875 -18.890625 L 8.625 -18.890625 L 4.59375 0 Z M 0.65625 0 "/></g></g></g><g fill="#252f3e" fill-opacity="1"><g transform="translate(398.355583, 221.970043)"><g><path d="M 0.6875 0 L 4.671875 -18.890625 L 9.3125 -18.890625 C 11.207031 -18.890625 12.703125 -18.476562 13.796875 -17.65625 C 14.898438 -16.84375 15.453125 -15.523438 15.453125 -13.703125 C 15.453125 -12.703125 15.269531 -11.828125 14.90625 -11.078125 C 14.539062 -10.328125 14.046875 -9.695312 13.421875 -9.1875 C 12.796875 -8.6875 12.085938 -8.296875 11.296875 -8.015625 L 14.65625 0 L 10.375 0 L 7.703125 -7.25 L 6.15625 -7.25 L 4.625 0 Z M 6.84375 -10.5 L 7.859375 -10.5 C 8.410156 -10.5 8.90625 -10.5625 9.34375 -10.6875 C 9.789062 -10.8125 10.171875 -10.992188 10.484375 -11.234375 C 10.796875 -11.484375 11.03125 -11.796875 11.1875 -12.171875 C 11.351562 -12.546875 11.4375 -12.984375 11.4375 -13.484375 C 11.4375 -14.191406 11.226562 -14.722656 10.8125 -15.078125 C 10.394531 -15.429688 9.753906 -15.609375 8.890625 -15.609375 L 7.9375 -15.609375 Z M 6.84375 -10.5 "/></g></g></g><g fill="#252f3e" fill-opacity="1"><g transform="translate(414.460165, 221.970043)"><g><path d="M 3.4375 0 L 6.71875 -15.546875 L 2.171875 -15.546875 L 2.875 -18.890625 L 15.921875 -18.890625 L 15.21875 -15.546875 L 10.65625 -15.546875 L 7.375 0 Z M 3.4375 0 "/></g></g></g><g fill="#252f3e" fill-opacity="1"><g transform="translate(428.498403, 221.970043)"><g><path d="M 7.796875 0.265625 C 6.492188 0.265625 5.394531 0.046875 4.5 -0.390625 C 3.613281 -0.835938 2.945312 -1.457031 2.5 -2.25 C 2.050781 -3.050781 1.828125 -3.984375 1.828125 -5.046875 C 1.828125 -5.328125 1.835938 -5.640625 1.859375 -5.984375 C 1.890625 -6.335938 1.941406 -6.664062 2.015625 -6.96875 L 4.546875 -18.890625 L 8.484375 -18.890625 L 5.984375 -7.015625 C 5.921875 -6.710938 5.867188 -6.421875 5.828125 -6.140625 C 5.785156 -5.867188 5.765625 -5.625 5.765625 -5.40625 C 5.765625 -4.65625 5.960938 -4.082031 6.359375 -3.6875 C 6.765625 -3.289062 7.378906 -3.09375 8.203125 -3.09375 C 8.972656 -3.09375 9.609375 -3.238281 10.109375 -3.53125 C 10.609375 -3.832031 11.015625 -4.273438 11.328125 -4.859375 C 11.640625 -5.441406 11.882812 -6.171875 12.0625 -7.046875 L 14.5625 -18.890625 L 18.515625 -18.890625 L 15.921875 -6.671875 C 15.640625 -5.328125 15.175781 -4.132812 14.53125 -3.09375 C 13.894531 -2.050781 13.03125 -1.226562 11.9375 -0.625 C 10.84375 -0.03125 9.460938 0.265625 7.796875 0.265625 Z M 7.796875 0.265625 "/></g></g></g><g fill="#252f3e" fill-opacity="1"><g transform="translate(446.772648, 221.970043)"><g><path d="M -1.59375 0 L 8.3125 -18.890625 L 13.125 -18.890625 L 15.015625 0 L 11.1875 0 L 10.875 -4.5 L 4.765625 -4.5 L 2.546875 0 Z M 6.375 -7.859375 L 10.6875 -7.859375 L 10.34375 -12.71875 C 10.3125 -13.238281 10.273438 -13.757812 10.234375 -14.28125 C 10.203125 -14.8125 10.195312 -15.351562 10.21875 -15.90625 L 10.15625 -15.90625 C 9.988281 -15.425781 9.796875 -14.945312 9.578125 -14.46875 C 9.367188 -14 9.128906 -13.5 8.859375 -12.96875 Z M 6.375 -7.859375 "/></g></g></g><g fill="#252f3e" fill-opacity="1"><g transform="translate(463.380897, 221.970043)"><g><path d="M 0.6875 0 L 4.671875 -18.890625 L 8.625 -18.890625 L 5.328125 -3.3125 L 11.9375 -3.3125 L 11.234375 0 Z M 0.6875 0 "/></g></g></g><g fill="#252f3e" fill-opacity="1"><g transform="translate(477.083353, 221.970043)"><g/></g></g><g fill="#252f3e" fill-opacity="1"><g transform="translate(483.953951, 221.970043)"><g><path d="M 0.6875 0 L 4.671875 -18.890625 L 15.234375 -18.890625 L 14.546875 -15.609375 L 7.9375 -15.609375 L 7.0625 -11.453125 L 13.234375 -11.453125 L 12.515625 -8.171875 L 6.359375 -8.171875 L 5.328125 -3.3125 L 11.9375 -3.3125 L 11.234375 0 Z M 0.6875 0 "/></g></g></g><g fill="#252f3e" fill-opacity="1"><g transform="translate(498.289219, 221.970043)"><g><path d="M 0.6875 0 L 4.671875 -18.890625 L 9.796875 -18.890625 C 12.109375 -18.890625 13.898438 -18.273438 15.171875 -17.046875 C 16.453125 -15.828125 17.09375 -14.054688 17.09375 -11.734375 C 17.09375 -10.304688 16.941406 -8.984375 16.640625 -7.765625 C 16.335938 -6.554688 15.894531 -5.472656 15.3125 -4.515625 C 14.726562 -3.554688 14.007812 -2.738281 13.15625 -2.0625 C 12.300781 -1.394531 11.316406 -0.882812 10.203125 -0.53125 C 9.085938 -0.175781 7.859375 0 6.515625 0 Z M 5.328125 -3.3125 L 6.6875 -3.3125 C 7.5625 -3.3125 8.335938 -3.453125 9.015625 -3.734375 C 9.703125 -4.023438 10.296875 -4.425781 10.796875 -4.9375 C 11.304688 -5.457031 11.726562 -6.0625 12.0625 -6.75 C 12.394531 -7.4375 12.640625 -8.1875 12.796875 -9 C 12.960938 -9.820312 13.046875 -10.664062 13.046875 -11.53125 C 13.046875 -12.914062 12.722656 -13.941406 12.078125 -14.609375 C 11.429688 -15.273438 10.546875 -15.609375 9.421875 -15.609375 L 7.9375 -15.609375 Z M 5.328125 -3.3125 "/></g></g></g><g fill="#252f3e" fill-opacity="1"><g transform="translate(516.188934, 221.970043)"><g><path d="M 0.65625 0 L 4.671875 -18.890625 L 8.625 -18.890625 L 4.59375 0 Z M 0.65625 0 "/></g></g></g><g fill="#252f3e" fill-opacity="1"><g transform="translate(524.648039, 221.970043)"><g><path d="M 3.4375 0 L 6.71875 -15.546875 L 2.171875 -15.546875 L 2.875 -18.890625 L 15.921875 -18.890625 L 15.21875 -15.546875 L 10.65625 -15.546875 L 7.375 0 Z M 3.4375 0 "/></g></g></g><g fill="#252f3e" fill-opacity="1"><g transform="translate(538.686277, 221.970043)"><g><path d="M 0.65625 0 L 4.671875 -18.890625 L 8.625 -18.890625 L 4.59375 0 Z M 0.65625 0 "/></g></g></g><g fill="#252f3e" fill-opacity="1"><g transform="translate(547.145383, 221.970043)"><g><path d="M 8.609375 0.265625 C 7.066406 0.265625 5.773438 -0.03125 4.734375 -0.625 C 3.703125 -1.226562 2.921875 -2.066406 2.390625 -3.140625 C 1.859375 -4.222656 1.59375 -5.488281 1.59375 -6.9375 C 1.59375 -7.914062 1.679688 -8.894531 1.859375 -9.875 C 2.035156 -10.863281 2.300781 -11.8125 2.65625 -12.71875 C 3.007812 -13.632812 3.457031 -14.484375 4 -15.265625 C 4.550781 -16.046875 5.195312 -16.726562 5.9375 -17.3125 C 6.675781 -17.90625 7.515625 -18.363281 8.453125 -18.6875 C 9.398438 -19.019531 10.445312 -19.1875 11.59375 -19.1875 C 13.875 -19.1875 15.59375 -18.539062 16.75 -17.25 C 17.914062 -15.957031 18.5 -14.242188 18.5 -12.109375 C 18.5 -11.085938 18.414062 -10.070312 18.25 -9.0625 C 18.082031 -8.0625 17.820312 -7.097656 17.46875 -6.171875 C 17.125 -5.253906 16.679688 -4.40625 16.140625 -3.625 C 15.597656 -2.84375 14.960938 -2.160156 14.234375 -1.578125 C 13.503906 -0.992188 12.671875 -0.539062 11.734375 -0.21875 C 10.796875 0.101562 9.753906 0.265625 8.609375 0.265625 Z M 8.890625 -3.09375 C 9.398438 -3.09375 9.890625 -3.1875 10.359375 -3.375 C 10.835938 -3.570312 11.285156 -3.847656 11.703125 -4.203125 C 12.117188 -4.554688 12.492188 -4.992188 12.828125 -5.515625 C 13.171875 -6.035156 13.460938 -6.625 13.703125 -7.28125 C 13.941406 -7.945312 14.128906 -8.675781 14.265625 -9.46875 C 14.398438 -10.257812 14.46875 -11.109375 14.46875 -12.015625 C 14.46875 -13.171875 14.195312 -14.097656 13.65625 -14.796875 C 13.125 -15.492188 12.328125 -15.84375 11.265625 -15.84375 C 10.722656 -15.84375 10.203125 -15.734375 9.703125 -15.515625 C 9.210938 -15.304688 8.757812 -15.003906 8.34375 -14.609375 C 7.925781 -14.210938 7.546875 -13.742188 7.203125 -13.203125 C 6.867188 -12.660156 6.582031 -12.054688 6.34375 -11.390625 C 6.101562 -10.722656 5.921875 -10.015625 5.796875 -9.265625 C 5.671875 -8.523438 5.609375 -7.75 5.609375 -6.9375 C 5.609375 -6.101562 5.734375 -5.398438 5.984375 -4.828125 C 6.242188 -4.253906 6.617188 -3.820312 7.109375 -3.53125 C 7.609375 -3.238281 8.203125 -3.09375 8.890625 -3.09375 Z M 8.890625 -3.09375 "/></g></g></g><g fill="#252f3e" fill-opacity="1"><g transform="translate(566.4528, 221.970043)"><g><path d="M 0.6875 0 L 4.671875 -18.890625 L 9.28125 -18.890625 L 13.671875 -4.96875 L 13.78125 -4.96875 C 13.84375 -5.34375 13.921875 -5.820312 14.015625 -6.40625 C 14.109375 -7 14.210938 -7.613281 14.328125 -8.25 C 14.441406 -8.882812 14.550781 -9.453125 14.65625 -9.953125 L 16.5625 -18.890625 L 20.09375 -18.890625 L 16.109375 0 L 11.6875 0 L 7.09375 -14.28125 L 6.96875 -14.28125 C 6.957031 -14.175781 6.921875 -13.925781 6.859375 -13.53125 C 6.804688 -13.132812 6.738281 -12.660156 6.65625 -12.109375 C 6.570312 -11.554688 6.484375 -10.992188 6.390625 -10.421875 C 6.296875 -9.847656 6.203125 -9.335938 6.109375 -8.890625 L 4.234375 0 Z M 0.6875 0 "/></g></g></g></svg>