<svg xmlns="http://www.w3.org/2000/svg" xmlns:xlink="http://www.w3.org/1999/xlink" width="906" zoomAndPan="magnify" viewBox="0 0 679.5 279.749983" height="373" preserveAspectRatio="xMidYMid meet" version="1.0"><defs><g/><clipPath id="3b6b0e5e64"><path d="M 288.046875 95 L 382 95 L 382 117 L 288.046875 117 Z M 288.046875 95 " clip-rule="nonzero"/></clipPath><clipPath id="d03c6ee4d0"><path d="M 371 93.359375 L 390.707031 93.359375 L 390.707031 113 L 371 113 Z M 371 93.359375 " clip-rule="nonzero"/></clipPath><clipPath id="f9ae74122e"><rect x="0" width="617" y="0" height="89"/></clipPath><clipPath id="f6deef5c1a"><rect x="0" width="123" y="0" height="33"/></clipPath></defs><path fill="#000000" d="M 316.984375 77.589844 C 316.984375 78.855469 317.113281 79.878906 317.355469 80.636719 C 317.625 81.386719 317.972656 82.210938 318.449219 83.101562 C 318.601562 83.34375 318.679688 83.605469 318.683594 83.890625 C 318.683594 84.230469 318.480469 84.578125 318.042969 84.917969 L 315.886719 86.355469 C 315.625 86.546875 315.328125 86.648438 315.003906 86.664062 C 314.65625 86.664062 314.316406 86.496094 313.976562 86.1875 C 313.511719 85.691406 313.101562 85.152344 312.742188 84.578125 C 312.363281 83.917969 312.011719 83.246094 311.691406 82.554688 C 309.023438 85.707031 305.679688 87.285156 301.648438 87.285156 C 298.78125 87.285156 296.492188 86.457031 294.824219 84.816406 C 293.148438 83.171875 292.296875 80.976562 292.296875 78.238281 C 292.296875 75.324219 293.320312 72.964844 295.402344 71.179688 C 297.484375 69.398438 300.25 68.511719 303.765625 68.511719 C 304.921875 68.511719 306.121094 68.613281 307.386719 68.78125 C 308.648438 68.953125 309.953125 69.230469 311.3125 69.539062 L 311.3125 67.035156 C 311.3125 64.429688 310.765625 62.613281 309.707031 61.554688 C 308.617188 60.492188 306.769531 59.976562 304.140625 59.976562 C 302.945312 59.976562 301.71875 60.117188 300.457031 60.425781 C 299.199219 60.726562 297.96875 61.113281 296.765625 61.589844 C 296.378906 61.765625 295.980469 61.914062 295.574219 62.039062 C 295.398438 62.097656 295.214844 62.128906 295.027344 62.140625 C 294.546875 62.140625 294.308594 61.792969 294.308594 61.074219 L 294.308594 59.394531 C 294.308594 58.847656 294.375 58.433594 294.546875 58.199219 C 294.808594 57.882812 295.128906 57.640625 295.511719 57.476562 C 296.695312 56.859375 298.132812 56.347656 299.808594 55.9375 C 301.476562 55.488281 303.253906 55.289062 305.132812 55.289062 C 309.195312 55.289062 312.167969 56.210938 314.078125 58.058594 C 315.957031 59.90625 316.914062 62.71875 316.914062 66.492188 L 316.914062 77.589844 Z M 303.121094 82.792969 C 304.242188 82.792969 305.402344 82.589844 306.636719 82.179688 C 307.867188 81.765625 308.957031 81.011719 309.875 79.984375 C 310.433594 79.34375 310.820312 78.617188 311.035156 77.796875 C 311.242188 76.96875 311.382812 75.980469 311.382812 74.8125 L 311.382812 73.375 C 310.347656 73.125 309.296875 72.929688 308.238281 72.796875 C 307.175781 72.660156 306.105469 72.589844 305.03125 72.585938 C 302.742188 72.585938 301.074219 73.035156 299.945312 73.957031 C 298.8125 74.882812 298.273438 76.183594 298.273438 77.898438 C 298.273438 79.503906 298.679688 80.703125 299.53125 81.53125 C 300.355469 82.382812 301.546875 82.792969 303.121094 82.792969 Z M 330.535156 86.496094 C 329.917969 86.496094 329.507812 86.394531 329.238281 86.148438 C 328.964844 85.945312 328.726562 85.46875 328.519531 84.816406 L 320.5 58.335938 C 320.34375 57.890625 320.242188 57.433594 320.191406 56.960938 C 320.191406 56.417969 320.460938 56.109375 321.007812 56.109375 L 324.355469 56.109375 C 325 56.109375 325.449219 56.210938 325.683594 56.449219 C 325.960938 56.65625 326.167969 57.136719 326.371094 57.785156 L 332.109375 80.464844 L 337.433594 57.785156 C 337.601562 57.105469 337.804688 56.65625 338.082031 56.449219 C 338.5 56.191406 338.957031 56.078125 339.449219 56.109375 L 342.179688 56.109375 C 342.824219 56.109375 343.273438 56.210938 343.542969 56.449219 C 343.816406 56.65625 344.054688 57.136719 344.195312 57.785156 L 349.585938 80.742188 L 355.488281 57.785156 C 355.597656 57.277344 355.828125 56.832031 356.175781 56.449219 C 356.582031 56.191406 357.027344 56.078125 357.507812 56.109375 L 360.683594 56.109375 C 361.230469 56.109375 361.539062 56.386719 361.539062 56.960938 C 361.539062 57.136719 361.5 57.308594 361.472656 57.515625 C 361.417969 57.804688 361.335938 58.089844 361.230469 58.367188 L 353 84.847656 C 352.800781 85.535156 352.554688 85.984375 352.285156 86.1875 C 351.890625 86.441406 351.453125 86.554688 350.984375 86.527344 L 348.050781 86.527344 C 347.402344 86.527344 346.960938 86.425781 346.683594 86.1875 C 346.410156 85.945312 346.171875 85.5 346.035156 84.816406 L 340.742188 62.722656 L 335.480469 84.789062 C 335.316406 85.476562 335.109375 85.917969 334.839844 86.15625 C 334.566406 86.398438 334.082031 86.503906 333.472656 86.503906 L 330.535156 86.503906 Z M 374.410156 87.417969 C 372.632812 87.421875 370.878906 87.21875 369.148438 86.804688 C 367.441406 86.394531 366.113281 85.945312 365.222656 85.429688 C 364.675781 85.121094 364.304688 84.78125 364.164062 84.46875 C 364.03125 84.164062 363.964844 83.84375 363.964844 83.511719 L 363.964844 81.765625 C 363.964844 81.046875 364.234375 80.703125 364.746094 80.703125 C 364.957031 80.703125 365.164062 80.738281 365.363281 80.804688 C 365.566406 80.875 365.875 81.011719 366.214844 81.152344 C 367.371094 81.664062 368.640625 82.074219 369.96875 82.351562 C 371.335938 82.621094 372.664062 82.761719 374.03125 82.761719 C 376.1875 82.761719 377.855469 82.382812 379.015625 81.632812 C 379.582031 81.289062 380.027344 80.824219 380.34375 80.242188 C 380.664062 79.660156 380.8125 79.035156 380.792969 78.371094 C 380.816406 77.445312 380.507812 76.648438 379.871094 75.980469 C 379.257812 75.324219 378.097656 74.742188 376.421875 74.195312 L 371.46875 72.65625 C 368.980469 71.867188 367.132812 70.699219 366.011719 69.160156 C 364.878906 67.695312 364.3125 66.042969 364.304688 64.195312 C 364.304688 62.757812 364.613281 61.484375 365.222656 60.386719 C 365.835938 59.296875 366.660156 58.335938 367.683594 57.578125 C 368.710938 56.796875 369.867188 56.210938 371.234375 55.800781 C 372.601562 55.390625 374.03125 55.21875 375.53125 55.21875 C 376.289062 55.21875 377.070312 55.25 377.824219 55.351562 C 378.605469 55.453125 379.324219 55.597656 380.042969 55.738281 C 380.722656 55.902344 381.378906 56.070312 381.988281 56.28125 C 382.601562 56.488281 383.078125 56.691406 383.421875 56.898438 C 383.832031 57.101562 384.175781 57.386719 384.449219 57.75 C 384.675781 58.09375 384.777344 58.472656 384.753906 58.878906 L 384.753906 60.492188 C 384.753906 61.210938 384.484375 61.589844 383.96875 61.589844 C 383.511719 61.535156 383.078125 61.398438 382.671875 61.179688 C 380.585938 60.253906 378.398438 59.808594 376.117188 59.84375 C 374.171875 59.84375 372.632812 60.152344 371.574219 60.804688 C 370.515625 61.445312 369.96875 62.449219 369.96875 63.851562 C 369.96875 64.808594 370.308594 65.628906 370.996094 66.285156 C 371.675781 66.933594 372.941406 67.582031 374.75 68.164062 L 379.601562 69.703125 C 382.058594 70.492188 383.835938 71.589844 384.894531 72.996094 C 385.953125 74.402344 386.457031 76.011719 386.457031 77.796875 C 386.457031 79.269531 386.15625 80.597656 385.574219 81.765625 C 384.960938 82.953125 384.132812 83.957031 383.082031 84.78125 C 382.023438 85.636719 380.761719 86.257812 379.292969 86.703125 C 377.753906 87.183594 376.148438 87.417969 374.410156 87.417969 Z M 374.410156 87.417969 " fill-opacity="1" fill-rule="nonzero"/><g clip-path="url(#3b6b0e5e64)"><path fill="#000000" d="M 380.855469 104.003906 C 369.628906 112.324219 353.304688 116.746094 339.273438 116.746094 C 319.609375 116.746094 301.886719 109.449219 288.503906 97.324219 C 287.445312 96.363281 288.402344 95.058594 289.660156 95.816406 C 304.140625 104.242188 321.996094 109.347656 340.472656 109.347656 C 352.929688 109.347656 366.621094 106.742188 379.222656 101.398438 C 381.101562 100.542969 382.707031 102.628906 380.855469 104.003906 Z M 380.855469 104.003906 " fill-opacity="1" fill-rule="evenodd"/></g><g clip-path="url(#d03c6ee4d0)"><path fill="#000000" d="M 385.535156 98.660156 C 384.105469 96.816406 376.046875 97.773438 372.394531 98.214844 C 371.304688 98.355469 371.128906 97.394531 372.117188 96.675781 C 378.535156 92.152344 389.089844 93.453125 390.316406 94.960938 C 391.546875 96.503906 389.976562 107.089844 383.960938 112.15625 C 383.046875 112.949219 382.160156 112.542969 382.570312 111.515625 C 383.929688 108.117188 386.972656 100.480469 385.535156 98.664062 Z M 385.535156 98.660156 " fill-opacity="1" fill-rule="evenodd"/></g><g transform="matrix(1, 0, 0, 1, 35, 119)"><g clip-path="url(#f9ae74122e)"><g fill="#000000" fill-opacity="1"><g transform="translate(1.944584, 70.936253)"><g><path d="M 28.484375 0.921875 C 20.421875 0.921875 14.289062 -1.210938 10.09375 -5.484375 C 5.894531 -9.753906 3.796875 -15.988281 3.796875 -24.1875 C 3.796875 -32.25 5.988281 -38.503906 10.375 -42.953125 C 14.757812 -47.410156 20.863281 -49.640625 28.6875 -49.640625 C 32.4375 -49.640625 35.953125 -49.148438 39.234375 -48.171875 C 39.984375 -47.929688 40.488281 -47.613281 40.75 -47.21875 C 41.007812 -46.820312 41.140625 -46.175781 41.140625 -45.28125 L 41.140625 -39.375 C 41.140625 -38.113281 40.644531 -37.484375 39.65625 -37.484375 C 39.425781 -37.484375 38.84375 -37.597656 37.90625 -37.828125 C 35.601562 -38.347656 33.304688 -38.609375 31.015625 -38.609375 C 26.703125 -38.609375 23.441406 -37.46875 21.234375 -35.1875 C 19.035156 -32.914062 17.9375 -29.554688 17.9375 -25.109375 L 17.9375 -23.5625 C 17.9375 -19.195312 19 -15.863281 21.125 -13.5625 C 23.257812 -11.269531 26.414062 -10.125 30.59375 -10.125 C 33.5 -10.125 36.21875 -10.429688 38.75 -11.046875 C 39.5 -11.234375 40.035156 -11.328125 40.359375 -11.328125 C 41.347656 -11.328125 41.84375 -10.691406 41.84375 -9.421875 L 41.84375 -3.515625 C 41.84375 -2.628906 41.710938 -1.984375 41.453125 -1.578125 C 41.191406 -1.179688 40.6875 -0.867188 39.9375 -0.640625 C 36.75 0.398438 32.929688 0.921875 28.484375 0.921875 Z M 28.484375 0.921875 "/></g></g></g><g fill="#000000" fill-opacity="1"><g transform="translate(43.637392, 70.936253)"><g><path d="M 28.34375 -9.5625 C 31.90625 -9.5625 34.585938 -10.800781 36.390625 -13.28125 C 38.191406 -15.769531 39.09375 -19.429688 39.09375 -24.265625 C 39.09375 -29.179688 38.175781 -32.894531 36.34375 -35.40625 C 34.519531 -37.914062 31.851562 -39.171875 28.34375 -39.171875 C 24.820312 -39.171875 22.160156 -37.925781 20.359375 -35.4375 C 18.554688 -32.957031 17.65625 -29.300781 17.65625 -24.46875 C 17.65625 -19.59375 18.554688 -15.890625 20.359375 -13.359375 C 22.160156 -10.828125 24.820312 -9.5625 28.34375 -9.5625 Z M 28.34375 1.203125 C 23.226562 1.203125 18.816406 0.132812 15.109375 -2 C 11.410156 -4.132812 8.597656 -7.125 6.671875 -10.96875 C 4.753906 -14.8125 3.796875 -19.3125 3.796875 -24.46875 C 3.796875 -29.769531 4.800781 -34.328125 6.8125 -38.140625 C 8.832031 -41.960938 11.679688 -44.878906 15.359375 -46.890625 C 19.046875 -48.910156 23.375 -49.921875 28.34375 -49.921875 C 33.445312 -49.921875 37.847656 -48.863281 41.546875 -46.75 C 45.253906 -44.644531 48.082031 -41.671875 50.03125 -37.828125 C 51.976562 -33.984375 52.953125 -29.460938 52.953125 -24.265625 C 52.953125 -18.960938 51.941406 -14.390625 49.921875 -10.546875 C 47.910156 -6.703125 45.050781 -3.78125 41.34375 -1.78125 C 37.644531 0.207031 33.3125 1.203125 28.34375 1.203125 Z M 28.34375 1.203125 "/></g></g></g><g fill="#000000" fill-opacity="1"><g transform="translate(100.376186, 70.936253)"><g><path d="M 7.3125 0 C 6.5625 0 6.019531 -0.160156 5.6875 -0.484375 C 5.363281 -0.816406 5.203125 -1.359375 5.203125 -2.109375 L 5.203125 -46.625 C 5.203125 -47.414062 5.363281 -47.960938 5.6875 -48.265625 C 6.019531 -48.578125 6.5625 -48.734375 7.3125 -48.734375 L 17.859375 -48.734375 C 18.515625 -48.734375 19.019531 -48.625 19.375 -48.40625 C 19.726562 -48.195312 20.066406 -47.742188 20.390625 -47.046875 L 31.4375 -22.296875 L 42.609375 -47.046875 C 42.941406 -47.742188 43.28125 -48.195312 43.625 -48.40625 C 43.976562 -48.625 44.484375 -48.734375 45.140625 -48.734375 L 55.203125 -48.734375 C 55.992188 -48.734375 56.539062 -48.578125 56.84375 -48.265625 C 57.15625 -47.960938 57.3125 -47.414062 57.3125 -46.625 L 57.3125 -2.109375 C 57.3125 -1.359375 57.15625 -0.816406 56.84375 -0.484375 C 56.539062 -0.160156 55.992188 0 55.203125 0 L 47.75 0 C 47 0 46.457031 -0.160156 46.125 -0.484375 C 45.800781 -0.816406 45.640625 -1.359375 45.640625 -2.109375 L 45.640625 -30.09375 L 37.96875 -12.796875 C 37.644531 -12.097656 37.304688 -11.640625 36.953125 -11.421875 C 36.597656 -11.210938 36.09375 -11.109375 35.4375 -11.109375 L 27.078125 -11.109375 C 26.421875 -11.109375 25.914062 -11.210938 25.5625 -11.421875 C 25.207031 -11.640625 24.867188 -12.097656 24.546875 -12.796875 L 16.875 -30.09375 L 16.875 -2.109375 C 16.875 -1.359375 16.722656 -0.816406 16.421875 -0.484375 C 16.117188 -0.160156 15.566406 0 14.765625 0 Z M 7.3125 0 "/></g></g></g><g fill="#000000" fill-opacity="1"><g transform="translate(162.880229, 70.936253)"><g><path d="M 7.3125 0 C 6.5625 0 6.019531 -0.160156 5.6875 -0.484375 C 5.363281 -0.816406 5.203125 -1.359375 5.203125 -2.109375 L 5.203125 -46.625 C 5.203125 -47.414062 5.363281 -47.960938 5.6875 -48.265625 C 6.019531 -48.578125 6.5625 -48.734375 7.3125 -48.734375 L 17.859375 -48.734375 C 18.515625 -48.734375 19.019531 -48.625 19.375 -48.40625 C 19.726562 -48.195312 20.066406 -47.742188 20.390625 -47.046875 L 31.4375 -22.296875 L 42.609375 -47.046875 C 42.941406 -47.742188 43.28125 -48.195312 43.625 -48.40625 C 43.976562 -48.625 44.484375 -48.734375 45.140625 -48.734375 L 55.203125 -48.734375 C 55.992188 -48.734375 56.539062 -48.578125 56.84375 -48.265625 C 57.15625 -47.960938 57.3125 -47.414062 57.3125 -46.625 L 57.3125 -2.109375 C 57.3125 -1.359375 57.15625 -0.816406 56.84375 -0.484375 C 56.539062 -0.160156 55.992188 0 55.203125 0 L 47.75 0 C 47 0 46.457031 -0.160156 46.125 -0.484375 C 45.800781 -0.816406 45.640625 -1.359375 45.640625 -2.109375 L 45.640625 -30.09375 L 37.96875 -12.796875 C 37.644531 -12.097656 37.304688 -11.640625 36.953125 -11.421875 C 36.597656 -11.210938 36.09375 -11.109375 35.4375 -11.109375 L 27.078125 -11.109375 C 26.421875 -11.109375 25.914062 -11.210938 25.5625 -11.421875 C 25.207031 -11.640625 24.867188 -12.097656 24.546875 -12.796875 L 16.875 -30.09375 L 16.875 -2.109375 C 16.875 -1.359375 16.722656 -0.816406 16.421875 -0.484375 C 16.117188 -0.160156 15.566406 0 14.765625 0 Z M 7.3125 0 "/></g></g></g><g fill="#000000" fill-opacity="1"><g transform="translate(225.384273, 70.936253)"><g><path d="M 26.234375 1.203125 C 19.484375 1.203125 14.242188 -0.445312 10.515625 -3.75 C 6.785156 -7.0625 4.921875 -11.765625 4.921875 -17.859375 L 4.921875 -46.625 C 4.921875 -47.414062 5.082031 -47.960938 5.40625 -48.265625 C 5.738281 -48.578125 6.28125 -48.734375 7.03125 -48.734375 L 16.390625 -48.734375 C 17.179688 -48.734375 17.726562 -48.578125 18.03125 -48.265625 C 18.34375 -47.960938 18.5 -47.414062 18.5 -46.625 L 18.5 -17.4375 C 18.5 -14.863281 19.15625 -12.90625 20.46875 -11.5625 C 21.78125 -10.226562 23.703125 -9.5625 26.234375 -9.5625 C 31.429688 -9.5625 34.03125 -12.1875 34.03125 -17.4375 L 34.03125 -46.625 C 34.03125 -47.414062 34.191406 -47.960938 34.515625 -48.265625 C 34.847656 -48.578125 35.390625 -48.734375 36.140625 -48.734375 L 45.5 -48.734375 C 46.289062 -48.734375 46.835938 -48.578125 47.140625 -48.265625 C 47.453125 -47.960938 47.609375 -47.414062 47.609375 -46.625 L 47.609375 -17.796875 C 47.609375 -11.742188 45.734375 -7.0625 41.984375 -3.75 C 38.234375 -0.445312 32.984375 1.203125 26.234375 1.203125 Z M 26.234375 1.203125 "/></g></g></g><g fill="#000000" fill-opacity="1"><g transform="translate(277.90455, 70.936253)"><g><path d="M 7.3125 0 C 6.5625 0 6.019531 -0.160156 5.6875 -0.484375 C 5.363281 -0.816406 5.203125 -1.359375 5.203125 -2.109375 L 5.203125 -46.625 C 5.203125 -47.414062 5.363281 -47.960938 5.6875 -48.265625 C 6.019531 -48.578125 6.5625 -48.734375 7.3125 -48.734375 L 17.234375 -48.734375 C 18.023438 -48.734375 18.617188 -48.613281 19.015625 -48.375 C 19.421875 -48.144531 19.785156 -47.75 20.109375 -47.1875 L 36.359375 -17.9375 L 36.359375 -46.625 C 36.359375 -47.414062 36.519531 -47.960938 36.84375 -48.265625 C 37.175781 -48.578125 37.71875 -48.734375 38.46875 -48.734375 L 45.921875 -48.734375 C 46.710938 -48.734375 47.257812 -48.578125 47.5625 -48.265625 C 47.875 -47.960938 48.03125 -47.414062 48.03125 -46.625 L 48.03125 -2.109375 C 48.03125 -1.359375 47.875 -0.816406 47.5625 -0.484375 C 47.257812 -0.160156 46.710938 0 45.921875 0 L 36 0 C 35.207031 0 34.609375 -0.113281 34.203125 -0.34375 C 33.804688 -0.582031 33.445312 -0.984375 33.125 -1.546875 L 16.875 -30.515625 L 16.875 -2.109375 C 16.875 -1.359375 16.722656 -0.816406 16.421875 -0.484375 C 16.117188 -0.160156 15.566406 0 14.765625 0 Z M 7.3125 0 "/></g></g></g><g fill="#000000" fill-opacity="1"><g transform="translate(331.127925, 70.936253)"><g><path d="M 7.59375 0 C 6.84375 0 6.300781 -0.160156 5.96875 -0.484375 C 5.644531 -0.816406 5.484375 -1.359375 5.484375 -2.109375 L 5.484375 -46.625 C 5.484375 -47.414062 5.644531 -47.960938 5.96875 -48.265625 C 6.300781 -48.578125 6.84375 -48.734375 7.59375 -48.734375 L 16.953125 -48.734375 C 17.742188 -48.734375 18.289062 -48.578125 18.59375 -48.265625 C 18.90625 -47.960938 19.0625 -47.414062 19.0625 -46.625 L 19.0625 -2.109375 C 19.0625 -1.359375 18.90625 -0.816406 18.59375 -0.484375 C 18.289062 -0.160156 17.742188 0 16.953125 0 Z M 7.59375 0 "/></g></g></g><g fill="#000000" fill-opacity="1"><g transform="translate(355.665523, 70.936253)"><g><path d="M 16.875 0 C 16.125 0 15.582031 -0.160156 15.25 -0.484375 C 14.925781 -0.816406 14.765625 -1.359375 14.765625 -2.109375 L 14.765625 -38.109375 L 2.75 -38.109375 C 2 -38.109375 1.457031 -38.269531 1.125 -38.59375 C 0.800781 -38.925781 0.640625 -39.46875 0.640625 -40.21875 L 0.640625 -46.625 C 0.640625 -47.414062 0.800781 -47.960938 1.125 -48.265625 C 1.457031 -48.578125 2 -48.734375 2.75 -48.734375 L 40.359375 -48.734375 C 41.160156 -48.734375 41.710938 -48.578125 42.015625 -48.265625 C 42.316406 -47.960938 42.46875 -47.414062 42.46875 -46.625 L 42.46875 -40.21875 C 42.46875 -39.46875 42.316406 -38.925781 42.015625 -38.59375 C 41.710938 -38.269531 41.160156 -38.109375 40.359375 -38.109375 L 28.34375 -38.109375 L 28.34375 -2.109375 C 28.34375 -1.359375 28.1875 -0.816406 27.875 -0.484375 C 27.570312 -0.160156 27.023438 0 26.234375 0 Z M 16.875 0 "/></g></g></g><g fill="#000000" fill-opacity="1"><g transform="translate(401.57678, 70.936253)"><g><path d="M 18.640625 0 C 17.890625 0 17.347656 -0.160156 17.015625 -0.484375 C 16.691406 -0.816406 16.53125 -1.359375 16.53125 -2.109375 L 16.53125 -18.359375 L 1.828125 -45.21875 C 1.265625 -46.195312 0.984375 -46.898438 0.984375 -47.328125 C 0.984375 -48.265625 1.59375 -48.734375 2.8125 -48.734375 L 12.796875 -48.734375 C 13.546875 -48.734375 14.144531 -48.59375 14.59375 -48.3125 C 15.039062 -48.03125 15.40625 -47.5625 15.6875 -46.90625 L 23.703125 -28.0625 L 31.859375 -46.90625 C 32.140625 -47.5625 32.5 -48.03125 32.9375 -48.3125 C 33.382812 -48.59375 33.984375 -48.734375 34.734375 -48.734375 L 44.015625 -48.734375 C 45.234375 -48.734375 45.84375 -48.265625 45.84375 -47.328125 C 45.84375 -46.898438 45.5625 -46.195312 45 -45.21875 L 30.09375 -18.21875 L 30.09375 -2.109375 C 30.09375 -1.359375 29.941406 -0.816406 29.640625 -0.484375 C 29.335938 -0.160156 28.785156 0 27.984375 0 Z M 18.640625 0 "/></g></g></g><g fill="#000000" fill-opacity="1"><g transform="translate(448.402077, 70.936253)"><g/></g></g><g fill="#000000" fill-opacity="1"><g transform="translate(465.838499, 70.936253)"><g><path d="M 7.3125 0 C 6.5625 0 6.019531 -0.160156 5.6875 -0.484375 C 5.363281 -0.816406 5.203125 -1.359375 5.203125 -2.109375 L 5.203125 -46.625 C 5.203125 -47.414062 5.363281 -47.960938 5.6875 -48.265625 C 6.019531 -48.578125 6.5625 -48.734375 7.3125 -48.734375 L 24.265625 -48.734375 C 31.765625 -48.734375 37.578125 -46.625 41.703125 -42.40625 C 45.828125 -38.1875 47.890625 -32.1875 47.890625 -24.40625 C 47.890625 -19.289062 46.972656 -14.894531 45.140625 -11.21875 C 43.316406 -7.539062 40.703125 -4.75 37.296875 -2.84375 C 33.898438 -0.945312 29.835938 0 25.109375 0 Z M 18.78125 -10.40625 L 23.421875 -10.40625 C 30.492188 -10.40625 34.03125 -14.859375 34.03125 -23.765625 L 34.03125 -25.03125 C 34.03125 -33.894531 30.539062 -38.328125 23.5625 -38.328125 L 18.78125 -38.328125 Z M 18.78125 -10.40625 "/></g></g></g><g fill="#000000" fill-opacity="1"><g transform="translate(515.405849, 70.936253)"><g><path d="M 29.53125 -18.984375 L 24.46875 -37.0625 L 19.546875 -18.984375 Z M 2.46875 0 C 1.25 0 0.640625 -0.46875 0.640625 -1.40625 C 0.640625 -1.78125 0.828125 -2.484375 1.203125 -3.515625 L 16.734375 -47.046875 C 16.972656 -47.703125 17.253906 -48.144531 17.578125 -48.375 C 17.910156 -48.613281 18.453125 -48.734375 19.203125 -48.734375 L 30.453125 -48.734375 C 31.203125 -48.734375 31.738281 -48.613281 32.0625 -48.375 C 32.394531 -48.144531 32.675781 -47.703125 32.90625 -47.046875 L 48.515625 -3.515625 C 48.890625 -2.484375 49.078125 -1.78125 49.078125 -1.40625 C 49.078125 -0.46875 48.46875 0 47.25 0 L 36.703125 0 C 35.953125 0 35.398438 -0.140625 35.046875 -0.421875 C 34.703125 -0.703125 34.410156 -1.265625 34.171875 -2.109375 L 32.0625 -9.421875 L 17.015625 -9.421875 L 14.984375 -2.109375 C 14.742188 -1.265625 14.445312 -0.703125 14.09375 -0.421875 C 13.75 -0.140625 13.203125 0 12.453125 0 Z M 2.46875 0 "/></g></g></g><g fill="#000000" fill-opacity="1"><g transform="translate(560.192258, 70.936253)"><g><path d="M 18.640625 0 C 17.890625 0 17.347656 -0.160156 17.015625 -0.484375 C 16.691406 -0.816406 16.53125 -1.359375 16.53125 -2.109375 L 16.53125 -18.359375 L 1.828125 -45.21875 C 1.265625 -46.195312 0.984375 -46.898438 0.984375 -47.328125 C 0.984375 -48.265625 1.59375 -48.734375 2.8125 -48.734375 L 12.796875 -48.734375 C 13.546875 -48.734375 14.144531 -48.59375 14.59375 -48.3125 C 15.039062 -48.03125 15.40625 -47.5625 15.6875 -46.90625 L 23.703125 -28.0625 L 31.859375 -46.90625 C 32.140625 -47.5625 32.5 -48.03125 32.9375 -48.3125 C 33.382812 -48.59375 33.984375 -48.734375 34.734375 -48.734375 L 44.015625 -48.734375 C 45.234375 -48.734375 45.84375 -48.265625 45.84375 -47.328125 C 45.84375 -46.898438 45.5625 -46.195312 45 -45.21875 L 30.09375 -18.21875 L 30.09375 -2.109375 C 30.09375 -1.359375 29.941406 -0.816406 29.640625 -0.484375 C 29.335938 -0.160156 28.785156 0 27.984375 0 Z M 18.640625 0 "/></g></g></g></g></g><g transform="matrix(1, 0, 0, 1, 278, 194)"><g clip-path="url(#f6deef5c1a)"><g fill="#ff9900" fill-opacity="1"><g transform="translate(1.25454, 26.073187)"><g><path d="M 10.65625 -3.59375 C 11.988281 -3.59375 12.992188 -4.054688 13.671875 -4.984375 C 14.359375 -5.921875 14.703125 -7.300781 14.703125 -9.125 C 14.703125 -10.96875 14.359375 -12.359375 13.671875 -13.296875 C 12.984375 -14.242188 11.976562 -14.71875 10.65625 -14.71875 C 9.332031 -14.71875 8.332031 -14.25 7.65625 -13.3125 C 6.976562 -12.382812 6.640625 -11.015625 6.640625 -9.203125 C 6.640625 -7.367188 6.976562 -5.972656 7.65625 -5.015625 C 8.332031 -4.066406 9.332031 -3.59375 10.65625 -3.59375 Z M 10.65625 0.453125 C 8.726562 0.453125 7.066406 0.0507812 5.671875 -0.75 C 4.285156 -1.550781 3.226562 -2.675781 2.5 -4.125 C 1.78125 -5.570312 1.421875 -7.265625 1.421875 -9.203125 C 1.421875 -11.191406 1.800781 -12.90625 2.5625 -14.34375 C 3.320312 -15.78125 4.394531 -16.875 5.78125 -17.625 C 7.164062 -18.382812 8.789062 -18.765625 10.65625 -18.765625 C 12.570312 -18.765625 14.226562 -18.367188 15.625 -17.578125 C 17.019531 -16.785156 18.082031 -15.664062 18.8125 -14.21875 C 19.539062 -12.78125 19.90625 -11.082031 19.90625 -9.125 C 19.90625 -7.132812 19.523438 -5.414062 18.765625 -3.96875 C 18.015625 -2.519531 16.941406 -1.421875 15.546875 -0.671875 C 14.148438 0.078125 12.519531 0.453125 10.65625 0.453125 Z M 10.65625 0.453125 "/></g></g></g><g fill="#ff9900" fill-opacity="1"><g transform="translate(22.583143, 26.073187)"><g><path d="M 10.703125 0.34375 C 7.671875 0.34375 5.363281 -0.457031 3.78125 -2.0625 C 2.207031 -3.664062 1.421875 -6.007812 1.421875 -9.09375 C 1.421875 -12.125 2.242188 -14.476562 3.890625 -16.15625 C 5.546875 -17.832031 7.84375 -18.671875 10.78125 -18.671875 C 12.195312 -18.671875 13.519531 -18.484375 14.75 -18.109375 C 15.03125 -18.023438 15.21875 -17.90625 15.3125 -17.75 C 15.414062 -17.601562 15.46875 -17.363281 15.46875 -17.03125 L 15.46875 -14.8125 C 15.46875 -14.332031 15.28125 -14.09375 14.90625 -14.09375 C 14.820312 -14.09375 14.601562 -14.132812 14.25 -14.21875 C 13.382812 -14.414062 12.519531 -14.515625 11.65625 -14.515625 C 10.039062 -14.515625 8.816406 -14.085938 7.984375 -13.234375 C 7.148438 -12.378906 6.734375 -11.113281 6.734375 -9.4375 L 6.734375 -8.859375 C 6.734375 -7.210938 7.132812 -5.957031 7.9375 -5.09375 C 8.738281 -4.238281 9.925781 -3.8125 11.5 -3.8125 C 12.59375 -3.8125 13.613281 -3.925781 14.5625 -4.15625 C 14.84375 -4.21875 15.046875 -4.25 15.171875 -4.25 C 15.546875 -4.25 15.734375 -4.015625 15.734375 -3.546875 L 15.734375 -1.328125 C 15.734375 -0.984375 15.679688 -0.738281 15.578125 -0.59375 C 15.484375 -0.445312 15.296875 -0.328125 15.015625 -0.234375 C 13.816406 0.148438 12.378906 0.34375 10.703125 0.34375 Z M 10.703125 0.34375 "/></g></g></g><g fill="#ff9900" fill-opacity="1"><g transform="translate(39.04872, 26.073187)"><g><path d="M 2.75 0 C 2.46875 0 2.265625 -0.0625 2.140625 -0.1875 C 2.015625 -0.3125 1.953125 -0.515625 1.953125 -0.796875 L 1.953125 -17.53125 C 1.953125 -17.832031 2.015625 -18.039062 2.140625 -18.15625 C 2.265625 -18.269531 2.46875 -18.328125 2.75 -18.328125 L 13.9375 -18.328125 C 14.226562 -18.328125 14.429688 -18.269531 14.546875 -18.15625 C 14.660156 -18.039062 14.71875 -17.832031 14.71875 -17.53125 L 14.71875 -15.25 C 14.71875 -14.96875 14.660156 -14.765625 14.546875 -14.640625 C 14.429688 -14.523438 14.226562 -14.46875 13.9375 -14.46875 L 6.921875 -14.46875 L 6.921875 -11.265625 L 12.484375 -11.265625 C 12.773438 -11.265625 12.976562 -11.207031 13.09375 -11.09375 C 13.207031 -10.976562 13.265625 -10.769531 13.265625 -10.46875 L 13.265625 -8.203125 C 13.265625 -7.910156 13.207031 -7.703125 13.09375 -7.578125 C 12.976562 -7.460938 12.773438 -7.40625 12.484375 -7.40625 L 6.921875 -7.40625 L 6.921875 -3.859375 L 13.984375 -3.859375 C 14.285156 -3.859375 14.492188 -3.800781 14.609375 -3.6875 C 14.722656 -3.570312 14.78125 -3.363281 14.78125 -3.0625 L 14.78125 -0.796875 C 14.78125 -0.515625 14.722656 -0.3125 14.609375 -0.1875 C 14.492188 -0.0625 14.285156 0 13.984375 0 Z M 2.75 0 "/></g></g></g><g fill="#ff9900" fill-opacity="1"><g transform="translate(55.117948, 26.073187)"><g><path d="M 11.109375 -7.140625 L 9.203125 -13.9375 L 7.34375 -7.140625 Z M 0.921875 0 C 0.460938 0 0.234375 -0.175781 0.234375 -0.53125 C 0.234375 -0.664062 0.304688 -0.929688 0.453125 -1.328125 L 6.296875 -17.6875 C 6.378906 -17.9375 6.484375 -18.101562 6.609375 -18.1875 C 6.734375 -18.28125 6.9375 -18.328125 7.21875 -18.328125 L 11.453125 -18.328125 C 11.734375 -18.328125 11.929688 -18.28125 12.046875 -18.1875 C 12.171875 -18.101562 12.28125 -17.9375 12.375 -17.6875 L 18.234375 -1.328125 C 18.378906 -0.929688 18.453125 -0.664062 18.453125 -0.53125 C 18.453125 -0.175781 18.222656 0 17.765625 0 L 13.796875 0 C 13.515625 0 13.304688 -0.0507812 13.171875 -0.15625 C 13.046875 -0.257812 12.9375 -0.472656 12.84375 -0.796875 L 12.0625 -3.546875 L 6.390625 -3.546875 L 5.625 -0.796875 C 5.539062 -0.472656 5.429688 -0.257812 5.296875 -0.15625 C 5.171875 -0.0507812 4.960938 0 4.671875 0 Z M 0.921875 0 "/></g></g></g><g fill="#ff9900" fill-opacity="1"><g transform="translate(73.803602, 26.073187)"><g><path d="M 2.75 0 C 2.46875 0 2.265625 -0.0625 2.140625 -0.1875 C 2.015625 -0.3125 1.953125 -0.515625 1.953125 -0.796875 L 1.953125 -17.53125 C 1.953125 -17.832031 2.015625 -18.039062 2.140625 -18.15625 C 2.265625 -18.269531 2.46875 -18.328125 2.75 -18.328125 L 6.484375 -18.328125 C 6.773438 -18.328125 6.992188 -18.28125 7.140625 -18.1875 C 7.296875 -18.101562 7.4375 -17.953125 7.5625 -17.734375 L 13.671875 -6.734375 L 13.671875 -17.53125 C 13.671875 -17.832031 13.726562 -18.039062 13.84375 -18.15625 C 13.96875 -18.269531 14.175781 -18.328125 14.46875 -18.328125 L 17.265625 -18.328125 C 17.566406 -18.328125 17.773438 -18.269531 17.890625 -18.15625 C 18.003906 -18.039062 18.0625 -17.832031 18.0625 -17.53125 L 18.0625 -0.796875 C 18.0625 -0.515625 18.003906 -0.3125 17.890625 -0.1875 C 17.773438 -0.0625 17.566406 0 17.265625 0 L 13.53125 0 C 13.238281 0 13.015625 -0.0390625 12.859375 -0.125 C 12.710938 -0.21875 12.578125 -0.367188 12.453125 -0.578125 L 6.34375 -11.46875 L 6.34375 -0.796875 C 6.34375 -0.515625 6.285156 -0.3125 6.171875 -0.1875 C 6.054688 -0.0625 5.847656 0 5.546875 0 Z M 2.75 0 "/></g></g></g><g fill="#ff9900" fill-opacity="1"><g transform="translate(93.81073, 26.073187)"><g><path d="M 2.859375 0 C 2.578125 0 2.375 -0.0625 2.25 -0.1875 C 2.125 -0.3125 2.0625 -0.515625 2.0625 -0.796875 L 2.0625 -17.53125 C 2.0625 -17.832031 2.125 -18.039062 2.25 -18.15625 C 2.375 -18.269531 2.578125 -18.328125 2.859375 -18.328125 L 6.375 -18.328125 C 6.675781 -18.328125 6.882812 -18.269531 7 -18.15625 C 7.113281 -18.039062 7.171875 -17.832031 7.171875 -17.53125 L 7.171875 -0.796875 C 7.171875 -0.515625 7.113281 -0.3125 7 -0.1875 C 6.882812 -0.0625 6.675781 0 6.375 0 Z M 2.859375 0 "/></g></g></g><g fill="#ff9900" fill-opacity="1"><g transform="translate(103.034628, 26.073187)"><g><path d="M 11.109375 -7.140625 L 9.203125 -13.9375 L 7.34375 -7.140625 Z M 0.921875 0 C 0.460938 0 0.234375 -0.175781 0.234375 -0.53125 C 0.234375 -0.664062 0.304688 -0.929688 0.453125 -1.328125 L 6.296875 -17.6875 C 6.378906 -17.9375 6.484375 -18.101562 6.609375 -18.1875 C 6.734375 -18.28125 6.9375 -18.328125 7.21875 -18.328125 L 11.453125 -18.328125 C 11.734375 -18.328125 11.929688 -18.28125 12.046875 -18.1875 C 12.171875 -18.101562 12.28125 -17.9375 12.375 -17.6875 L 18.234375 -1.328125 C 18.378906 -0.929688 18.453125 -0.664062 18.453125 -0.53125 C 18.453125 -0.175781 18.222656 0 17.765625 0 L 13.796875 0 C 13.515625 0 13.304688 -0.0507812 13.171875 -0.15625 C 13.046875 -0.257812 12.9375 -0.472656 12.84375 -0.796875 L 12.0625 -3.546875 L 6.390625 -3.546875 L 5.625 -0.796875 C 5.539062 -0.472656 5.429688 -0.257812 5.296875 -0.15625 C 5.171875 -0.0507812 4.960938 0 4.671875 0 Z M 0.921875 0 "/></g></g></g></g></g><path stroke-linecap="round" transform="matrix(0.749318, 0.00429682, -0.00429682, 0.749318, 92.119017, 210.341904)" fill="none" stroke-linejoin="miter" d="M 0.998976 0.997646 L 173.390139 0.999587 " stroke="#000000" stroke-width="2" stroke-opacity="1" stroke-miterlimit="4"/><path stroke-linecap="round" transform="matrix(0.749318, 0.00429682, -0.00429682, 0.749318, 456.214935, 210.716569)" fill="none" stroke-linejoin="miter" d="M 1.001299 0.99808 L 173.392462 1.000021 " stroke="#000000" stroke-width="2" stroke-opacity="1" stroke-miterlimit="4"/></svg>