<svg xmlns="http://www.w3.org/2000/svg" xmlns:xlink="http://www.w3.org/1999/xlink" width="906" zoomAndPan="magnify" viewBox="0 0 679.5 279.749983" height="373" preserveAspectRatio="xMidYMid meet" version="1.0"><defs><g/><clipPath id="1e6e2447ea"><path d="M 288.046875 95 L 382 95 L 382 118 L 288.046875 118 Z M 288.046875 95 " clip-rule="nonzero"/></clipPath><clipPath id="cf7f184f4b"><path d="M 371 93.359375 L 390.707031 93.359375 L 390.707031 113 L 371 113 Z M 371 93.359375 " clip-rule="nonzero"/></clipPath><clipPath id="b60a63660c"><rect x="0" width="617" y="0" height="89"/></clipPath><clipPath id="16952425a4"><rect x="0" width="123" y="0" height="33"/></clipPath></defs><path fill="#252f3e" d="M 317.054688 77.769531 C 317.054688 79.039062 317.183594 80.066406 317.425781 80.828125 C 317.695312 81.578125 318.042969 82.402344 318.519531 83.296875 C 318.675781 83.535156 318.753906 83.800781 318.757812 84.085938 C 318.757812 84.429688 318.550781 84.773438 318.113281 85.117188 L 315.953125 86.558594 C 315.6875 86.746094 315.394531 86.851562 315.066406 86.867188 C 314.71875 86.867188 314.378906 86.699219 314.039062 86.390625 C 313.574219 85.890625 313.164062 85.351562 312.804688 84.773438 C 312.421875 84.113281 312.070312 83.441406 311.746094 82.75 C 309.074219 85.90625 305.722656 87.488281 301.683594 87.488281 C 298.808594 87.488281 296.511719 86.660156 294.839844 85.011719 C 293.160156 83.367188 292.304688 81.167969 292.304688 78.421875 C 292.304688 75.5 293.335938 73.132812 295.417969 71.347656 C 297.507812 69.558594 300.28125 68.671875 303.804688 68.671875 C 304.960938 68.671875 306.164062 68.773438 307.433594 68.941406 C 308.699219 69.113281 310.003906 69.390625 311.367188 69.699219 L 311.367188 67.191406 C 311.367188 64.582031 310.820312 62.761719 309.761719 61.699219 C 308.667969 60.632812 306.816406 60.117188 304.179688 60.117188 C 302.980469 60.117188 301.753906 60.257812 300.488281 60.566406 C 299.226562 60.867188 297.992188 61.253906 296.789062 61.730469 C 296.398438 61.90625 296 62.058594 295.59375 62.179688 C 295.414062 62.238281 295.230469 62.273438 295.046875 62.285156 C 294.5625 62.285156 294.324219 61.9375 294.324219 61.214844 L 294.324219 59.53125 C 294.324219 58.984375 294.390625 58.566406 294.5625 58.335938 C 294.824219 58.015625 295.148438 57.773438 295.527344 57.609375 C 296.71875 56.992188 298.160156 56.476562 299.835938 56.066406 C 301.507812 55.613281 303.289062 55.414062 305.175781 55.414062 C 309.246094 55.414062 312.222656 56.339844 314.140625 58.195312 C 316.023438 60.046875 316.984375 62.863281 316.984375 66.644531 L 316.984375 77.769531 Z M 303.15625 82.988281 C 304.28125 82.988281 305.445312 82.78125 306.679688 82.371094 C 307.914062 81.957031 309.007812 81.199219 309.929688 80.171875 C 310.488281 79.53125 310.875 78.796875 311.09375 77.976562 C 311.296875 77.148438 311.4375 76.15625 311.4375 74.988281 L 311.4375 73.546875 C 310.398438 73.292969 309.347656 73.101562 308.289062 72.96875 C 307.21875 72.828125 306.148438 72.757812 305.070312 72.753906 C 302.777344 72.753906 301.105469 73.203125 299.972656 74.132812 C 298.839844 75.058594 298.300781 76.363281 298.300781 78.078125 C 298.300781 79.6875 298.703125 80.890625 299.558594 81.71875 C 300.382812 82.574219 301.578125 82.988281 303.15625 82.988281 Z M 330.636719 86.699219 C 330.019531 86.699219 329.609375 86.59375 329.339844 86.351562 C 329.0625 86.144531 328.824219 85.667969 328.617188 85.011719 L 320.578125 58.46875 C 320.421875 58.023438 320.320312 57.566406 320.269531 57.09375 C 320.269531 56.546875 320.539062 56.238281 321.085938 56.238281 L 324.445312 56.238281 C 325.085938 56.238281 325.539062 56.339844 325.773438 56.578125 C 326.050781 56.785156 326.257812 57.265625 326.464844 57.917969 L 332.214844 80.652344 L 337.550781 57.917969 C 337.71875 57.234375 337.925781 56.785156 338.199219 56.578125 C 338.621094 56.320312 339.078125 56.207031 339.570312 56.238281 L 342.308594 56.238281 C 342.953125 56.238281 343.402344 56.339844 343.675781 56.578125 C 343.949219 56.785156 344.1875 57.265625 344.328125 57.917969 L 349.734375 80.929688 L 355.648438 57.917969 C 355.761719 57.410156 355.992188 56.964844 356.335938 56.578125 C 356.746094 56.320312 357.191406 56.207031 357.675781 56.238281 L 360.859375 56.238281 C 361.40625 56.238281 361.714844 56.515625 361.714844 57.09375 C 361.714844 57.265625 361.675781 57.441406 361.648438 57.648438 C 361.59375 57.941406 361.511719 58.226562 361.40625 58.503906 L 353.152344 85.046875 C 352.953125 85.734375 352.710938 86.183594 352.441406 86.390625 C 352.042969 86.644531 351.605469 86.757812 351.132812 86.730469 L 348.195312 86.730469 C 347.546875 86.730469 347.101562 86.628906 346.824219 86.390625 C 346.550781 86.144531 346.3125 85.703125 346.175781 85.011719 L 340.871094 62.871094 L 335.597656 84.988281 C 335.429688 85.675781 335.222656 86.121094 334.953125 86.355469 C 334.675781 86.601562 334.195312 86.703125 333.582031 86.703125 L 330.636719 86.703125 Z M 374.617188 87.625 C 372.832031 87.625 371.074219 87.421875 369.34375 87.007812 C 367.632812 86.59375 366.300781 86.144531 365.40625 85.628906 C 364.859375 85.320312 364.488281 84.980469 364.34375 84.664062 C 364.214844 84.359375 364.148438 84.039062 364.144531 83.707031 L 364.144531 81.957031 C 364.144531 81.238281 364.414062 80.890625 364.929688 80.890625 C 365.140625 80.890625 365.347656 80.925781 365.546875 80.992188 C 365.753906 81.0625 366.0625 81.199219 366.402344 81.339844 C 367.5625 81.855469 368.835938 82.265625 370.164062 82.542969 C 371.535156 82.8125 372.867188 82.953125 374.238281 82.953125 C 376.398438 82.953125 378.070312 82.574219 379.234375 81.824219 C 379.804688 81.476562 380.246094 81.015625 380.566406 80.429688 C 380.882812 79.84375 381.035156 79.222656 381.015625 78.554688 C 381.039062 77.628906 380.730469 76.828125 380.089844 76.15625 C 379.476562 75.5 378.3125 74.914062 376.636719 74.367188 L 371.671875 72.824219 C 369.175781 72.035156 367.324219 70.863281 366.195312 69.320312 C 365.066406 67.855469 364.496094 66.195312 364.488281 64.34375 C 364.488281 62.902344 364.796875 61.628906 365.40625 60.527344 C 366.023438 59.433594 366.847656 58.46875 367.875 57.710938 C 368.90625 56.925781 370.0625 56.339844 371.433594 55.929688 C 372.800781 55.519531 374.238281 55.34375 375.742188 55.34375 C 376.5 55.34375 377.285156 55.375 378.039062 55.480469 C 378.820312 55.582031 379.542969 55.722656 380.261719 55.867188 C 380.945312 56.03125 381.601562 56.199219 382.210938 56.414062 C 382.828125 56.617188 383.304688 56.824219 383.652344 57.03125 C 384.0625 57.234375 384.40625 57.519531 384.679688 57.886719 C 384.90625 58.230469 385.007812 58.605469 384.984375 59.015625 L 384.984375 60.632812 C 384.984375 61.351562 384.714844 61.730469 384.199219 61.730469 C 383.738281 61.679688 383.304688 61.542969 382.898438 61.320312 C 380.808594 60.390625 378.617188 59.945312 376.328125 59.980469 C 374.378906 59.980469 372.835938 60.289062 371.773438 60.945312 C 370.710938 61.589844 370.164062 62.59375 370.164062 64 C 370.164062 64.960938 370.507812 65.78125 371.195312 66.4375 C 371.875 67.089844 373.144531 67.738281 374.957031 68.324219 L 379.820312 69.867188 C 382.28125 70.65625 384.0625 71.757812 385.125 73.167969 C 386.1875 74.574219 386.695312 76.1875 386.695312 77.976562 C 386.695312 79.457031 386.390625 80.789062 385.808594 81.957031 C 385.195312 83.148438 384.363281 84.152344 383.3125 84.980469 C 382.25 85.835938 380.984375 86.460938 379.511719 86.902344 C 377.96875 87.386719 376.359375 87.625 374.617188 87.625 Z M 374.617188 87.625 " fill-opacity="1" fill-rule="nonzero"/><g clip-path="url(#1e6e2447ea)"><path fill="#ff9900" d="M 381.078125 104.339844 C 369.824219 112.679688 353.460938 117.113281 339.398438 117.113281 C 319.683594 117.113281 301.921875 109.800781 288.503906 97.644531 C 287.441406 96.679688 288.402344 95.375 289.664062 96.132812 C 304.179688 104.578125 322.078125 109.695312 340.601562 109.695312 C 353.082031 109.695312 366.808594 107.085938 379.441406 101.726562 C 381.324219 100.871094 382.933594 102.960938 381.078125 104.339844 Z M 381.078125 104.339844 " fill-opacity="1" fill-rule="evenodd"/></g><g clip-path="url(#cf7f184f4b)"><path fill="#ff9900" d="M 385.769531 98.980469 C 384.335938 97.136719 376.257812 98.09375 372.597656 98.539062 C 371.503906 98.679688 371.328125 97.714844 372.320312 96.996094 C 378.75 92.460938 389.332031 93.765625 390.558594 95.277344 C 391.792969 96.820312 390.21875 107.433594 384.191406 112.511719 C 383.273438 113.304688 382.386719 112.898438 382.796875 111.871094 C 384.160156 108.460938 387.207031 100.808594 385.769531 98.988281 Z M 385.769531 98.980469 " fill-opacity="1" fill-rule="evenodd"/></g><g transform="matrix(1, 0, 0, 1, 35, 119)"><g clip-path="url(#b60a63660c)"><g fill="#252f3e" fill-opacity="1"><g transform="translate(1.944584, 70.936231)"><g><path d="M 28.484375 0.921875 C 20.421875 0.921875 14.289062 -1.210938 10.09375 -5.484375 C 5.894531 -9.753906 3.796875 -15.988281 3.796875 -24.1875 C 3.796875 -32.25 5.988281 -38.503906 10.375 -42.953125 C 14.757812 -47.410156 20.863281 -49.640625 28.6875 -49.640625 C 32.4375 -49.640625 35.953125 -49.148438 39.234375 -48.171875 C 39.984375 -47.929688 40.488281 -47.613281 40.75 -47.21875 C 41.007812 -46.820312 41.140625 -46.175781 41.140625 -45.28125 L 41.140625 -39.375 C 41.140625 -38.113281 40.644531 -37.484375 39.65625 -37.484375 C 39.425781 -37.484375 38.84375 -37.597656 37.90625 -37.828125 C 35.601562 -38.347656 33.304688 -38.609375 31.015625 -38.609375 C 26.703125 -38.609375 23.441406 -37.46875 21.234375 -35.1875 C 19.035156 -32.914062 17.9375 -29.554688 17.9375 -25.109375 L 17.9375 -23.5625 C 17.9375 -19.195312 19 -15.863281 21.125 -13.5625 C 23.257812 -11.269531 26.414062 -10.125 30.59375 -10.125 C 33.5 -10.125 36.21875 -10.429688 38.75 -11.046875 C 39.5 -11.234375 40.035156 -11.328125 40.359375 -11.328125 C 41.347656 -11.328125 41.84375 -10.691406 41.84375 -9.421875 L 41.84375 -3.515625 C 41.84375 -2.628906 41.710938 -1.984375 41.453125 -1.578125 C 41.191406 -1.179688 40.6875 -0.867188 39.9375 -0.640625 C 36.75 0.398438 32.929688 0.921875 28.484375 0.921875 Z M 28.484375 0.921875 "/></g></g></g><g fill="#252f3e" fill-opacity="1"><g transform="translate(43.637392, 70.936231)"><g><path d="M 28.34375 -9.5625 C 31.90625 -9.5625 34.585938 -10.800781 36.390625 -13.28125 C 38.191406 -15.769531 39.09375 -19.429688 39.09375 -24.265625 C 39.09375 -29.179688 38.175781 -32.894531 36.34375 -35.40625 C 34.519531 -37.914062 31.851562 -39.171875 28.34375 -39.171875 C 24.820312 -39.171875 22.160156 -37.925781 20.359375 -35.4375 C 18.554688 -32.957031 17.65625 -29.300781 17.65625 -24.46875 C 17.65625 -19.59375 18.554688 -15.890625 20.359375 -13.359375 C 22.160156 -10.828125 24.820312 -9.5625 28.34375 -9.5625 Z M 28.34375 1.203125 C 23.226562 1.203125 18.816406 0.132812 15.109375 -2 C 11.410156 -4.132812 8.597656 -7.125 6.671875 -10.96875 C 4.753906 -14.8125 3.796875 -19.3125 3.796875 -24.46875 C 3.796875 -29.769531 4.800781 -34.328125 6.8125 -38.140625 C 8.832031 -41.960938 11.679688 -44.878906 15.359375 -46.890625 C 19.046875 -48.910156 23.375 -49.921875 28.34375 -49.921875 C 33.445312 -49.921875 37.847656 -48.863281 41.546875 -46.75 C 45.253906 -44.644531 48.082031 -41.671875 50.03125 -37.828125 C 51.976562 -33.984375 52.953125 -29.460938 52.953125 -24.265625 C 52.953125 -18.960938 51.941406 -14.390625 49.921875 -10.546875 C 47.910156 -6.703125 45.050781 -3.78125 41.34375 -1.78125 C 37.644531 0.207031 33.3125 1.203125 28.34375 1.203125 Z M 28.34375 1.203125 "/></g></g></g><g fill="#252f3e" fill-opacity="1"><g transform="translate(100.376186, 70.936231)"><g><path d="M 7.3125 0 C 6.5625 0 6.019531 -0.160156 5.6875 -0.484375 C 5.363281 -0.816406 5.203125 -1.359375 5.203125 -2.109375 L 5.203125 -46.625 C 5.203125 -47.414062 5.363281 -47.960938 5.6875 -48.265625 C 6.019531 -48.578125 6.5625 -48.734375 7.3125 -48.734375 L 17.859375 -48.734375 C 18.515625 -48.734375 19.019531 -48.625 19.375 -48.40625 C 19.726562 -48.195312 20.066406 -47.742188 20.390625 -47.046875 L 31.4375 -22.296875 L 42.609375 -47.046875 C 42.941406 -47.742188 43.28125 -48.195312 43.625 -48.40625 C 43.976562 -48.625 44.484375 -48.734375 45.140625 -48.734375 L 55.203125 -48.734375 C 55.992188 -48.734375 56.539062 -48.578125 56.84375 -48.265625 C 57.15625 -47.960938 57.3125 -47.414062 57.3125 -46.625 L 57.3125 -2.109375 C 57.3125 -1.359375 57.15625 -0.816406 56.84375 -0.484375 C 56.539062 -0.160156 55.992188 0 55.203125 0 L 47.75 0 C 47 0 46.457031 -0.160156 46.125 -0.484375 C 45.800781 -0.816406 45.640625 -1.359375 45.640625 -2.109375 L 45.640625 -30.09375 L 37.96875 -12.796875 C 37.644531 -12.097656 37.304688 -11.640625 36.953125 -11.421875 C 36.597656 -11.210938 36.09375 -11.109375 35.4375 -11.109375 L 27.078125 -11.109375 C 26.421875 -11.109375 25.914062 -11.210938 25.5625 -11.421875 C 25.207031 -11.640625 24.867188 -12.097656 24.546875 -12.796875 L 16.875 -30.09375 L 16.875 -2.109375 C 16.875 -1.359375 16.722656 -0.816406 16.421875 -0.484375 C 16.117188 -0.160156 15.566406 0 14.765625 0 Z M 7.3125 0 "/></g></g></g><g fill="#252f3e" fill-opacity="1"><g transform="translate(162.880229, 70.936231)"><g><path d="M 7.3125 0 C 6.5625 0 6.019531 -0.160156 5.6875 -0.484375 C 5.363281 -0.816406 5.203125 -1.359375 5.203125 -2.109375 L 5.203125 -46.625 C 5.203125 -47.414062 5.363281 -47.960938 5.6875 -48.265625 C 6.019531 -48.578125 6.5625 -48.734375 7.3125 -48.734375 L 17.859375 -48.734375 C 18.515625 -48.734375 19.019531 -48.625 19.375 -48.40625 C 19.726562 -48.195312 20.066406 -47.742188 20.390625 -47.046875 L 31.4375 -22.296875 L 42.609375 -47.046875 C 42.941406 -47.742188 43.28125 -48.195312 43.625 -48.40625 C 43.976562 -48.625 44.484375 -48.734375 45.140625 -48.734375 L 55.203125 -48.734375 C 55.992188 -48.734375 56.539062 -48.578125 56.84375 -48.265625 C 57.15625 -47.960938 57.3125 -47.414062 57.3125 -46.625 L 57.3125 -2.109375 C 57.3125 -1.359375 57.15625 -0.816406 56.84375 -0.484375 C 56.539062 -0.160156 55.992188 0 55.203125 0 L 47.75 0 C 47 0 46.457031 -0.160156 46.125 -0.484375 C 45.800781 -0.816406 45.640625 -1.359375 45.640625 -2.109375 L 45.640625 -30.09375 L 37.96875 -12.796875 C 37.644531 -12.097656 37.304688 -11.640625 36.953125 -11.421875 C 36.597656 -11.210938 36.09375 -11.109375 35.4375 -11.109375 L 27.078125 -11.109375 C 26.421875 -11.109375 25.914062 -11.210938 25.5625 -11.421875 C 25.207031 -11.640625 24.867188 -12.097656 24.546875 -12.796875 L 16.875 -30.09375 L 16.875 -2.109375 C 16.875 -1.359375 16.722656 -0.816406 16.421875 -0.484375 C 16.117188 -0.160156 15.566406 0 14.765625 0 Z M 7.3125 0 "/></g></g></g><g fill="#252f3e" fill-opacity="1"><g transform="translate(225.384273, 70.936231)"><g><path d="M 26.234375 1.203125 C 19.484375 1.203125 14.242188 -0.445312 10.515625 -3.75 C 6.785156 -7.0625 4.921875 -11.765625 4.921875 -17.859375 L 4.921875 -46.625 C 4.921875 -47.414062 5.082031 -47.960938 5.40625 -48.265625 C 5.738281 -48.578125 6.28125 -48.734375 7.03125 -48.734375 L 16.390625 -48.734375 C 17.179688 -48.734375 17.726562 -48.578125 18.03125 -48.265625 C 18.34375 -47.960938 18.5 -47.414062 18.5 -46.625 L 18.5 -17.4375 C 18.5 -14.863281 19.15625 -12.90625 20.46875 -11.5625 C 21.78125 -10.226562 23.703125 -9.5625 26.234375 -9.5625 C 31.429688 -9.5625 34.03125 -12.1875 34.03125 -17.4375 L 34.03125 -46.625 C 34.03125 -47.414062 34.191406 -47.960938 34.515625 -48.265625 C 34.847656 -48.578125 35.390625 -48.734375 36.140625 -48.734375 L 45.5 -48.734375 C 46.289062 -48.734375 46.835938 -48.578125 47.140625 -48.265625 C 47.453125 -47.960938 47.609375 -47.414062 47.609375 -46.625 L 47.609375 -17.796875 C 47.609375 -11.742188 45.734375 -7.0625 41.984375 -3.75 C 38.234375 -0.445312 32.984375 1.203125 26.234375 1.203125 Z M 26.234375 1.203125 "/></g></g></g><g fill="#252f3e" fill-opacity="1"><g transform="translate(277.90455, 70.936231)"><g><path d="M 7.3125 0 C 6.5625 0 6.019531 -0.160156 5.6875 -0.484375 C 5.363281 -0.816406 5.203125 -1.359375 5.203125 -2.109375 L 5.203125 -46.625 C 5.203125 -47.414062 5.363281 -47.960938 5.6875 -48.265625 C 6.019531 -48.578125 6.5625 -48.734375 7.3125 -48.734375 L 17.234375 -48.734375 C 18.023438 -48.734375 18.617188 -48.613281 19.015625 -48.375 C 19.421875 -48.144531 19.785156 -47.75 20.109375 -47.1875 L 36.359375 -17.9375 L 36.359375 -46.625 C 36.359375 -47.414062 36.519531 -47.960938 36.84375 -48.265625 C 37.175781 -48.578125 37.71875 -48.734375 38.46875 -48.734375 L 45.921875 -48.734375 C 46.710938 -48.734375 47.257812 -48.578125 47.5625 -48.265625 C 47.875 -47.960938 48.03125 -47.414062 48.03125 -46.625 L 48.03125 -2.109375 C 48.03125 -1.359375 47.875 -0.816406 47.5625 -0.484375 C 47.257812 -0.160156 46.710938 0 45.921875 0 L 36 0 C 35.207031 0 34.609375 -0.113281 34.203125 -0.34375 C 33.804688 -0.582031 33.445312 -0.984375 33.125 -1.546875 L 16.875 -30.515625 L 16.875 -2.109375 C 16.875 -1.359375 16.722656 -0.816406 16.421875 -0.484375 C 16.117188 -0.160156 15.566406 0 14.765625 0 Z M 7.3125 0 "/></g></g></g><g fill="#252f3e" fill-opacity="1"><g transform="translate(331.127925, 70.936231)"><g><path d="M 7.59375 0 C 6.84375 0 6.300781 -0.160156 5.96875 -0.484375 C 5.644531 -0.816406 5.484375 -1.359375 5.484375 -2.109375 L 5.484375 -46.625 C 5.484375 -47.414062 5.644531 -47.960938 5.96875 -48.265625 C 6.300781 -48.578125 6.84375 -48.734375 7.59375 -48.734375 L 16.953125 -48.734375 C 17.742188 -48.734375 18.289062 -48.578125 18.59375 -48.265625 C 18.90625 -47.960938 19.0625 -47.414062 19.0625 -46.625 L 19.0625 -2.109375 C 19.0625 -1.359375 18.90625 -0.816406 18.59375 -0.484375 C 18.289062 -0.160156 17.742188 0 16.953125 0 Z M 7.59375 0 "/></g></g></g><g fill="#252f3e" fill-opacity="1"><g transform="translate(355.665523, 70.936231)"><g><path d="M 16.875 0 C 16.125 0 15.582031 -0.160156 15.25 -0.484375 C 14.925781 -0.816406 14.765625 -1.359375 14.765625 -2.109375 L 14.765625 -38.109375 L 2.75 -38.109375 C 2 -38.109375 1.457031 -38.269531 1.125 -38.59375 C 0.800781 -38.925781 0.640625 -39.46875 0.640625 -40.21875 L 0.640625 -46.625 C 0.640625 -47.414062 0.800781 -47.960938 1.125 -48.265625 C 1.457031 -48.578125 2 -48.734375 2.75 -48.734375 L 40.359375 -48.734375 C 41.160156 -48.734375 41.710938 -48.578125 42.015625 -48.265625 C 42.316406 -47.960938 42.46875 -47.414062 42.46875 -46.625 L 42.46875 -40.21875 C 42.46875 -39.46875 42.316406 -38.925781 42.015625 -38.59375 C 41.710938 -38.269531 41.160156 -38.109375 40.359375 -38.109375 L 28.34375 -38.109375 L 28.34375 -2.109375 C 28.34375 -1.359375 28.1875 -0.816406 27.875 -0.484375 C 27.570312 -0.160156 27.023438 0 26.234375 0 Z M 16.875 0 "/></g></g></g><g fill="#252f3e" fill-opacity="1"><g transform="translate(401.57678, 70.936231)"><g><path d="M 18.640625 0 C 17.890625 0 17.347656 -0.160156 17.015625 -0.484375 C 16.691406 -0.816406 16.53125 -1.359375 16.53125 -2.109375 L 16.53125 -18.359375 L 1.828125 -45.21875 C 1.265625 -46.195312 0.984375 -46.898438 0.984375 -47.328125 C 0.984375 -48.265625 1.59375 -48.734375 2.8125 -48.734375 L 12.796875 -48.734375 C 13.546875 -48.734375 14.144531 -48.59375 14.59375 -48.3125 C 15.039062 -48.03125 15.40625 -47.5625 15.6875 -46.90625 L 23.703125 -28.0625 L 31.859375 -46.90625 C 32.140625 -47.5625 32.5 -48.03125 32.9375 -48.3125 C 33.382812 -48.59375 33.984375 -48.734375 34.734375 -48.734375 L 44.015625 -48.734375 C 45.234375 -48.734375 45.84375 -48.265625 45.84375 -47.328125 C 45.84375 -46.898438 45.5625 -46.195312 45 -45.21875 L 30.09375 -18.21875 L 30.09375 -2.109375 C 30.09375 -1.359375 29.941406 -0.816406 29.640625 -0.484375 C 29.335938 -0.160156 28.785156 0 27.984375 0 Z M 18.640625 0 "/></g></g></g><g fill="#252f3e" fill-opacity="1"><g transform="translate(448.402077, 70.936231)"><g/></g></g><g fill="#252f3e" fill-opacity="1"><g transform="translate(465.838499, 70.936231)"><g><path d="M 7.3125 0 C 6.5625 0 6.019531 -0.160156 5.6875 -0.484375 C 5.363281 -0.816406 5.203125 -1.359375 5.203125 -2.109375 L 5.203125 -46.625 C 5.203125 -47.414062 5.363281 -47.960938 5.6875 -48.265625 C 6.019531 -48.578125 6.5625 -48.734375 7.3125 -48.734375 L 24.265625 -48.734375 C 31.765625 -48.734375 37.578125 -46.625 41.703125 -42.40625 C 45.828125 -38.1875 47.890625 -32.1875 47.890625 -24.40625 C 47.890625 -19.289062 46.972656 -14.894531 45.140625 -11.21875 C 43.316406 -7.539062 40.703125 -4.75 37.296875 -2.84375 C 33.898438 -0.945312 29.835938 0 25.109375 0 Z M 18.78125 -10.40625 L 23.421875 -10.40625 C 30.492188 -10.40625 34.03125 -14.859375 34.03125 -23.765625 L 34.03125 -25.03125 C 34.03125 -33.894531 30.539062 -38.328125 23.5625 -38.328125 L 18.78125 -38.328125 Z M 18.78125 -10.40625 "/></g></g></g><g fill="#252f3e" fill-opacity="1"><g transform="translate(515.405849, 70.936231)"><g><path d="M 29.53125 -18.984375 L 24.46875 -37.0625 L 19.546875 -18.984375 Z M 2.46875 0 C 1.25 0 0.640625 -0.46875 0.640625 -1.40625 C 0.640625 -1.78125 0.828125 -2.484375 1.203125 -3.515625 L 16.734375 -47.046875 C 16.972656 -47.703125 17.253906 -48.144531 17.578125 -48.375 C 17.910156 -48.613281 18.453125 -48.734375 19.203125 -48.734375 L 30.453125 -48.734375 C 31.203125 -48.734375 31.738281 -48.613281 32.0625 -48.375 C 32.394531 -48.144531 32.675781 -47.703125 32.90625 -47.046875 L 48.515625 -3.515625 C 48.890625 -2.484375 49.078125 -1.78125 49.078125 -1.40625 C 49.078125 -0.46875 48.46875 0 47.25 0 L 36.703125 0 C 35.953125 0 35.398438 -0.140625 35.046875 -0.421875 C 34.703125 -0.703125 34.410156 -1.265625 34.171875 -2.109375 L 32.0625 -9.421875 L 17.015625 -9.421875 L 14.984375 -2.109375 C 14.742188 -1.265625 14.445312 -0.703125 14.09375 -0.421875 C 13.75 -0.140625 13.203125 0 12.453125 0 Z M 2.46875 0 "/></g></g></g><g fill="#252f3e" fill-opacity="1"><g transform="translate(560.192258, 70.936231)"><g><path d="M 18.640625 0 C 17.890625 0 17.347656 -0.160156 17.015625 -0.484375 C 16.691406 -0.816406 16.53125 -1.359375 16.53125 -2.109375 L 16.53125 -18.359375 L 1.828125 -45.21875 C 1.265625 -46.195312 0.984375 -46.898438 0.984375 -47.328125 C 0.984375 -48.265625 1.59375 -48.734375 2.8125 -48.734375 L 12.796875 -48.734375 C 13.546875 -48.734375 14.144531 -48.59375 14.59375 -48.3125 C 15.039062 -48.03125 15.40625 -47.5625 15.6875 -46.90625 L 23.703125 -28.0625 L 31.859375 -46.90625 C 32.140625 -47.5625 32.5 -48.03125 32.9375 -48.3125 C 33.382812 -48.59375 33.984375 -48.734375 34.734375 -48.734375 L 44.015625 -48.734375 C 45.234375 -48.734375 45.84375 -48.265625 45.84375 -47.328125 C 45.84375 -46.898438 45.5625 -46.195312 45 -45.21875 L 30.09375 -18.21875 L 30.09375 -2.109375 C 30.09375 -1.359375 29.941406 -0.816406 29.640625 -0.484375 C 29.335938 -0.160156 28.785156 0 27.984375 0 Z M 18.640625 0 "/></g></g></g></g></g><g transform="matrix(1, 0, 0, 1, 278, 194)"><g clip-path="url(#16952425a4)"><g fill="#ff9900" fill-opacity="1"><g transform="translate(1.25454, 26.073187)"><g><path d="M 10.65625 -3.59375 C 11.988281 -3.59375 12.992188 -4.054688 13.671875 -4.984375 C 14.359375 -5.921875 14.703125 -7.300781 14.703125 -9.125 C 14.703125 -10.96875 14.359375 -12.359375 13.671875 -13.296875 C 12.984375 -14.242188 11.976562 -14.71875 10.65625 -14.71875 C 9.332031 -14.71875 8.332031 -14.25 7.65625 -13.3125 C 6.976562 -12.382812 6.640625 -11.015625 6.640625 -9.203125 C 6.640625 -7.367188 6.976562 -5.972656 7.65625 -5.015625 C 8.332031 -4.066406 9.332031 -3.59375 10.65625 -3.59375 Z M 10.65625 0.453125 C 8.726562 0.453125 7.066406 0.0507812 5.671875 -0.75 C 4.285156 -1.550781 3.226562 -2.675781 2.5 -4.125 C 1.78125 -5.570312 1.421875 -7.265625 1.421875 -9.203125 C 1.421875 -11.191406 1.800781 -12.90625 2.5625 -14.34375 C 3.320312 -15.78125 4.394531 -16.875 5.78125 -17.625 C 7.164062 -18.382812 8.789062 -18.765625 10.65625 -18.765625 C 12.570312 -18.765625 14.226562 -18.367188 15.625 -17.578125 C 17.019531 -16.785156 18.082031 -15.664062 18.8125 -14.21875 C 19.539062 -12.78125 19.90625 -11.082031 19.90625 -9.125 C 19.90625 -7.132812 19.523438 -5.414062 18.765625 -3.96875 C 18.015625 -2.519531 16.941406 -1.421875 15.546875 -0.671875 C 14.148438 0.078125 12.519531 0.453125 10.65625 0.453125 Z M 10.65625 0.453125 "/></g></g></g><g fill="#ff9900" fill-opacity="1"><g transform="translate(22.583143, 26.073187)"><g><path d="M 10.703125 0.34375 C 7.671875 0.34375 5.363281 -0.457031 3.78125 -2.0625 C 2.207031 -3.664062 1.421875 -6.007812 1.421875 -9.09375 C 1.421875 -12.125 2.242188 -14.476562 3.890625 -16.15625 C 5.546875 -17.832031 7.84375 -18.671875 10.78125 -18.671875 C 12.195312 -18.671875 13.519531 -18.484375 14.75 -18.109375 C 15.03125 -18.023438 15.21875 -17.90625 15.3125 -17.75 C 15.414062 -17.601562 15.46875 -17.363281 15.46875 -17.03125 L 15.46875 -14.8125 C 15.46875 -14.332031 15.28125 -14.09375 14.90625 -14.09375 C 14.820312 -14.09375 14.601562 -14.132812 14.25 -14.21875 C 13.382812 -14.414062 12.519531 -14.515625 11.65625 -14.515625 C 10.039062 -14.515625 8.816406 -14.085938 7.984375 -13.234375 C 7.148438 -12.378906 6.734375 -11.113281 6.734375 -9.4375 L 6.734375 -8.859375 C 6.734375 -7.210938 7.132812 -5.957031 7.9375 -5.09375 C 8.738281 -4.238281 9.925781 -3.8125 11.5 -3.8125 C 12.59375 -3.8125 13.613281 -3.925781 14.5625 -4.15625 C 14.84375 -4.21875 15.046875 -4.25 15.171875 -4.25 C 15.546875 -4.25 15.734375 -4.015625 15.734375 -3.546875 L 15.734375 -1.328125 C 15.734375 -0.984375 15.679688 -0.738281 15.578125 -0.59375 C 15.484375 -0.445312 15.296875 -0.328125 15.015625 -0.234375 C 13.816406 0.148438 12.378906 0.34375 10.703125 0.34375 Z M 10.703125 0.34375 "/></g></g></g><g fill="#ff9900" fill-opacity="1"><g transform="translate(39.04872, 26.073187)"><g><path d="M 2.75 0 C 2.46875 0 2.265625 -0.0625 2.140625 -0.1875 C 2.015625 -0.3125 1.953125 -0.515625 1.953125 -0.796875 L 1.953125 -17.53125 C 1.953125 -17.832031 2.015625 -18.039062 2.140625 -18.15625 C 2.265625 -18.269531 2.46875 -18.328125 2.75 -18.328125 L 13.9375 -18.328125 C 14.226562 -18.328125 14.429688 -18.269531 14.546875 -18.15625 C 14.660156 -18.039062 14.71875 -17.832031 14.71875 -17.53125 L 14.71875 -15.25 C 14.71875 -14.96875 14.660156 -14.765625 14.546875 -14.640625 C 14.429688 -14.523438 14.226562 -14.46875 13.9375 -14.46875 L 6.921875 -14.46875 L 6.921875 -11.265625 L 12.484375 -11.265625 C 12.773438 -11.265625 12.976562 -11.207031 13.09375 -11.09375 C 13.207031 -10.976562 13.265625 -10.769531 13.265625 -10.46875 L 13.265625 -8.203125 C 13.265625 -7.910156 13.207031 -7.703125 13.09375 -7.578125 C 12.976562 -7.460938 12.773438 -7.40625 12.484375 -7.40625 L 6.921875 -7.40625 L 6.921875 -3.859375 L 13.984375 -3.859375 C 14.285156 -3.859375 14.492188 -3.800781 14.609375 -3.6875 C 14.722656 -3.570312 14.78125 -3.363281 14.78125 -3.0625 L 14.78125 -0.796875 C 14.78125 -0.515625 14.722656 -0.3125 14.609375 -0.1875 C 14.492188 -0.0625 14.285156 0 13.984375 0 Z M 2.75 0 "/></g></g></g><g fill="#ff9900" fill-opacity="1"><g transform="translate(55.117948, 26.073187)"><g><path d="M 11.109375 -7.140625 L 9.203125 -13.9375 L 7.34375 -7.140625 Z M 0.921875 0 C 0.460938 0 0.234375 -0.175781 0.234375 -0.53125 C 0.234375 -0.664062 0.304688 -0.929688 0.453125 -1.328125 L 6.296875 -17.6875 C 6.378906 -17.9375 6.484375 -18.101562 6.609375 -18.1875 C 6.734375 -18.28125 6.9375 -18.328125 7.21875 -18.328125 L 11.453125 -18.328125 C 11.734375 -18.328125 11.929688 -18.28125 12.046875 -18.1875 C 12.171875 -18.101562 12.28125 -17.9375 12.375 -17.6875 L 18.234375 -1.328125 C 18.378906 -0.929688 18.453125 -0.664062 18.453125 -0.53125 C 18.453125 -0.175781 18.222656 0 17.765625 0 L 13.796875 0 C 13.515625 0 13.304688 -0.0507812 13.171875 -0.15625 C 13.046875 -0.257812 12.9375 -0.472656 12.84375 -0.796875 L 12.0625 -3.546875 L 6.390625 -3.546875 L 5.625 -0.796875 C 5.539062 -0.472656 5.429688 -0.257812 5.296875 -0.15625 C 5.171875 -0.0507812 4.960938 0 4.671875 0 Z M 0.921875 0 "/></g></g></g><g fill="#ff9900" fill-opacity="1"><g transform="translate(73.803602, 26.073187)"><g><path d="M 2.75 0 C 2.46875 0 2.265625 -0.0625 2.140625 -0.1875 C 2.015625 -0.3125 1.953125 -0.515625 1.953125 -0.796875 L 1.953125 -17.53125 C 1.953125 -17.832031 2.015625 -18.039062 2.140625 -18.15625 C 2.265625 -18.269531 2.46875 -18.328125 2.75 -18.328125 L 6.484375 -18.328125 C 6.773438 -18.328125 6.992188 -18.28125 7.140625 -18.1875 C 7.296875 -18.101562 7.4375 -17.953125 7.5625 -17.734375 L 13.671875 -6.734375 L 13.671875 -17.53125 C 13.671875 -17.832031 13.726562 -18.039062 13.84375 -18.15625 C 13.96875 -18.269531 14.175781 -18.328125 14.46875 -18.328125 L 17.265625 -18.328125 C 17.566406 -18.328125 17.773438 -18.269531 17.890625 -18.15625 C 18.003906 -18.039062 18.0625 -17.832031 18.0625 -17.53125 L 18.0625 -0.796875 C 18.0625 -0.515625 18.003906 -0.3125 17.890625 -0.1875 C 17.773438 -0.0625 17.566406 0 17.265625 0 L 13.53125 0 C 13.238281 0 13.015625 -0.0390625 12.859375 -0.125 C 12.710938 -0.21875 12.578125 -0.367188 12.453125 -0.578125 L 6.34375 -11.46875 L 6.34375 -0.796875 C 6.34375 -0.515625 6.285156 -0.3125 6.171875 -0.1875 C 6.054688 -0.0625 5.847656 0 5.546875 0 Z M 2.75 0 "/></g></g></g><g fill="#ff9900" fill-opacity="1"><g transform="translate(93.81073, 26.073187)"><g><path d="M 2.859375 0 C 2.578125 0 2.375 -0.0625 2.25 -0.1875 C 2.125 -0.3125 2.0625 -0.515625 2.0625 -0.796875 L 2.0625 -17.53125 C 2.0625 -17.832031 2.125 -18.039062 2.25 -18.15625 C 2.375 -18.269531 2.578125 -18.328125 2.859375 -18.328125 L 6.375 -18.328125 C 6.675781 -18.328125 6.882812 -18.269531 7 -18.15625 C 7.113281 -18.039062 7.171875 -17.832031 7.171875 -17.53125 L 7.171875 -0.796875 C 7.171875 -0.515625 7.113281 -0.3125 7 -0.1875 C 6.882812 -0.0625 6.675781 0 6.375 0 Z M 2.859375 0 "/></g></g></g><g fill="#ff9900" fill-opacity="1"><g transform="translate(103.034628, 26.073187)"><g><path d="M 11.109375 -7.140625 L 9.203125 -13.9375 L 7.34375 -7.140625 Z M 0.921875 0 C 0.460938 0 0.234375 -0.175781 0.234375 -0.53125 C 0.234375 -0.664062 0.304688 -0.929688 0.453125 -1.328125 L 6.296875 -17.6875 C 6.378906 -17.9375 6.484375 -18.101562 6.609375 -18.1875 C 6.734375 -18.28125 6.9375 -18.328125 7.21875 -18.328125 L 11.453125 -18.328125 C 11.734375 -18.328125 11.929688 -18.28125 12.046875 -18.1875 C 12.171875 -18.101562 12.28125 -17.9375 12.375 -17.6875 L 18.234375 -1.328125 C 18.378906 -0.929688 18.453125 -0.664062 18.453125 -0.53125 C 18.453125 -0.175781 18.222656 0 17.765625 0 L 13.796875 0 C 13.515625 0 13.304688 -0.0507812 13.171875 -0.15625 C 13.046875 -0.257812 12.9375 -0.472656 12.84375 -0.796875 L 12.0625 -3.546875 L 6.390625 -3.546875 L 5.625 -0.796875 C 5.539062 -0.472656 5.429688 -0.257812 5.296875 -0.15625 C 5.171875 -0.0507812 4.960938 0 4.671875 0 Z M 0.921875 0 "/></g></g></g></g></g><path stroke-linecap="round" transform="matrix(0.749318, 0.00429682, -0.00429682, 0.749318, 92.119017, 210.341918)" fill="none" stroke-linejoin="miter" d="M 0.998976 0.997627 L 173.390139 0.999568 " stroke="#252f3e" stroke-width="2" stroke-opacity="1" stroke-miterlimit="4"/><path stroke-linecap="round" transform="matrix(0.749318, 0.00429682, -0.00429682, 0.749318, 456.214935, 210.716583)" fill="none" stroke-linejoin="miter" d="M 1.001299 0.99806 L 173.392462 1.000001 " stroke="#252f3e" stroke-width="2" stroke-opacity="1" stroke-miterlimit="4"/></svg>