<svg xmlns="http://www.w3.org/2000/svg" xmlns:xlink="http://www.w3.org/1999/xlink" width="500" zoomAndPan="magnify" viewBox="0 0 375 374.999991" height="500" preserveAspectRatio="xMidYMid meet" version="1.0"><defs><g/><clipPath id="3bd0c44ca6"><path d="M 187.5 0 C 83.945312 0 0 83.945312 0 187.5 C 0 291.054688 83.945312 375 187.5 375 C 291.054688 375 375 291.054688 375 187.5 C 375 83.945312 291.054688 0 187.5 0 Z M 187.5 0 " clip-rule="nonzero"/></clipPath><clipPath id="ca2f1dd158"><path d="M 0 0 L 375 0 L 375 375 L 0 375 Z M 0 0 " clip-rule="nonzero"/></clipPath><clipPath id="6125347d2c"><path d="M 187.5 0 C 83.945312 0 0 83.945312 0 187.5 C 0 291.054688 83.945312 375 187.5 375 C 291.054688 375 375 291.054688 375 187.5 C 375 83.945312 291.054688 0 187.5 0 Z M 187.5 0 " clip-rule="nonzero"/></clipPath><clipPath id="e47cb06127"><rect x="0" width="375" y="0" height="375"/></clipPath><clipPath id="d7996f826d"><path d="M 0.910156 131 L 183 131 L 183 173 L 0.910156 173 Z M 0.910156 131 " clip-rule="nonzero"/></clipPath><clipPath id="a03e01027d"><path d="M 162 127 L 200.253906 127 L 200.253906 165 L 162 165 Z M 162 127 " clip-rule="nonzero"/></clipPath><clipPath id="3dcc4772d8"><path d="M 200 30 L 317.078125 30 L 317.078125 132 L 200 132 Z M 200 30 " clip-rule="nonzero"/></clipPath><clipPath id="afceadbd35"><rect x="0" width="118" y="0" height="102"/></clipPath><clipPath id="a4bc136976"><rect x="0" width="318" y="0" height="278"/></clipPath></defs><g clip-path="url(#3bd0c44ca6)"><g transform="matrix(1, 0, 0, 1, 0, 0)"><g clip-path="url(#e47cb06127)"><g clip-path="url(#ca2f1dd158)"><g clip-path="url(#6125347d2c)"><rect x="-82.5" width="540" fill="#ffffff" height="539.999987" y="-82.499998" fill-opacity="1"/></g></g></g></g></g><g transform="matrix(1, 0, 0, 1, 29, 37)"><g clip-path="url(#a4bc136976)"><path fill="#000000" d="M 57.101562 96.273438 C 57.101562 98.726562 57.351562 100.71875 57.824219 102.191406 C 58.347656 103.648438 59.019531 105.242188 59.941406 106.976562 C 60.242188 107.441406 60.394531 107.953125 60.402344 108.507812 C 60.402344 109.167969 60.003906 109.839844 59.15625 110.5 L 54.972656 113.292969 C 54.457031 113.664062 53.882812 113.863281 53.25 113.890625 C 52.578125 113.890625 51.917969 113.566406 51.257812 112.96875 C 50.359375 112 49.5625 110.960938 48.867188 109.839844 C 48.128906 108.5625 47.449219 107.253906 46.824219 105.914062 C 41.640625 112.03125 35.148438 115.097656 27.324219 115.097656 C 21.753906 115.097656 17.308594 113.492188 14.066406 110.300781 C 10.816406 107.113281 9.160156 102.851562 9.160156 97.53125 C 9.160156 91.875 11.152344 87.289062 15.191406 83.824219 C 19.238281 80.363281 24.609375 78.644531 31.4375 78.644531 C 33.679688 78.644531 36.007812 78.84375 38.464844 79.167969 C 40.917969 79.503906 43.445312 80.039062 46.089844 80.636719 L 46.089844 75.777344 C 46.089844 70.71875 45.027344 67.191406 42.972656 65.136719 C 40.855469 63.070312 37.265625 62.074219 32.160156 62.074219 C 29.839844 62.074219 27.460938 62.347656 25.007812 62.945312 C 22.566406 63.527344 20.175781 64.277344 17.84375 65.199219 C 17.089844 65.539062 16.316406 65.832031 15.527344 66.070312 C 15.183594 66.183594 14.828125 66.253906 14.46875 66.269531 C 13.53125 66.269531 13.070312 65.597656 13.070312 64.203125 L 13.070312 60.9375 C 13.070312 59.878906 13.195312 59.070312 13.53125 58.621094 C 14.042969 58 14.664062 57.53125 15.402344 57.214844 C 17.707031 56.015625 20.496094 55.019531 23.75 54.222656 C 26.988281 53.351562 30.4375 52.964844 34.089844 52.964844 C 41.976562 52.964844 47.746094 54.757812 51.457031 58.347656 C 55.109375 61.933594 56.964844 67.390625 56.964844 74.71875 L 56.964844 96.273438 Z M 30.179688 106.375 C 32.359375 106.375 34.613281 105.976562 37.003906 105.179688 C 39.398438 104.382812 41.515625 102.914062 43.296875 100.917969 C 44.378906 99.679688 45.132812 98.261719 45.550781 96.671875 C 45.949219 95.0625 46.226562 93.144531 46.226562 90.878906 L 46.226562 88.085938 C 44.210938 87.597656 42.175781 87.226562 40.121094 86.964844 C 38.050781 86.699219 35.976562 86.5625 33.890625 86.554688 C 29.441406 86.554688 26.203125 87.425781 24.011719 89.21875 C 21.816406 91.015625 20.769531 93.542969 20.769531 96.871094 C 20.769531 99.984375 21.554688 102.316406 23.214844 103.921875 C 24.808594 105.578125 27.125 106.375 30.179688 106.375 Z M 83.414062 113.566406 C 82.21875 113.566406 81.421875 113.367188 80.898438 112.894531 C 80.363281 112.492188 79.902344 111.570312 79.503906 110.300781 L 63.929688 58.882812 C 63.625 58.019531 63.425781 57.128906 63.332031 56.214844 C 63.332031 55.15625 63.855469 54.558594 64.914062 54.558594 L 71.417969 54.558594 C 72.664062 54.558594 73.535156 54.757812 73.996094 55.21875 C 74.53125 55.617188 74.929688 56.554688 75.328125 57.8125 L 86.46875 101.855469 L 96.808594 57.8125 C 97.132812 56.492188 97.53125 55.617188 98.066406 55.21875 C 98.882812 54.722656 99.765625 54.5 100.722656 54.558594 L 106.027344 54.558594 C 107.273438 54.558594 108.144531 54.757812 108.667969 55.21875 C 109.207031 55.617188 109.667969 56.554688 109.941406 57.8125 L 120.40625 102.390625 L 131.867188 57.8125 C 132.085938 56.832031 132.53125 55.964844 133.203125 55.21875 C 133.992188 54.71875 134.859375 54.5 135.792969 54.558594 L 141.960938 54.558594 C 143.019531 54.558594 143.617188 55.09375 143.617188 56.214844 C 143.617188 56.554688 143.542969 56.890625 143.492188 57.289062 C 143.382812 57.855469 143.226562 58.40625 143.019531 58.945312 L 127.035156 110.363281 C 126.648438 111.695312 126.175781 112.570312 125.652344 112.96875 C 124.878906 113.460938 124.035156 113.679688 123.121094 113.628906 L 117.429688 113.628906 C 116.167969 113.628906 115.308594 113.429688 114.773438 112.96875 C 114.238281 112.492188 113.777344 111.632812 113.515625 110.300781 L 103.238281 67.40625 L 93.019531 110.25 C 92.695312 111.585938 92.296875 112.445312 91.773438 112.90625 C 91.238281 113.378906 90.304688 113.578125 89.121094 113.578125 L 83.414062 113.578125 Z M 168.609375 115.359375 C 165.15625 115.363281 161.75 114.964844 158.394531 114.164062 C 155.078125 113.367188 152.5 112.492188 150.769531 111.496094 C 149.710938 110.898438 148.988281 110.238281 148.710938 109.628906 C 148.457031 109.035156 148.328125 108.417969 148.328125 107.773438 L 148.328125 104.382812 C 148.328125 102.988281 148.851562 102.316406 149.847656 102.316406 C 150.257812 102.316406 150.65625 102.382812 151.042969 102.515625 C 151.441406 102.652344 152.039062 102.914062 152.699219 103.1875 C 154.941406 104.183594 157.410156 104.980469 159.988281 105.515625 C 162.640625 106.039062 165.222656 106.3125 167.875 106.3125 C 172.0625 106.3125 175.300781 105.578125 177.554688 104.121094 C 178.097656 103.792969 178.585938 103.402344 179.023438 102.941406 C 179.460938 102.484375 179.832031 101.980469 180.136719 101.421875 C 180.4375 100.867188 180.664062 100.28125 180.8125 99.664062 C 180.960938 99.050781 181.023438 98.425781 181.007812 97.792969 C 181.027344 96.929688 180.886719 96.09375 180.574219 95.289062 C 180.261719 94.484375 179.808594 93.769531 179.210938 93.144531 C 178.027344 91.875 175.773438 90.742188 172.523438 89.679688 L 162.902344 86.691406 C 158.070312 85.160156 154.480469 82.890625 152.300781 79.902344 C 151.234375 78.519531 150.417969 77.003906 149.847656 75.351562 C 149.28125 73.703125 148.996094 72.003906 148.988281 70.257812 C 148.988281 67.46875 149.585938 65 150.769531 62.871094 C 151.964844 60.75 153.558594 58.882812 155.554688 57.414062 C 157.546875 55.894531 159.789062 54.757812 162.441406 53.960938 C 165.097656 53.164062 167.875 52.828125 170.789062 52.828125 C 172.261719 52.828125 173.78125 52.890625 175.238281 53.089844 C 176.757812 53.289062 178.152344 53.5625 179.550781 53.835938 C 180.871094 54.160156 182.140625 54.484375 183.324219 54.894531 C 184.519531 55.292969 185.441406 55.695312 186.113281 56.09375 C 186.90625 56.492188 187.570312 57.042969 188.109375 57.75 C 188.546875 58.414062 188.742188 59.144531 188.695312 59.941406 L 188.695312 63.070312 C 188.695312 64.464844 188.171875 65.199219 187.175781 65.199219 C 186.28125 65.097656 185.445312 64.832031 184.65625 64.402344 C 180.601562 62.605469 176.359375 61.742188 171.925781 61.8125 C 168.148438 61.8125 165.160156 62.410156 163.101562 63.679688 C 161.046875 64.925781 159.988281 66.871094 159.988281 69.597656 C 159.988281 71.453125 160.648438 73.050781 161.980469 74.320312 C 163.300781 75.578125 165.757812 76.835938 169.269531 77.96875 L 178.6875 80.960938 C 183.460938 82.492188 186.914062 84.625 188.96875 87.351562 C 191.023438 90.082031 192.007812 93.207031 192.007812 96.671875 C 192.007812 99.535156 191.421875 102.117188 190.289062 104.382812 C 189.101562 106.683594 187.488281 108.636719 185.453125 110.238281 C 183.398438 111.894531 180.945312 113.105469 178.089844 113.964844 C 175.101562 114.898438 171.988281 115.359375 168.609375 115.359375 Z M 168.609375 115.359375 " fill-opacity="1" fill-rule="nonzero"/><g clip-path="url(#d7996f826d)"><path fill="#000000" d="M 181.132812 147.679688 C 159.328125 163.835938 127.632812 172.421875 100.382812 172.421875 C 62.199219 172.421875 27.785156 158.257812 1.796875 134.707031 C -0.257812 132.839844 1.597656 130.308594 4.039062 131.78125 C 32.160156 148.140625 66.832031 158.058594 102.714844 158.058594 C 126.898438 158.058594 153.484375 153 177.953125 142.621094 C 181.605469 140.964844 184.71875 145.011719 181.132812 147.679688 Z M 181.132812 147.679688 " fill-opacity="1" fill-rule="evenodd"/></g><g clip-path="url(#a03e01027d)"><path fill="#000000" d="M 190.214844 137.300781 C 187.433594 133.722656 171.785156 135.582031 164.699219 136.441406 C 162.578125 136.714844 162.242188 134.84375 164.160156 133.449219 C 176.621094 124.667969 197.117188 127.195312 199.496094 130.125 C 201.886719 133.113281 198.835938 153.671875 187.160156 163.515625 C 185.378906 165.046875 183.660156 164.261719 184.457031 162.269531 C 187.097656 155.664062 193.003906 140.839844 190.214844 137.3125 Z M 190.214844 137.300781 " fill-opacity="1" fill-rule="evenodd"/></g><g clip-path="url(#3dcc4772d8)"><g transform="matrix(1, 0, 0, 1, 200, 30)"><g clip-path="url(#afceadbd35)"><g fill="#ff9900" fill-opacity="1"><g transform="translate(0.519032, 81.060271)"><g><path d="M 34.46875 1.109375 C 24.707031 1.109375 17.285156 -1.46875 12.203125 -6.625 C 7.128906 -11.789062 4.59375 -19.335938 4.59375 -29.265625 C 4.59375 -39.023438 7.242188 -46.597656 12.546875 -51.984375 C 17.847656 -57.378906 25.238281 -60.078125 34.71875 -60.078125 C 39.257812 -60.078125 43.515625 -59.484375 47.484375 -58.296875 C 48.390625 -58.003906 49 -57.617188 49.3125 -57.140625 C 49.625 -56.660156 49.78125 -55.878906 49.78125 -54.796875 L 49.78125 -47.65625 C 49.78125 -46.125 49.1875 -45.359375 48 -45.359375 C 47.707031 -45.359375 46.992188 -45.5 45.859375 -45.78125 C 43.085938 -46.40625 40.3125 -46.71875 37.53125 -46.71875 C 32.3125 -46.71875 28.367188 -45.34375 25.703125 -42.59375 C 23.035156 -39.84375 21.703125 -35.769531 21.703125 -30.375 L 21.703125 -28.5 C 21.703125 -23.226562 22.988281 -19.203125 25.5625 -16.421875 C 28.144531 -13.640625 31.960938 -12.25 37.015625 -12.25 C 40.535156 -12.25 43.828125 -12.617188 46.890625 -13.359375 C 47.796875 -13.585938 48.445312 -13.703125 48.84375 -13.703125 C 50.03125 -13.703125 50.625 -12.9375 50.625 -11.40625 L 50.625 -4.25 C 50.625 -3.175781 50.46875 -2.394531 50.15625 -1.90625 C 49.84375 -1.425781 49.234375 -1.046875 48.328125 -0.765625 C 44.472656 0.484375 39.851562 1.109375 34.46875 1.109375 Z M 34.46875 1.109375 "/></g></g></g><g fill="#ff9900" fill-opacity="1"><g transform="translate(53.523076, 81.060271)"><g><path d="M 8.84375 0 C 7.9375 0 7.285156 -0.195312 6.890625 -0.59375 C 6.492188 -0.988281 6.296875 -1.640625 6.296875 -2.546875 L 6.296875 -56.421875 C 6.296875 -57.378906 6.492188 -58.039062 6.890625 -58.40625 C 7.285156 -58.78125 7.9375 -58.96875 8.84375 -58.96875 L 29.359375 -58.96875 C 38.429688 -58.96875 45.460938 -56.414062 50.453125 -51.3125 C 55.453125 -46.207031 57.953125 -38.945312 57.953125 -29.53125 C 57.953125 -23.34375 56.84375 -18.019531 54.625 -13.5625 C 52.414062 -9.113281 49.253906 -5.738281 45.140625 -3.4375 C 41.023438 -1.144531 36.101562 0 30.375 0 Z M 22.71875 -12.59375 L 28.34375 -12.59375 C 36.90625 -12.59375 41.1875 -17.984375 41.1875 -28.765625 L 41.1875 -30.296875 C 41.1875 -41.015625 36.957031 -46.375 28.5 -46.375 L 22.71875 -46.375 Z M 22.71875 -12.59375 "/></g></g></g></g></g></g><g fill="#ff9900" fill-opacity="1"><g transform="translate(14.372608, 260.631948)"><g><path d="M 29.640625 -10 C 33.367188 -10 36.175781 -11.296875 38.0625 -13.890625 C 39.945312 -16.492188 40.890625 -20.320312 40.890625 -25.375 C 40.890625 -30.519531 39.929688 -34.40625 38.015625 -37.03125 C 36.109375 -39.65625 33.316406 -40.96875 29.640625 -40.96875 C 25.960938 -40.96875 23.175781 -39.664062 21.28125 -37.0625 C 19.394531 -34.46875 18.453125 -30.644531 18.453125 -25.59375 C 18.453125 -20.5 19.394531 -16.625 21.28125 -13.96875 C 23.175781 -11.320312 25.960938 -10 29.640625 -10 Z M 29.640625 1.25 C 24.296875 1.25 19.6875 0.132812 15.8125 -2.09375 C 11.9375 -4.320312 8.992188 -7.445312 6.984375 -11.46875 C 4.972656 -15.488281 3.96875 -20.195312 3.96875 -25.59375 C 3.96875 -31.132812 5.019531 -35.898438 7.125 -39.890625 C 9.238281 -43.890625 12.21875 -46.941406 16.0625 -49.046875 C 19.914062 -51.160156 24.441406 -52.21875 29.640625 -52.21875 C 34.984375 -52.21875 39.59375 -51.113281 43.46875 -48.90625 C 47.34375 -46.695312 50.296875 -43.582031 52.328125 -39.5625 C 54.359375 -35.539062 55.375 -30.8125 55.375 -25.375 C 55.375 -19.832031 54.320312 -15.050781 52.21875 -11.03125 C 50.113281 -7.007812 47.125 -3.957031 43.25 -1.875 C 39.375 0.207031 34.835938 1.25 29.640625 1.25 Z M 29.640625 1.25 "/></g></g></g><g fill="#ff9900" fill-opacity="1"><g transform="translate(73.72396, 260.631948)"><g><path d="M 22.21875 0.8125 C 15.882812 0.8125 11.0625 -0.84375 7.75 -4.15625 C 4.445312 -7.46875 2.796875 -12.3125 2.796875 -18.6875 C 2.796875 -25.007812 4.546875 -29.921875 8.046875 -33.421875 C 11.554688 -36.929688 16.472656 -38.6875 22.796875 -38.6875 C 26.085938 -38.6875 29.03125 -38.171875 31.625 -37.140625 C 32.40625 -36.847656 32.929688 -36.503906 33.203125 -36.109375 C 33.472656 -35.710938 33.609375 -35.050781 33.609375 -34.125 L 33.609375 -29.859375 C 33.609375 -28.535156 33.09375 -27.875 32.0625 -27.875 C 31.820312 -27.875 31.210938 -27.992188 30.234375 -28.234375 C 28.660156 -28.628906 27.113281 -28.828125 25.59375 -28.828125 C 22.550781 -28.828125 20.316406 -28.066406 18.890625 -26.546875 C 17.472656 -25.023438 16.765625 -22.648438 16.765625 -19.421875 L 16.765625 -18.390625 C 16.765625 -15.203125 17.472656 -12.847656 18.890625 -11.328125 C 20.316406 -9.804688 22.476562 -9.046875 25.375 -9.046875 C 26.113281 -9.046875 26.992188 -9.101562 28.015625 -9.21875 C 29.046875 -9.34375 29.832031 -9.503906 30.375 -9.703125 C 31.351562 -9.953125 31.96875 -10.078125 32.21875 -10.078125 C 33.25 -10.078125 33.765625 -9.414062 33.765625 -8.09375 L 33.765625 -3.828125 C 33.765625 -2.890625 33.628906 -2.222656 33.359375 -1.828125 C 33.085938 -1.441406 32.554688 -1.101562 31.765625 -0.8125 C 28.828125 0.269531 25.644531 0.8125 22.21875 0.8125 Z M 22.21875 0.8125 "/></g></g></g><g fill="#ff9900" fill-opacity="1"><g transform="translate(109.025829, 260.631948)"><g><path d="M 22.65625 1.109375 C 9.414062 1.109375 2.796875 -5.5625 2.796875 -18.90625 C 2.796875 -25.175781 4.484375 -30.085938 7.859375 -33.640625 C 11.242188 -37.203125 15.953125 -38.984375 21.984375 -38.984375 C 27.085938 -38.984375 31.035156 -37.617188 33.828125 -34.890625 C 36.628906 -32.171875 38.03125 -28.285156 38.03125 -23.234375 C 38.03125 -21.472656 37.878906 -19.613281 37.578125 -17.65625 C 37.429688 -16.820312 37.195312 -16.242188 36.875 -15.921875 C 36.5625 -15.597656 36.015625 -15.4375 35.234375 -15.4375 L 15.375 -15.4375 C 15.613281 -12.988281 16.554688 -11.210938 18.203125 -10.109375 C 19.847656 -9.003906 22.3125 -8.453125 25.59375 -8.453125 C 28.238281 -8.453125 30.910156 -8.847656 33.609375 -9.640625 C 34.390625 -9.878906 35.003906 -10 35.453125 -10 C 36.523438 -10 37.0625 -9.335938 37.0625 -8.015625 L 37.0625 -4.046875 C 37.0625 -3.160156 36.9375 -2.519531 36.6875 -2.125 C 36.445312 -1.738281 35.910156 -1.375 35.078125 -1.03125 C 33.460938 -0.394531 31.488281 0.117188 29.15625 0.515625 C 26.832031 0.910156 24.664062 1.109375 22.65625 1.109375 Z M 26.40625 -23.390625 L 26.40625 -24.265625 C 26.40625 -27.941406 24.8125 -29.78125 21.625 -29.78125 C 19.851562 -29.78125 18.425781 -29.226562 17.34375 -28.125 C 16.269531 -27.03125 15.613281 -25.453125 15.375 -23.390625 Z M 26.40625 -23.390625 "/></g></g></g><g fill="#ff9900" fill-opacity="1"><g transform="translate(149.770125, 260.631948)"><g><path d="M 14.484375 1.328125 C 10.804688 1.328125 7.863281 0.257812 5.65625 -1.875 C 3.457031 -4.007812 2.359375 -6.816406 2.359375 -10.296875 C 2.359375 -12.796875 3.019531 -14.988281 4.34375 -16.875 C 5.664062 -18.757812 7.476562 -20.203125 9.78125 -21.203125 C 12.082031 -22.210938 14.707031 -22.71875 17.65625 -22.71875 C 20.050781 -22.71875 22.253906 -22.5 24.265625 -22.0625 L 24.265625 -23.96875 C 24.265625 -25.976562 23.796875 -27.390625 22.859375 -28.203125 C 21.929688 -29.015625 20.296875 -29.421875 17.953125 -29.421875 C 16.671875 -29.421875 15.179688 -29.285156 13.484375 -29.015625 C 11.796875 -28.742188 10.289062 -28.410156 8.96875 -28.015625 C 7.894531 -27.671875 7.132812 -27.5 6.6875 -27.5 C 5.8125 -27.5 5.375 -28.140625 5.375 -29.421875 L 5.375 -33.53125 C 5.375 -34.414062 5.492188 -35.050781 5.734375 -35.4375 C 5.984375 -35.832031 6.523438 -36.203125 7.359375 -36.546875 C 11.378906 -38.171875 16.0625 -38.984375 21.40625 -38.984375 C 26.800781 -38.984375 30.757812 -37.890625 33.28125 -35.703125 C 35.800781 -33.523438 37.0625 -30.082031 37.0625 -25.375 L 37.0625 -2.203125 C 37.0625 -1.421875 36.898438 -0.859375 36.578125 -0.515625 C 36.265625 -0.171875 35.691406 0 34.859375 0 L 28.09375 0 C 27.40625 0 26.878906 -0.132812 26.515625 -0.40625 C 26.148438 -0.675781 25.84375 -1.175781 25.59375 -1.90625 L 25.234375 -2.9375 C 23.753906 -1.5625 22.082031 -0.507812 20.21875 0.21875 C 18.363281 0.957031 16.453125 1.328125 14.484375 1.328125 Z M 18.96875 -7.421875 C 19.90625 -7.421875 20.863281 -7.628906 21.84375 -8.046875 C 22.820312 -8.460938 23.628906 -8.992188 24.265625 -9.640625 L 24.265625 -15.078125 C 22.597656 -15.273438 21.25 -15.375 20.21875 -15.375 C 16.9375 -15.375 15.296875 -14 15.296875 -11.25 C 15.296875 -10.070312 15.625 -9.140625 16.28125 -8.453125 C 16.945312 -7.765625 17.84375 -7.421875 18.96875 -7.421875 Z M 18.96875 -7.421875 "/></g></g></g><g fill="#ff9900" fill-opacity="1"><g transform="translate(191.396986, 260.631948)"><g><path d="M 6.90625 0 C 6.125 0 5.5625 -0.171875 5.21875 -0.515625 C 4.875 -0.859375 4.703125 -1.421875 4.703125 -2.203125 L 4.703125 -35.671875 C 4.703125 -36.503906 4.875 -37.078125 5.21875 -37.390625 C 5.5625 -37.710938 6.125 -37.875 6.90625 -37.875 L 14.046875 -37.875 C 14.734375 -37.875 15.257812 -37.738281 15.625 -37.46875 C 16 -37.195312 16.304688 -36.695312 16.546875 -35.96875 L 17.140625 -34.046875 C 19.441406 -35.765625 21.695312 -37.015625 23.90625 -37.796875 C 26.113281 -38.585938 28.441406 -38.984375 30.890625 -38.984375 C 34.421875 -38.984375 37.117188 -38.023438 38.984375 -36.109375 C 40.847656 -34.203125 41.78125 -31.484375 41.78125 -27.953125 L 41.78125 -2.203125 C 41.78125 -1.421875 41.617188 -0.859375 41.296875 -0.515625 C 40.972656 -0.171875 40.394531 0 39.5625 0 L 30.15625 0 C 29.375 0 28.8125 -0.171875 28.46875 -0.515625 C 28.125 -0.859375 27.953125 -1.421875 27.953125 -2.203125 L 27.953125 -24.859375 C 27.953125 -26.328125 27.664062 -27.40625 27.09375 -28.09375 C 26.53125 -28.78125 25.585938 -29.125 24.265625 -29.125 C 22.453125 -29.125 20.539062 -28.507812 18.53125 -27.28125 L 18.53125 -2.203125 C 18.53125 -1.421875 18.367188 -0.859375 18.046875 -0.515625 C 17.734375 -0.171875 17.160156 0 16.328125 0 Z M 6.90625 0 "/></g></g></g><g fill="#ff9900" fill-opacity="1"><g transform="translate(237.730739, 260.631948)"><g><path d="M 6.90625 0 C 6.125 0 5.5625 -0.171875 5.21875 -0.515625 C 4.875 -0.859375 4.703125 -1.421875 4.703125 -2.203125 L 4.703125 -35.671875 C 4.703125 -36.503906 4.875 -37.078125 5.21875 -37.390625 C 5.5625 -37.710938 6.125 -37.875 6.90625 -37.875 L 16.328125 -37.875 C 17.160156 -37.875 17.734375 -37.710938 18.046875 -37.390625 C 18.367188 -37.078125 18.53125 -36.503906 18.53125 -35.671875 L 18.53125 -2.203125 C 18.53125 -1.421875 18.367188 -0.859375 18.046875 -0.515625 C 17.734375 -0.171875 17.160156 0 16.328125 0 Z M 11.625 -42.65625 C 9.269531 -42.65625 7.390625 -43.289062 5.984375 -44.5625 C 4.585938 -45.84375 3.890625 -47.535156 3.890625 -49.640625 C 3.890625 -51.753906 4.585938 -53.445312 5.984375 -54.71875 C 7.390625 -55.988281 9.269531 -56.625 11.625 -56.625 C 13.976562 -56.625 15.851562 -55.988281 17.25 -54.71875 C 18.644531 -53.445312 19.34375 -51.753906 19.34375 -49.640625 C 19.34375 -47.535156 18.644531 -45.84375 17.25 -44.5625 C 15.851562 -43.289062 13.976562 -42.65625 11.625 -42.65625 Z M 11.625 -42.65625 "/></g></g></g><g fill="#ff9900" fill-opacity="1"><g transform="translate(260.971187, 260.631948)"><g><path d="M 14.484375 1.328125 C 10.804688 1.328125 7.863281 0.257812 5.65625 -1.875 C 3.457031 -4.007812 2.359375 -6.816406 2.359375 -10.296875 C 2.359375 -12.796875 3.019531 -14.988281 4.34375 -16.875 C 5.664062 -18.757812 7.476562 -20.203125 9.78125 -21.203125 C 12.082031 -22.210938 14.707031 -22.71875 17.65625 -22.71875 C 20.050781 -22.71875 22.253906 -22.5 24.265625 -22.0625 L 24.265625 -23.96875 C 24.265625 -25.976562 23.796875 -27.390625 22.859375 -28.203125 C 21.929688 -29.015625 20.296875 -29.421875 17.953125 -29.421875 C 16.671875 -29.421875 15.179688 -29.285156 13.484375 -29.015625 C 11.796875 -28.742188 10.289062 -28.410156 8.96875 -28.015625 C 7.894531 -27.671875 7.132812 -27.5 6.6875 -27.5 C 5.8125 -27.5 5.375 -28.140625 5.375 -29.421875 L 5.375 -33.53125 C 5.375 -34.414062 5.492188 -35.050781 5.734375 -35.4375 C 5.984375 -35.832031 6.523438 -36.203125 7.359375 -36.546875 C 11.378906 -38.171875 16.0625 -38.984375 21.40625 -38.984375 C 26.800781 -38.984375 30.757812 -37.890625 33.28125 -35.703125 C 35.800781 -33.523438 37.0625 -30.082031 37.0625 -25.375 L 37.0625 -2.203125 C 37.0625 -1.421875 36.898438 -0.859375 36.578125 -0.515625 C 36.265625 -0.171875 35.691406 0 34.859375 0 L 28.09375 0 C 27.40625 0 26.878906 -0.132812 26.515625 -0.40625 C 26.148438 -0.675781 25.84375 -1.175781 25.59375 -1.90625 L 25.234375 -2.9375 C 23.753906 -1.5625 22.082031 -0.507812 20.21875 0.21875 C 18.363281 0.957031 16.453125 1.328125 14.484375 1.328125 Z M 18.96875 -7.421875 C 19.90625 -7.421875 20.863281 -7.628906 21.84375 -8.046875 C 22.820312 -8.460938 23.628906 -8.992188 24.265625 -9.640625 L 24.265625 -15.078125 C 22.597656 -15.273438 21.25 -15.375 20.21875 -15.375 C 16.9375 -15.375 15.296875 -14 15.296875 -11.25 C 15.296875 -10.070312 15.625 -9.140625 16.28125 -8.453125 C 16.945312 -7.765625 17.84375 -7.421875 18.96875 -7.421875 Z M 18.96875 -7.421875 "/></g></g></g></g></g></svg>