<svg xmlns="http://www.w3.org/2000/svg" xmlns:xlink="http://www.w3.org/1999/xlink" width="927" zoomAndPan="magnify" viewBox="0 0 695.25 279.749991" height="373" preserveAspectRatio="xMidYMid meet" version="1.0"><defs><g/><clipPath id="00550081ed"><path d="M 7.863281 0.0273438 L 686.628906 0.0273438 L 686.628906 279.472656 L 7.863281 279.472656 Z M 7.863281 0.0273438 " clip-rule="nonzero"/></clipPath><clipPath id="b70825ee98"><path d="M 0.863281 0.0273438 L 679.628906 0.0273438 L 679.628906 279.472656 L 0.863281 279.472656 Z M 0.863281 0.0273438 " clip-rule="nonzero"/></clipPath><clipPath id="d2a9e196a7"><rect x="0" width="680" y="0" height="280"/></clipPath><clipPath id="1294c7a85a"><path d="M 295.804688 95 L 390 95 L 390 118 L 295.804688 118 Z M 295.804688 95 " clip-rule="nonzero"/></clipPath><clipPath id="ce976c1913"><path d="M 379 93.371094 L 398.441406 93.371094 L 398.441406 113 L 379 113 Z M 379 93.371094 " clip-rule="nonzero"/></clipPath><clipPath id="e2cac860e6"><rect x="0" width="616" y="0" height="89"/></clipPath><clipPath id="39bc7e0b7e"><rect x="0" width="123" y="0" height="33"/></clipPath></defs><g clip-path="url(#00550081ed)"><g transform="matrix(1, 0, 0, 1, 7, 0.000000000000009708)"><g clip-path="url(#d2a9e196a7)"><g clip-path="url(#b70825ee98)"><path fill="#ffffff" d="M 0.863281 0.0273438 L 679.835938 0.0273438 L 679.835938 279.472656 L 0.863281 279.472656 Z M 0.863281 0.0273438 " fill-opacity="1" fill-rule="nonzero"/></g></g></g></g><path fill="#252f3e" d="M 324.804688 77.78125 C 324.804688 79.050781 324.933594 80.078125 325.175781 80.835938 C 325.449219 81.589844 325.792969 82.414062 326.269531 83.304688 C 326.425781 83.546875 326.503906 83.8125 326.507812 84.097656 C 326.507812 84.4375 326.300781 84.785156 325.867188 85.125 L 323.703125 86.566406 C 323.441406 86.757812 323.144531 86.859375 322.816406 86.875 C 322.46875 86.875 322.128906 86.707031 321.789062 86.398438 C 321.324219 85.902344 320.914062 85.363281 320.554688 84.785156 C 320.171875 84.125 319.820312 83.449219 319.5 82.757812 C 316.824219 85.917969 313.472656 87.5 309.4375 87.5 C 306.5625 87.5 304.265625 86.667969 302.59375 85.023438 C 300.914062 83.378906 300.058594 81.179688 300.058594 78.433594 C 300.058594 75.511719 301.089844 73.144531 303.171875 71.359375 C 305.261719 69.570312 308.035156 68.683594 311.558594 68.683594 C 312.714844 68.683594 313.917969 68.785156 315.183594 68.953125 C 316.453125 69.128906 317.757812 69.402344 319.121094 69.710938 L 319.121094 67.203125 C 319.121094 64.59375 318.574219 62.773438 317.511719 61.714844 C 316.417969 60.644531 314.566406 60.132812 311.929688 60.132812 C 310.734375 60.132812 309.507812 60.273438 308.238281 60.582031 C 306.980469 60.882812 305.746094 61.269531 304.542969 61.746094 C 304.152344 61.921875 303.753906 62.070312 303.347656 62.195312 C 303.167969 62.253906 302.988281 62.289062 302.800781 62.296875 C 302.316406 62.296875 302.078125 61.953125 302.078125 61.230469 L 302.078125 59.546875 C 302.078125 59 302.144531 58.582031 302.316406 58.351562 C 302.582031 58.03125 302.902344 57.789062 303.28125 57.625 C 304.472656 57.007812 305.910156 56.492188 307.589844 56.082031 C 309.261719 55.628906 311.042969 55.429688 312.925781 55.429688 C 316.996094 55.429688 319.976562 56.355469 321.890625 58.207031 C 323.777344 60.0625 324.734375 62.878906 324.734375 66.660156 L 324.734375 77.78125 Z M 310.910156 82.996094 C 312.035156 82.996094 313.199219 82.792969 314.433594 82.378906 C 315.667969 81.96875 316.761719 81.210938 317.679688 80.179688 C 318.238281 79.539062 318.625 78.808594 318.84375 77.988281 C 319.050781 77.160156 319.191406 76.167969 319.191406 75 L 319.191406 73.558594 C 318.152344 73.304688 317.101562 73.113281 316.039062 72.980469 C 314.972656 72.839844 313.902344 72.769531 312.824219 72.765625 C 310.527344 72.765625 308.855469 73.21875 307.726562 74.144531 C 306.59375 75.070312 306.054688 76.375 306.054688 78.089844 C 306.054688 79.699219 306.457031 80.902344 307.3125 81.730469 C 308.136719 82.585938 309.332031 82.996094 310.910156 82.996094 Z M 338.386719 86.707031 C 337.769531 86.707031 337.355469 86.605469 337.085938 86.359375 C 336.808594 86.15625 336.570312 85.679688 336.367188 85.023438 L 328.328125 58.484375 C 328.171875 58.039062 328.066406 57.578125 328.019531 57.109375 C 328.019531 56.5625 328.289062 56.253906 328.835938 56.253906 L 332.191406 56.253906 C 332.835938 56.253906 333.285156 56.355469 333.523438 56.59375 C 333.800781 56.800781 334.007812 57.28125 334.210938 57.933594 L 339.960938 80.664062 L 345.296875 57.933594 C 345.464844 57.25 345.671875 56.800781 345.945312 56.59375 C 346.367188 56.335938 346.824219 56.222656 347.316406 56.253906 L 350.054688 56.253906 C 350.699219 56.253906 351.148438 56.355469 351.417969 56.59375 C 351.695312 56.800781 351.933594 57.28125 352.074219 57.933594 L 357.476562 80.941406 L 363.394531 57.933594 C 363.503906 57.425781 363.734375 56.980469 364.082031 56.59375 C 364.488281 56.335938 364.933594 56.222656 365.417969 56.253906 L 368.601562 56.253906 C 369.148438 56.253906 369.457031 56.53125 369.457031 57.109375 C 369.457031 57.28125 369.417969 57.457031 369.390625 57.664062 C 369.335938 57.953125 369.253906 58.238281 369.148438 58.515625 L 360.898438 85.054688 C 360.699219 85.742188 360.453125 86.195312 360.183594 86.398438 C 359.785156 86.652344 359.351562 86.769531 358.878906 86.738281 L 355.941406 86.738281 C 355.289062 86.738281 354.847656 86.636719 354.570312 86.398438 C 354.292969 86.15625 354.054688 85.710938 353.921875 85.023438 L 348.617188 62.882812 L 343.34375 84.996094 C 343.175781 85.6875 342.96875 86.128906 342.699219 86.367188 C 342.421875 86.613281 341.941406 86.714844 341.332031 86.714844 L 338.386719 86.714844 Z M 382.355469 87.632812 C 380.574219 87.636719 378.816406 87.429688 377.082031 87.015625 C 375.371094 86.605469 374.042969 86.15625 373.148438 85.640625 C 372.601562 85.332031 372.226562 84.992188 372.085938 84.675781 C 371.953125 84.371094 371.886719 84.050781 371.886719 83.71875 L 371.886719 81.96875 C 371.886719 81.25 372.15625 80.902344 372.671875 80.902344 C 372.882812 80.902344 373.089844 80.9375 373.289062 81.003906 C 373.496094 81.074219 373.804688 81.210938 374.144531 81.351562 C 375.300781 81.867188 376.574219 82.277344 377.90625 82.554688 C 379.277344 82.824219 380.605469 82.964844 381.976562 82.964844 C 384.136719 82.964844 385.808594 82.585938 386.972656 81.832031 C 387.542969 81.488281 387.984375 81.023438 388.304688 80.441406 C 388.621094 79.855469 388.773438 79.230469 388.753906 78.566406 C 388.777344 77.640625 388.46875 76.839844 387.828125 76.167969 C 387.21875 75.511719 386.054688 74.925781 384.375 74.382812 L 379.410156 72.835938 C 376.914062 72.046875 375.0625 70.875 373.9375 69.332031 C 372.804688 67.867188 372.234375 66.207031 372.226562 64.355469 C 372.226562 62.914062 372.535156 61.644531 373.148438 60.542969 C 373.765625 59.449219 374.585938 58.484375 375.617188 57.726562 C 376.644531 56.941406 377.804688 56.355469 379.171875 55.945312 C 380.542969 55.535156 381.976562 55.359375 383.480469 55.359375 C 384.238281 55.359375 385.023438 55.390625 385.777344 55.496094 C 386.5625 55.597656 387.28125 55.738281 388 55.882812 C 388.683594 56.046875 389.339844 56.214844 389.949219 56.425781 C 390.566406 56.632812 391.042969 56.839844 391.390625 57.042969 C 391.800781 57.25 392.140625 57.535156 392.417969 57.898438 C 392.644531 58.242188 392.746094 58.621094 392.722656 59.03125 L 392.722656 60.644531 C 392.722656 61.367188 392.453125 61.746094 391.9375 61.746094 C 391.476562 61.691406 391.042969 61.554688 390.636719 61.332031 C 388.546875 60.40625 386.355469 59.960938 384.066406 59.996094 C 382.117188 59.996094 380.574219 60.304688 379.511719 60.960938 C 378.453125 61.605469 377.90625 62.605469 377.90625 64.015625 C 377.90625 64.972656 378.246094 65.796875 378.933594 66.453125 C 379.617188 67.101562 380.882812 67.75 382.695312 68.335938 L 387.558594 69.878906 C 390.019531 70.671875 391.800781 71.769531 392.863281 73.179688 C 393.921875 74.585938 394.433594 76.199219 394.433594 77.988281 C 394.433594 79.46875 394.128906 80.796875 393.542969 81.96875 C 392.933594 83.15625 392.101562 84.164062 391.050781 84.992188 C 389.988281 85.847656 388.722656 86.46875 387.25 86.914062 C 385.707031 87.394531 384.097656 87.632812 382.355469 87.632812 Z M 382.355469 87.632812 " fill-opacity="1" fill-rule="nonzero"/><g clip-path="url(#1294c7a85a)"><path fill="#ff9900" d="M 388.816406 104.34375 C 377.566406 112.6875 361.207031 117.117188 347.144531 117.117188 C 327.433594 117.117188 309.671875 109.804688 296.261719 97.652344 C 295.199219 96.6875 296.15625 95.382812 297.417969 96.140625 C 311.929688 104.582031 329.828125 109.703125 348.347656 109.703125 C 360.828125 109.703125 374.550781 107.089844 387.179688 101.734375 C 389.0625 100.878906 390.671875 102.96875 388.816406 104.34375 Z M 388.816406 104.34375 " fill-opacity="1" fill-rule="evenodd"/></g><g clip-path="url(#ce976c1913)"><path fill="#ff9900" d="M 393.503906 98.988281 C 392.070312 97.144531 383.996094 98.101562 380.335938 98.546875 C 379.242188 98.6875 379.070312 97.722656 380.058594 97.003906 C 386.492188 92.46875 397.066406 93.773438 398.296875 95.285156 C 399.53125 96.828125 397.957031 107.4375 391.929688 112.519531 C 391.011719 113.308594 390.125 112.90625 390.535156 111.875 C 391.898438 108.46875 394.945312 100.816406 393.503906 98.996094 Z M 393.503906 98.988281 " fill-opacity="1" fill-rule="evenodd"/></g><g transform="matrix(1, 0, 0, 1, 43, 119)"><g clip-path="url(#e2cac860e6)"><g fill="#252f3e" fill-opacity="1"><g transform="translate(1.746689, 70.927014)"><g><path d="M 28.46875 0.90625 C 20.40625 0.90625 14.273438 -1.222656 10.078125 -5.484375 C 5.890625 -9.742188 3.796875 -15.976562 3.796875 -24.1875 C 3.796875 -32.238281 5.984375 -38.488281 10.359375 -42.9375 C 14.742188 -47.394531 20.851562 -49.625 28.6875 -49.625 C 32.4375 -49.625 35.945312 -49.132812 39.21875 -48.15625 C 39.96875 -47.914062 40.472656 -47.597656 40.734375 -47.203125 C 40.992188 -46.804688 41.125 -46.160156 41.125 -45.265625 L 41.125 -39.359375 C 41.125 -38.097656 40.628906 -37.46875 39.640625 -37.46875 C 39.410156 -37.46875 38.828125 -37.582031 37.890625 -37.8125 C 35.597656 -38.332031 33.300781 -38.59375 31 -38.59375 C 26.6875 -38.59375 23.425781 -37.457031 21.21875 -35.1875 C 19.019531 -32.914062 17.921875 -29.550781 17.921875 -25.09375 L 17.921875 -23.546875 C 17.921875 -19.191406 18.988281 -15.863281 21.125 -13.5625 C 23.257812 -11.269531 26.410156 -10.125 30.578125 -10.125 C 33.484375 -10.125 36.203125 -10.425781 38.734375 -11.03125 C 39.484375 -11.21875 40.019531 -11.3125 40.34375 -11.3125 C 41.332031 -11.3125 41.828125 -10.679688 41.828125 -9.421875 L 41.828125 -3.515625 C 41.828125 -2.617188 41.695312 -1.972656 41.4375 -1.578125 C 41.175781 -1.179688 40.671875 -0.863281 39.921875 -0.625 C 36.734375 0.394531 32.914062 0.90625 28.46875 0.90625 Z M 28.46875 0.90625 "/></g></g></g><g fill="#252f3e" fill-opacity="1"><g transform="translate(43.431791, 70.927014)"><g><path d="M 28.328125 -9.5625 C 31.890625 -9.5625 34.570312 -10.800781 36.375 -13.28125 C 38.175781 -15.769531 39.078125 -19.425781 39.078125 -24.25 C 39.078125 -29.175781 38.164062 -32.890625 36.34375 -35.390625 C 34.519531 -37.898438 31.847656 -39.15625 28.328125 -39.15625 C 24.816406 -39.15625 22.15625 -37.910156 20.34375 -35.421875 C 18.539062 -32.941406 17.640625 -29.289062 17.640625 -24.46875 C 17.640625 -19.59375 18.539062 -15.890625 20.34375 -13.359375 C 22.15625 -10.828125 24.816406 -9.5625 28.328125 -9.5625 Z M 28.328125 1.1875 C 23.222656 1.1875 18.816406 0.125 15.109375 -2 C 11.410156 -4.132812 8.597656 -7.125 6.671875 -10.96875 C 4.753906 -14.8125 3.796875 -19.3125 3.796875 -24.46875 C 3.796875 -29.757812 4.800781 -34.3125 6.8125 -38.125 C 8.832031 -41.945312 11.679688 -44.863281 15.359375 -46.875 C 19.035156 -48.894531 23.359375 -49.90625 28.328125 -49.90625 C 33.429688 -49.90625 37.832031 -48.847656 41.53125 -46.734375 C 45.238281 -44.628906 48.066406 -41.65625 50.015625 -37.8125 C 51.960938 -33.976562 52.9375 -29.457031 52.9375 -24.25 C 52.9375 -18.957031 51.925781 -14.390625 49.90625 -10.546875 C 47.894531 -6.703125 45.035156 -3.785156 41.328125 -1.796875 C 37.628906 0.191406 33.296875 1.1875 28.328125 1.1875 Z M 28.328125 1.1875 "/></g></g></g><g fill="#252f3e" fill-opacity="1"><g transform="translate(100.160097, 70.927014)"><g><path d="M 7.3125 0 C 6.5625 0 6.019531 -0.160156 5.6875 -0.484375 C 5.363281 -0.816406 5.203125 -1.359375 5.203125 -2.109375 L 5.203125 -46.609375 C 5.203125 -47.398438 5.363281 -47.945312 5.6875 -48.25 C 6.019531 -48.5625 6.5625 -48.71875 7.3125 -48.71875 L 17.859375 -48.71875 C 18.515625 -48.71875 19.015625 -48.609375 19.359375 -48.390625 C 19.710938 -48.179688 20.054688 -47.726562 20.390625 -47.03125 L 31.421875 -22.28125 L 42.59375 -47.03125 C 42.925781 -47.726562 43.265625 -48.179688 43.609375 -48.390625 C 43.960938 -48.609375 44.46875 -48.71875 45.125 -48.71875 L 55.1875 -48.71875 C 55.976562 -48.71875 56.523438 -48.5625 56.828125 -48.25 C 57.140625 -47.945312 57.296875 -47.398438 57.296875 -46.609375 L 57.296875 -2.109375 C 57.296875 -1.359375 57.140625 -0.816406 56.828125 -0.484375 C 56.523438 -0.160156 55.976562 0 55.1875 0 L 47.734375 0 C 46.984375 0 46.441406 -0.160156 46.109375 -0.484375 C 45.785156 -0.816406 45.625 -1.359375 45.625 -2.109375 L 45.625 -30.09375 L 37.953125 -12.796875 C 37.628906 -12.085938 37.289062 -11.628906 36.9375 -11.421875 C 36.582031 -11.210938 36.078125 -11.109375 35.421875 -11.109375 L 27.0625 -11.109375 C 26.40625 -11.109375 25.898438 -11.210938 25.546875 -11.421875 C 25.203125 -11.628906 24.863281 -12.085938 24.53125 -12.796875 L 16.875 -30.09375 L 16.875 -2.109375 C 16.875 -1.359375 16.71875 -0.816406 16.40625 -0.484375 C 16.101562 -0.160156 15.554688 0 14.765625 0 Z M 7.3125 0 "/></g></g></g><g fill="#252f3e" fill-opacity="1"><g transform="translate(162.652588, 70.927014)"><g><path d="M 7.3125 0 C 6.5625 0 6.019531 -0.160156 5.6875 -0.484375 C 5.363281 -0.816406 5.203125 -1.359375 5.203125 -2.109375 L 5.203125 -46.609375 C 5.203125 -47.398438 5.363281 -47.945312 5.6875 -48.25 C 6.019531 -48.5625 6.5625 -48.71875 7.3125 -48.71875 L 17.859375 -48.71875 C 18.515625 -48.71875 19.015625 -48.609375 19.359375 -48.390625 C 19.710938 -48.179688 20.054688 -47.726562 20.390625 -47.03125 L 31.421875 -22.28125 L 42.59375 -47.03125 C 42.925781 -47.726562 43.265625 -48.179688 43.609375 -48.390625 C 43.960938 -48.609375 44.46875 -48.71875 45.125 -48.71875 L 55.1875 -48.71875 C 55.976562 -48.71875 56.523438 -48.5625 56.828125 -48.25 C 57.140625 -47.945312 57.296875 -47.398438 57.296875 -46.609375 L 57.296875 -2.109375 C 57.296875 -1.359375 57.140625 -0.816406 56.828125 -0.484375 C 56.523438 -0.160156 55.976562 0 55.1875 0 L 47.734375 0 C 46.984375 0 46.441406 -0.160156 46.109375 -0.484375 C 45.785156 -0.816406 45.625 -1.359375 45.625 -2.109375 L 45.625 -30.09375 L 37.953125 -12.796875 C 37.628906 -12.085938 37.289062 -11.628906 36.9375 -11.421875 C 36.582031 -11.210938 36.078125 -11.109375 35.421875 -11.109375 L 27.0625 -11.109375 C 26.40625 -11.109375 25.898438 -11.210938 25.546875 -11.421875 C 25.203125 -11.628906 24.863281 -12.085938 24.53125 -12.796875 L 16.875 -30.09375 L 16.875 -2.109375 C 16.875 -1.359375 16.71875 -0.816406 16.40625 -0.484375 C 16.101562 -0.160156 15.554688 0 14.765625 0 Z M 7.3125 0 "/></g></g></g><g fill="#252f3e" fill-opacity="1"><g transform="translate(225.145079, 70.927014)"><g><path d="M 26.21875 1.1875 C 19.46875 1.1875 14.226562 -0.460938 10.5 -3.765625 C 6.78125 -7.066406 4.921875 -11.765625 4.921875 -17.859375 L 4.921875 -46.609375 C 4.921875 -47.398438 5.082031 -47.945312 5.40625 -48.25 C 5.738281 -48.5625 6.28125 -48.71875 7.03125 -48.71875 L 16.375 -48.71875 C 17.175781 -48.71875 17.726562 -48.5625 18.03125 -48.25 C 18.332031 -47.945312 18.484375 -47.398438 18.484375 -46.609375 L 18.484375 -17.4375 C 18.484375 -14.851562 19.140625 -12.894531 20.453125 -11.5625 C 21.765625 -10.226562 23.6875 -9.5625 26.21875 -9.5625 C 31.425781 -9.5625 34.03125 -12.1875 34.03125 -17.4375 L 34.03125 -46.609375 C 34.03125 -47.398438 34.191406 -47.945312 34.515625 -48.25 C 34.835938 -48.5625 35.375 -48.71875 36.125 -48.71875 L 45.484375 -48.71875 C 46.273438 -48.71875 46.820312 -48.5625 47.125 -48.25 C 47.4375 -47.945312 47.59375 -47.398438 47.59375 -46.609375 L 47.59375 -17.78125 C 47.59375 -11.738281 45.71875 -7.066406 41.96875 -3.765625 C 38.21875 -0.460938 32.96875 1.1875 26.21875 1.1875 Z M 26.21875 1.1875 "/></g></g></g><g fill="#252f3e" fill-opacity="1"><g transform="translate(277.655649, 70.927014)"><g><path d="M 7.3125 0 C 6.5625 0 6.019531 -0.160156 5.6875 -0.484375 C 5.363281 -0.816406 5.203125 -1.359375 5.203125 -2.109375 L 5.203125 -46.609375 C 5.203125 -47.398438 5.363281 -47.945312 5.6875 -48.25 C 6.019531 -48.5625 6.5625 -48.71875 7.3125 -48.71875 L 17.21875 -48.71875 C 18.019531 -48.71875 18.617188 -48.597656 19.015625 -48.359375 C 19.410156 -48.128906 19.773438 -47.734375 20.109375 -47.171875 L 36.34375 -17.921875 L 36.34375 -46.609375 C 36.34375 -47.398438 36.503906 -47.945312 36.828125 -48.25 C 37.160156 -48.5625 37.703125 -48.71875 38.453125 -48.71875 L 45.90625 -48.71875 C 46.695312 -48.71875 47.242188 -48.5625 47.546875 -48.25 C 47.859375 -47.945312 48.015625 -47.398438 48.015625 -46.609375 L 48.015625 -2.109375 C 48.015625 -1.359375 47.859375 -0.816406 47.546875 -0.484375 C 47.242188 -0.160156 46.695312 0 45.90625 0 L 35.984375 0 C 35.191406 0 34.597656 -0.113281 34.203125 -0.34375 C 33.804688 -0.582031 33.441406 -0.984375 33.109375 -1.546875 L 16.875 -30.515625 L 16.875 -2.109375 C 16.875 -1.359375 16.71875 -0.816406 16.40625 -0.484375 C 16.101562 -0.160156 15.554688 0 14.765625 0 Z M 7.3125 0 "/></g></g></g><g fill="#252f3e" fill-opacity="1"><g transform="translate(330.869186, 70.927014)"><g><path d="M 7.59375 0 C 6.84375 0 6.300781 -0.160156 5.96875 -0.484375 C 5.644531 -0.816406 5.484375 -1.359375 5.484375 -2.109375 L 5.484375 -46.609375 C 5.484375 -47.398438 5.644531 -47.945312 5.96875 -48.25 C 6.300781 -48.5625 6.84375 -48.71875 7.59375 -48.71875 L 16.9375 -48.71875 C 17.738281 -48.71875 18.289062 -48.5625 18.59375 -48.25 C 18.894531 -47.945312 19.046875 -47.398438 19.046875 -46.609375 L 19.046875 -2.109375 C 19.046875 -1.359375 18.894531 -0.816406 18.59375 -0.484375 C 18.289062 -0.160156 17.738281 0 16.9375 0 Z M 7.59375 0 "/></g></g></g><g fill="#252f3e" fill-opacity="1"><g transform="translate(355.402248, 70.927014)"><g><path d="M 16.875 0 C 16.125 0 15.582031 -0.160156 15.25 -0.484375 C 14.925781 -0.816406 14.765625 -1.359375 14.765625 -2.109375 L 14.765625 -38.09375 L 2.734375 -38.09375 C 1.984375 -38.09375 1.441406 -38.253906 1.109375 -38.578125 C 0.785156 -38.910156 0.625 -39.453125 0.625 -40.203125 L 0.625 -46.609375 C 0.625 -47.398438 0.785156 -47.945312 1.109375 -48.25 C 1.441406 -48.5625 1.984375 -48.71875 2.734375 -48.71875 L 40.34375 -48.71875 C 41.144531 -48.71875 41.695312 -48.5625 42 -48.25 C 42.300781 -47.945312 42.453125 -47.398438 42.453125 -46.609375 L 42.453125 -40.203125 C 42.453125 -39.453125 42.300781 -38.910156 42 -38.578125 C 41.695312 -38.253906 41.144531 -38.09375 40.34375 -38.09375 L 28.328125 -38.09375 L 28.328125 -2.109375 C 28.328125 -1.359375 28.175781 -0.816406 27.875 -0.484375 C 27.570312 -0.160156 27.019531 0 26.21875 0 Z M 16.875 0 "/></g></g></g><g fill="#252f3e" fill-opacity="1"><g transform="translate(401.305019, 70.927014)"><g><path d="M 18.625 0 C 17.875 0 17.332031 -0.160156 17 -0.484375 C 16.675781 -0.816406 16.515625 -1.359375 16.515625 -2.109375 L 16.515625 -18.34375 L 1.828125 -45.203125 C 1.265625 -46.179688 0.984375 -46.882812 0.984375 -47.3125 C 0.984375 -48.25 1.59375 -48.71875 2.8125 -48.71875 L 12.796875 -48.71875 C 13.546875 -48.71875 14.140625 -48.578125 14.578125 -48.296875 C 15.023438 -48.015625 15.390625 -47.546875 15.671875 -46.890625 L 23.6875 -28.046875 L 31.84375 -46.890625 C 32.125 -47.546875 32.488281 -48.015625 32.9375 -48.296875 C 33.382812 -48.578125 33.984375 -48.71875 34.734375 -48.71875 L 44 -48.71875 C 45.21875 -48.71875 45.828125 -48.25 45.828125 -47.3125 C 45.828125 -46.882812 45.546875 -46.179688 44.984375 -45.203125 L 30.09375 -18.203125 L 30.09375 -2.109375 C 30.09375 -1.359375 29.9375 -0.816406 29.625 -0.484375 C 29.320312 -0.160156 28.773438 0 27.984375 0 Z M 18.625 0 "/></g></g></g><g fill="#252f3e" fill-opacity="1"><g transform="translate(448.121661, 70.927014)"><g/></g></g><g fill="#252f3e" fill-opacity="1"><g transform="translate(465.554861, 70.927014)"><g><path d="M 7.3125 0 C 6.5625 0 6.019531 -0.160156 5.6875 -0.484375 C 5.363281 -0.816406 5.203125 -1.359375 5.203125 -2.109375 L 5.203125 -46.609375 C 5.203125 -47.398438 5.363281 -47.945312 5.6875 -48.25 C 6.019531 -48.5625 6.5625 -48.71875 7.3125 -48.71875 L 24.25 -48.71875 C 31.75 -48.71875 37.5625 -46.609375 41.6875 -42.390625 C 45.8125 -38.171875 47.875 -32.171875 47.875 -24.390625 C 47.875 -19.285156 46.957031 -14.890625 45.125 -11.203125 C 43.300781 -7.523438 40.691406 -4.738281 37.296875 -2.84375 C 33.898438 -0.945312 29.832031 0 25.09375 0 Z M 18.765625 -10.40625 L 23.40625 -10.40625 C 30.488281 -10.40625 34.03125 -14.859375 34.03125 -23.765625 L 34.03125 -25.03125 C 34.03125 -33.882812 30.535156 -38.3125 23.546875 -38.3125 L 18.765625 -38.3125 Z M 18.765625 -10.40625 "/></g></g></g><g fill="#252f3e" fill-opacity="1"><g transform="translate(515.113049, 70.927014)"><g><path d="M 29.53125 -18.984375 L 24.46875 -37.046875 L 19.546875 -18.984375 Z M 2.453125 0 C 1.234375 0 0.625 -0.46875 0.625 -1.40625 C 0.625 -1.78125 0.8125 -2.484375 1.1875 -3.515625 L 16.734375 -47.03125 C 16.960938 -47.6875 17.238281 -48.128906 17.5625 -48.359375 C 17.894531 -48.597656 18.4375 -48.71875 19.1875 -48.71875 L 30.4375 -48.71875 C 31.1875 -48.71875 31.722656 -48.597656 32.046875 -48.359375 C 32.378906 -48.128906 32.664062 -47.6875 32.90625 -47.03125 L 48.5 -3.515625 C 48.875 -2.484375 49.0625 -1.78125 49.0625 -1.40625 C 49.0625 -0.46875 48.453125 0 47.234375 0 L 36.6875 0 C 35.9375 0 35.382812 -0.140625 35.03125 -0.421875 C 34.6875 -0.703125 34.398438 -1.265625 34.171875 -2.109375 L 32.0625 -9.421875 L 17.015625 -9.421875 L 14.96875 -2.109375 C 14.738281 -1.265625 14.445312 -0.703125 14.09375 -0.421875 C 13.738281 -0.140625 13.1875 0 12.4375 0 Z M 2.453125 0 "/></g></g></g><g fill="#252f3e" fill-opacity="1"><g transform="translate(559.89118, 70.927014)"><g><path d="M 18.625 0 C 17.875 0 17.332031 -0.160156 17 -0.484375 C 16.675781 -0.816406 16.515625 -1.359375 16.515625 -2.109375 L 16.515625 -18.34375 L 1.828125 -45.203125 C 1.265625 -46.179688 0.984375 -46.882812 0.984375 -47.3125 C 0.984375 -48.25 1.59375 -48.71875 2.8125 -48.71875 L 12.796875 -48.71875 C 13.546875 -48.71875 14.140625 -48.578125 14.578125 -48.296875 C 15.023438 -48.015625 15.390625 -47.546875 15.671875 -46.890625 L 23.6875 -28.046875 L 31.84375 -46.890625 C 32.125 -47.546875 32.488281 -48.015625 32.9375 -48.296875 C 33.382812 -48.578125 33.984375 -48.71875 34.734375 -48.71875 L 44 -48.71875 C 45.21875 -48.71875 45.828125 -48.25 45.828125 -47.3125 C 45.828125 -46.882812 45.546875 -46.179688 44.984375 -45.203125 L 30.09375 -18.203125 L 30.09375 -2.109375 C 30.09375 -1.359375 29.9375 -0.816406 29.625 -0.484375 C 29.320312 -0.160156 28.773438 0 27.984375 0 Z M 18.625 0 "/></g></g></g></g></g><g transform="matrix(1, 0, 0, 1, 286, 194)"><g clip-path="url(#39bc7e0b7e)"><g fill="#ff9900" fill-opacity="1"><g transform="translate(1.011862, 26.058378)"><g><path d="M 10.65625 -3.59375 C 11.988281 -3.59375 12.992188 -4.054688 13.671875 -4.984375 C 14.359375 -5.921875 14.703125 -7.300781 14.703125 -9.125 C 14.703125 -10.96875 14.359375 -12.359375 13.671875 -13.296875 C 12.984375 -14.242188 11.976562 -14.71875 10.65625 -14.71875 C 9.332031 -14.71875 8.332031 -14.25 7.65625 -13.3125 C 6.976562 -12.382812 6.640625 -11.015625 6.640625 -9.203125 C 6.640625 -7.367188 6.976562 -5.972656 7.65625 -5.015625 C 8.332031 -4.066406 9.332031 -3.59375 10.65625 -3.59375 Z M 10.65625 0.453125 C 8.726562 0.453125 7.066406 0.0507812 5.671875 -0.75 C 4.285156 -1.550781 3.226562 -2.675781 2.5 -4.125 C 1.78125 -5.570312 1.421875 -7.265625 1.421875 -9.203125 C 1.421875 -11.191406 1.800781 -12.90625 2.5625 -14.34375 C 3.320312 -15.78125 4.394531 -16.875 5.78125 -17.625 C 7.164062 -18.382812 8.789062 -18.765625 10.65625 -18.765625 C 12.570312 -18.765625 14.226562 -18.367188 15.625 -17.578125 C 17.019531 -16.785156 18.082031 -15.664062 18.8125 -14.21875 C 19.539062 -12.78125 19.90625 -11.082031 19.90625 -9.125 C 19.90625 -7.132812 19.523438 -5.414062 18.765625 -3.96875 C 18.015625 -2.519531 16.941406 -1.421875 15.546875 -0.671875 C 14.148438 0.078125 12.519531 0.453125 10.65625 0.453125 Z M 10.65625 0.453125 "/></g></g></g><g fill="#ff9900" fill-opacity="1"><g transform="translate(22.336523, 26.058378)"><g><path d="M 10.703125 0.34375 C 7.671875 0.34375 5.363281 -0.457031 3.78125 -2.0625 C 2.207031 -3.664062 1.421875 -6.007812 1.421875 -9.09375 C 1.421875 -12.125 2.242188 -14.476562 3.890625 -16.15625 C 5.546875 -17.832031 7.84375 -18.671875 10.78125 -18.671875 C 12.195312 -18.671875 13.519531 -18.484375 14.75 -18.109375 C 15.03125 -18.023438 15.21875 -17.90625 15.3125 -17.75 C 15.414062 -17.601562 15.46875 -17.363281 15.46875 -17.03125 L 15.46875 -14.8125 C 15.46875 -14.332031 15.28125 -14.09375 14.90625 -14.09375 C 14.820312 -14.09375 14.601562 -14.132812 14.25 -14.21875 C 13.382812 -14.414062 12.519531 -14.515625 11.65625 -14.515625 C 10.039062 -14.515625 8.816406 -14.085938 7.984375 -13.234375 C 7.148438 -12.378906 6.734375 -11.113281 6.734375 -9.4375 L 6.734375 -8.859375 C 6.734375 -7.210938 7.132812 -5.957031 7.9375 -5.09375 C 8.738281 -4.238281 9.925781 -3.8125 11.5 -3.8125 C 12.59375 -3.8125 13.613281 -3.925781 14.5625 -4.15625 C 14.84375 -4.21875 15.046875 -4.25 15.171875 -4.25 C 15.546875 -4.25 15.734375 -4.015625 15.734375 -3.546875 L 15.734375 -1.328125 C 15.734375 -0.984375 15.679688 -0.738281 15.578125 -0.59375 C 15.484375 -0.445312 15.296875 -0.328125 15.015625 -0.234375 C 13.816406 0.148438 12.378906 0.34375 10.703125 0.34375 Z M 10.703125 0.34375 "/></g></g></g><g fill="#ff9900" fill-opacity="1"><g transform="translate(38.799056, 26.058378)"><g><path d="M 2.75 0 C 2.46875 0 2.265625 -0.0625 2.140625 -0.1875 C 2.015625 -0.3125 1.953125 -0.515625 1.953125 -0.796875 L 1.953125 -17.53125 C 1.953125 -17.832031 2.015625 -18.039062 2.140625 -18.15625 C 2.265625 -18.269531 2.46875 -18.328125 2.75 -18.328125 L 13.9375 -18.328125 C 14.226562 -18.328125 14.429688 -18.269531 14.546875 -18.15625 C 14.660156 -18.039062 14.71875 -17.832031 14.71875 -17.53125 L 14.71875 -15.25 C 14.71875 -14.96875 14.660156 -14.765625 14.546875 -14.640625 C 14.429688 -14.523438 14.226562 -14.46875 13.9375 -14.46875 L 6.921875 -14.46875 L 6.921875 -11.265625 L 12.484375 -11.265625 C 12.773438 -11.265625 12.976562 -11.207031 13.09375 -11.09375 C 13.207031 -10.976562 13.265625 -10.769531 13.265625 -10.46875 L 13.265625 -8.203125 C 13.265625 -7.910156 13.207031 -7.703125 13.09375 -7.578125 C 12.976562 -7.460938 12.773438 -7.40625 12.484375 -7.40625 L 6.921875 -7.40625 L 6.921875 -3.859375 L 13.984375 -3.859375 C 14.285156 -3.859375 14.492188 -3.800781 14.609375 -3.6875 C 14.722656 -3.570312 14.78125 -3.363281 14.78125 -3.0625 L 14.78125 -0.796875 C 14.78125 -0.515625 14.722656 -0.3125 14.609375 -0.1875 C 14.492188 -0.0625 14.285156 0 13.984375 0 Z M 2.75 0 "/></g></g></g><g fill="#ff9900" fill-opacity="1"><g transform="translate(54.865314, 26.058378)"><g><path d="M 11.109375 -7.140625 L 9.203125 -13.9375 L 7.34375 -7.140625 Z M 0.921875 0 C 0.460938 0 0.234375 -0.175781 0.234375 -0.53125 C 0.234375 -0.664062 0.304688 -0.929688 0.453125 -1.328125 L 6.296875 -17.6875 C 6.378906 -17.9375 6.484375 -18.101562 6.609375 -18.1875 C 6.734375 -18.28125 6.9375 -18.328125 7.21875 -18.328125 L 11.453125 -18.328125 C 11.734375 -18.328125 11.929688 -18.28125 12.046875 -18.1875 C 12.171875 -18.101562 12.28125 -17.9375 12.375 -17.6875 L 18.234375 -1.328125 C 18.378906 -0.929688 18.453125 -0.664062 18.453125 -0.53125 C 18.453125 -0.175781 18.222656 0 17.765625 0 L 13.796875 0 C 13.515625 0 13.304688 -0.0507812 13.171875 -0.15625 C 13.046875 -0.257812 12.9375 -0.472656 12.84375 -0.796875 L 12.0625 -3.546875 L 6.390625 -3.546875 L 5.625 -0.796875 C 5.539062 -0.472656 5.429688 -0.257812 5.296875 -0.15625 C 5.171875 -0.0507812 4.960938 0 4.671875 0 Z M 0.921875 0 "/></g></g></g><g fill="#ff9900" fill-opacity="1"><g transform="translate(73.547514, 26.058378)"><g><path d="M 2.75 0 C 2.46875 0 2.265625 -0.0625 2.140625 -0.1875 C 2.015625 -0.3125 1.953125 -0.515625 1.953125 -0.796875 L 1.953125 -17.53125 C 1.953125 -17.832031 2.015625 -18.039062 2.140625 -18.15625 C 2.265625 -18.269531 2.46875 -18.328125 2.75 -18.328125 L 6.484375 -18.328125 C 6.773438 -18.328125 6.992188 -18.28125 7.140625 -18.1875 C 7.296875 -18.101562 7.4375 -17.953125 7.5625 -17.734375 L 13.671875 -6.734375 L 13.671875 -17.53125 C 13.671875 -17.832031 13.726562 -18.039062 13.84375 -18.15625 C 13.96875 -18.269531 14.175781 -18.328125 14.46875 -18.328125 L 17.265625 -18.328125 C 17.566406 -18.328125 17.773438 -18.269531 17.890625 -18.15625 C 18.003906 -18.039062 18.0625 -17.832031 18.0625 -17.53125 L 18.0625 -0.796875 C 18.0625 -0.515625 18.003906 -0.3125 17.890625 -0.1875 C 17.773438 -0.0625 17.566406 0 17.265625 0 L 13.53125 0 C 13.238281 0 13.015625 -0.0390625 12.859375 -0.125 C 12.710938 -0.21875 12.578125 -0.367188 12.453125 -0.578125 L 6.34375 -11.46875 L 6.34375 -0.796875 C 6.34375 -0.515625 6.285156 -0.3125 6.171875 -0.1875 C 6.054688 -0.0625 5.847656 0 5.546875 0 Z M 2.75 0 "/></g></g></g><g fill="#ff9900" fill-opacity="1"><g transform="translate(93.550945, 26.058378)"><g><path d="M 2.859375 0 C 2.578125 0 2.375 -0.0625 2.25 -0.1875 C 2.125 -0.3125 2.0625 -0.515625 2.0625 -0.796875 L 2.0625 -17.53125 C 2.0625 -17.832031 2.125 -18.039062 2.25 -18.15625 C 2.375 -18.269531 2.578125 -18.328125 2.859375 -18.328125 L 6.375 -18.328125 C 6.675781 -18.328125 6.882812 -18.269531 7 -18.15625 C 7.113281 -18.039062 7.171875 -17.832031 7.171875 -17.53125 L 7.171875 -0.796875 C 7.171875 -0.515625 7.113281 -0.3125 7 -0.1875 C 6.882812 -0.0625 6.675781 0 6.375 0 Z M 2.859375 0 "/></g></g></g><g fill="#ff9900" fill-opacity="1"><g transform="translate(102.773137, 26.058378)"><g><path d="M 11.109375 -7.140625 L 9.203125 -13.9375 L 7.34375 -7.140625 Z M 0.921875 0 C 0.460938 0 0.234375 -0.175781 0.234375 -0.53125 C 0.234375 -0.664062 0.304688 -0.929688 0.453125 -1.328125 L 6.296875 -17.6875 C 6.378906 -17.9375 6.484375 -18.101562 6.609375 -18.1875 C 6.734375 -18.28125 6.9375 -18.328125 7.21875 -18.328125 L 11.453125 -18.328125 C 11.734375 -18.328125 11.929688 -18.28125 12.046875 -18.1875 C 12.171875 -18.101562 12.28125 -17.9375 12.375 -17.6875 L 18.234375 -1.328125 C 18.378906 -0.929688 18.453125 -0.664062 18.453125 -0.53125 C 18.453125 -0.175781 18.222656 0 17.765625 0 L 13.796875 0 C 13.515625 0 13.304688 -0.0507812 13.171875 -0.15625 C 13.046875 -0.257812 12.9375 -0.472656 12.84375 -0.796875 L 12.0625 -3.546875 L 6.390625 -3.546875 L 5.625 -0.796875 C 5.539062 -0.472656 5.429688 -0.257812 5.296875 -0.15625 C 5.171875 -0.0507812 4.960938 0 4.671875 0 Z M 0.921875 0 "/></g></g></g></g></g><path stroke-linecap="round" transform="matrix(0.749179, 0.00429602, -0.00429602, 0.749179, 99.910928, 210.328893)" fill="none" stroke-linejoin="miter" d="M 1.000582 0.999547 L 173.392332 1.001668 " stroke="#252f3e" stroke-width="2" stroke-opacity="1" stroke-miterlimit="4"/><path stroke-linecap="round" transform="matrix(0.749179, 0.00429602, -0.00429602, 0.749179, 463.939515, 210.703489)" fill="none" stroke-linejoin="miter" d="M 0.998927 1.000096 L 173.390676 1.002217 " stroke="#252f3e" stroke-width="2" stroke-opacity="1" stroke-miterlimit="4"/></svg>