<svg xmlns="http://www.w3.org/2000/svg" xmlns:xlink="http://www.w3.org/1999/xlink" width="64" zoomAndPan="magnify" viewBox="0 0 48 48" height="64" preserveAspectRatio="xMidYMid meet" version="1.0"><defs><clipPath id="4fc1f4ec29"><path d="M 4 10.695312 L 44 10.695312 L 44 25 L 4 25 Z M 4 10.695312 " clip-rule="nonzero"/></clipPath><clipPath id="a16384218d"><path d="M 2.839844 27 L 42 27 L 42 36.410156 L 2.839844 36.410156 Z M 2.839844 27 " clip-rule="nonzero"/></clipPath><clipPath id="2fdf5cf7e2"><path d="M 37 26 L 45.453125 26 L 45.453125 35 L 37 35 Z M 37 26 " clip-rule="nonzero"/></clipPath></defs><g clip-path="url(#4fc1f4ec29)"><path fill="#000000" d="M 14.851562 20.21875 C 14.851562 20.746094 14.90625 21.171875 15.007812 21.484375 C 15.117188 21.796875 15.261719 22.136719 15.460938 22.507812 C 15.523438 22.609375 15.554688 22.714844 15.558594 22.835938 C 15.558594 22.976562 15.472656 23.121094 15.292969 23.261719 L 14.398438 23.859375 C 14.285156 23.9375 14.164062 23.980469 14.027344 23.984375 C 13.886719 23.984375 13.746094 23.917969 13.601562 23.789062 C 13.410156 23.582031 13.242188 23.359375 13.089844 23.121094 C 12.933594 22.847656 12.789062 22.566406 12.65625 22.28125 C 11.546875 23.589844 10.160156 24.246094 8.488281 24.246094 C 7.296875 24.246094 6.34375 23.902344 5.652344 23.21875 C 4.957031 22.535156 4.605469 21.625 4.605469 20.488281 C 4.605469 19.28125 5.03125 18.300781 5.894531 17.558594 C 6.757812 16.820312 7.90625 16.453125 9.367188 16.453125 C 9.84375 16.453125 10.34375 16.492188 10.867188 16.5625 C 11.390625 16.636719 11.933594 16.75 12.496094 16.878906 L 12.496094 15.839844 C 12.496094 14.757812 12.269531 14.003906 11.832031 13.566406 C 11.378906 13.121094 10.613281 12.910156 9.519531 12.910156 C 9.023438 12.910156 8.515625 12.96875 7.992188 13.097656 C 7.46875 13.21875 6.960938 13.378906 6.460938 13.578125 C 6.300781 13.652344 6.132812 13.714844 5.964844 13.765625 C 5.890625 13.789062 5.816406 13.804688 5.738281 13.808594 C 5.539062 13.808594 5.441406 13.664062 5.441406 13.363281 L 5.441406 12.667969 C 5.441406 12.441406 5.46875 12.265625 5.539062 12.171875 C 5.648438 12.039062 5.78125 11.9375 5.9375 11.871094 C 6.429688 11.613281 7.027344 11.402344 7.722656 11.230469 C 8.414062 11.046875 9.152344 10.960938 9.933594 10.960938 C 11.617188 10.960938 12.851562 11.347656 13.644531 12.113281 C 14.425781 12.878906 14.824219 14.046875 14.824219 15.613281 L 14.824219 20.21875 Z M 9.097656 22.378906 C 9.5625 22.378906 10.046875 22.292969 10.554688 22.125 C 11.066406 21.953125 11.519531 21.640625 11.902344 21.214844 C 12.132812 20.949219 12.292969 20.644531 12.382812 20.304688 C 12.46875 19.960938 12.527344 19.550781 12.527344 19.066406 L 12.527344 18.46875 C 12.097656 18.367188 11.660156 18.285156 11.222656 18.230469 C 10.78125 18.171875 10.335938 18.144531 9.890625 18.144531 C 8.941406 18.144531 8.246094 18.328125 7.777344 18.710938 C 7.308594 19.097656 7.085938 19.636719 7.085938 20.347656 C 7.085938 21.011719 7.253906 21.511719 7.609375 21.855469 C 7.949219 22.210938 8.445312 22.378906 9.097656 22.378906 Z M 20.476562 23.917969 C 20.222656 23.917969 20.050781 23.875 19.9375 23.773438 C 19.824219 23.6875 19.726562 23.492188 19.640625 23.21875 L 16.3125 12.226562 C 16.246094 12.042969 16.203125 11.851562 16.183594 11.65625 C 16.183594 11.429688 16.296875 11.304688 16.523438 11.304688 L 17.914062 11.304688 C 18.179688 11.304688 18.363281 11.347656 18.464844 11.445312 C 18.578125 11.53125 18.664062 11.730469 18.75 12 L 21.128906 21.414062 L 23.339844 12 C 23.410156 11.714844 23.496094 11.53125 23.609375 11.445312 C 23.785156 11.335938 23.972656 11.289062 24.175781 11.304688 L 25.3125 11.304688 C 25.578125 11.304688 25.761719 11.347656 25.875 11.445312 C 25.988281 11.53125 26.089844 11.730469 26.148438 12 L 28.382812 21.527344 L 30.835938 12 C 30.878906 11.789062 30.976562 11.605469 31.121094 11.445312 C 31.289062 11.335938 31.472656 11.289062 31.671875 11.304688 L 32.992188 11.304688 C 33.21875 11.304688 33.347656 11.417969 33.347656 11.65625 C 33.347656 11.730469 33.328125 11.800781 33.320312 11.886719 C 33.296875 12.007812 33.261719 12.125 33.21875 12.242188 L 29.800781 23.230469 C 29.71875 23.515625 29.617188 23.703125 29.503906 23.789062 C 29.339844 23.894531 29.160156 23.941406 28.964844 23.929688 L 27.746094 23.929688 C 27.480469 23.929688 27.292969 23.886719 27.179688 23.789062 C 27.066406 23.6875 26.96875 23.503906 26.910156 23.21875 L 24.714844 14.050781 L 22.53125 23.207031 C 22.460938 23.492188 22.375 23.675781 22.265625 23.777344 C 22.148438 23.875 21.949219 23.917969 21.695312 23.917969 Z M 38.6875 24.300781 C 37.949219 24.300781 37.222656 24.214844 36.503906 24.042969 C 35.796875 23.875 35.246094 23.6875 34.875 23.472656 C 34.648438 23.347656 34.492188 23.207031 34.433594 23.074219 C 34.378906 22.949219 34.351562 22.816406 34.351562 22.679688 L 34.351562 21.953125 C 34.351562 21.65625 34.464844 21.511719 34.675781 21.511719 C 34.765625 21.511719 34.851562 21.527344 34.933594 21.554688 C 35.019531 21.582031 35.144531 21.640625 35.289062 21.699219 C 35.765625 21.910156 36.292969 22.082031 36.84375 22.195312 C 37.414062 22.308594 37.964844 22.367188 38.53125 22.367188 C 39.425781 22.367188 40.117188 22.210938 40.601562 21.898438 C 40.835938 21.753906 41.019531 21.5625 41.152344 21.320312 C 41.285156 21.078125 41.347656 20.820312 41.339844 20.546875 C 41.347656 20.160156 41.21875 19.828125 40.953125 19.550781 C 40.703125 19.28125 40.21875 19.039062 39.523438 18.8125 L 37.46875 18.171875 C 36.433594 17.84375 35.667969 17.359375 35.203125 16.71875 C 34.734375 16.113281 34.496094 15.425781 34.492188 14.660156 C 34.492188 14.0625 34.621094 13.535156 34.875 13.078125 C 35.128906 12.628906 35.472656 12.226562 35.898438 11.914062 C 36.324219 11.589844 36.804688 11.347656 37.371094 11.175781 C 37.9375 11.003906 38.53125 10.933594 39.15625 10.933594 C 39.46875 10.933594 39.792969 10.945312 40.105469 10.988281 C 40.429688 11.03125 40.726562 11.089844 41.027344 11.148438 C 41.308594 11.21875 41.582031 11.289062 41.832031 11.375 C 42.089844 11.460938 42.285156 11.546875 42.429688 11.632812 C 42.601562 11.714844 42.742188 11.835938 42.855469 11.984375 C 42.949219 12.128906 42.992188 12.285156 42.980469 12.453125 L 42.980469 13.121094 C 42.980469 13.421875 42.871094 13.578125 42.65625 13.578125 C 42.464844 13.554688 42.285156 13.5 42.117188 13.40625 C 41.253906 13.023438 40.34375 12.839844 39.398438 12.851562 C 38.589844 12.851562 37.949219 12.980469 37.511719 13.253906 C 37.070312 13.519531 36.84375 13.933594 36.84375 14.519531 C 36.84375 14.914062 36.988281 15.253906 37.273438 15.527344 C 37.554688 15.796875 38.078125 16.066406 38.828125 16.308594 L 40.84375 16.945312 C 41.863281 17.273438 42.601562 17.730469 43.039062 18.3125 C 43.480469 18.894531 43.691406 19.566406 43.691406 20.304688 C 43.691406 20.917969 43.566406 21.46875 43.324219 21.953125 C 43.070312 22.445312 42.722656 22.863281 42.289062 23.207031 C 41.851562 23.558594 41.324219 23.816406 40.714844 24 C 40.074219 24.203125 39.410156 24.300781 38.6875 24.300781 Z M 38.6875 24.300781 " fill-opacity="1" fill-rule="nonzero"/></g><g clip-path="url(#a16384218d)"><path fill="#000000" d="M 41.363281 31.207031 C 36.703125 34.664062 29.929688 36.496094 24.105469 36.496094 C 15.941406 36.496094 8.585938 33.46875 3.03125 28.4375 C 2.589844 28.035156 2.988281 27.496094 3.507812 27.808594 C 9.519531 31.308594 16.933594 33.425781 24.601562 33.425781 C 29.773438 33.425781 35.457031 32.347656 40.6875 30.128906 C 41.464844 29.773438 42.132812 30.640625 41.363281 31.207031 Z M 41.363281 31.207031 " fill-opacity="1" fill-rule="evenodd"/></g><g clip-path="url(#2fdf5cf7e2)"><path fill="#000000" d="M 43.304688 28.988281 C 42.710938 28.226562 39.367188 28.621094 37.851562 28.804688 C 37.398438 28.863281 37.328125 28.464844 37.738281 28.167969 C 40.402344 26.289062 44.78125 26.832031 45.289062 27.457031 C 45.800781 28.09375 45.148438 32.488281 42.652344 34.59375 C 42.273438 34.921875 41.90625 34.753906 42.074219 34.328125 C 42.640625 32.914062 43.902344 29.746094 43.304688 28.992188 Z M 43.304688 28.988281 " fill-opacity="1" fill-rule="evenodd"/></g></svg>