<svg xmlns="http://www.w3.org/2000/svg" xmlns:xlink="http://www.w3.org/1999/xlink" width="64" zoomAndPan="magnify" viewBox="0 0 48 48" height="64" preserveAspectRatio="xMidYMid meet" version="1.0"><defs><g/><clipPath id="61ee9bd1b8"><rect x="0" width="44" y="0" height="14"/></clipPath><clipPath id="6a66754d4f"><path d="M 2 4 L 47.507812 4 L 47.507812 27 L 2 27 Z M 2 4 " clip-rule="nonzero"/></clipPath><clipPath id="7929eab831"><path d="M 28 0.9375 L 45.039062 0.9375 L 45.039062 16 L 28 16 Z M 28 0.9375 " clip-rule="nonzero"/></clipPath><clipPath id="a9bf264aad"><path d="M 0.113281 4 L 8 4 L 8 13 L 0.113281 13 Z M 0.113281 4 " clip-rule="nonzero"/></clipPath><clipPath id="ec018f7a98"><rect x="0" width="18" y="0" height="16"/></clipPath><clipPath id="ae5f88dfa0"><path d="M 1 4 L 29 4 L 29 13.121094 L 1 13.121094 Z M 1 4 " clip-rule="nonzero"/></clipPath><clipPath id="93d7bbd4d8"><path d="M 0.175781 15.1875 L 27 15.1875 L 27 22 L 0.175781 22 Z M 0.175781 15.1875 " clip-rule="nonzero"/></clipPath><clipPath id="2c9bc50d94"><path d="M 23 15.1875 L 29.332031 15.1875 L 29.332031 21 L 23 21 Z M 23 15.1875 " clip-rule="nonzero"/></clipPath><clipPath id="4a930e9137"><rect x="0" width="46" y="0" height="23"/></clipPath></defs><g transform="matrix(1, 0, 0, 1, 2, 29)"><g clip-path="url(#61ee9bd1b8)"><g fill="#ff9900" fill-opacity="1"><g transform="translate(0.498014, 10.83503)"><g><path d="M 4.421875 -1.484375 C 4.972656 -1.484375 5.390625 -1.675781 5.671875 -2.0625 C 5.953125 -2.457031 6.09375 -3.03125 6.09375 -3.78125 C 6.09375 -4.550781 5.953125 -5.128906 5.671875 -5.515625 C 5.390625 -5.910156 4.972656 -6.109375 4.421875 -6.109375 C 3.867188 -6.109375 3.453125 -5.914062 3.171875 -5.53125 C 2.890625 -5.144531 2.75 -4.570312 2.75 -3.8125 C 2.75 -3.050781 2.890625 -2.472656 3.171875 -2.078125 C 3.453125 -1.679688 3.867188 -1.484375 4.421875 -1.484375 Z M 4.421875 0.1875 C 3.617188 0.1875 2.925781 0.0195312 2.34375 -0.3125 C 1.769531 -0.644531 1.332031 -1.109375 1.03125 -1.703125 C 0.738281 -2.304688 0.59375 -3.007812 0.59375 -3.8125 C 0.59375 -4.644531 0.75 -5.359375 1.0625 -5.953125 C 1.375 -6.546875 1.816406 -7 2.390625 -7.3125 C 2.960938 -7.625 3.640625 -7.78125 4.421875 -7.78125 C 5.210938 -7.78125 5.894531 -7.613281 6.46875 -7.28125 C 7.050781 -6.957031 7.492188 -6.492188 7.796875 -5.890625 C 8.109375 -5.296875 8.265625 -4.59375 8.265625 -3.78125 C 8.265625 -2.957031 8.101562 -2.242188 7.78125 -1.640625 C 7.46875 -1.046875 7.019531 -0.59375 6.4375 -0.28125 C 5.863281 0.03125 5.191406 0.1875 4.421875 0.1875 Z M 4.421875 0.1875 "/></g></g></g><g fill="#ff9900" fill-opacity="1"><g transform="translate(9.352486, 10.83503)"><g><path d="M 3.3125 0.125 C 2.363281 0.125 1.644531 -0.117188 1.15625 -0.609375 C 0.664062 -1.109375 0.421875 -1.832031 0.421875 -2.78125 C 0.421875 -3.726562 0.679688 -4.460938 1.203125 -4.984375 C 1.722656 -5.503906 2.457031 -5.765625 3.40625 -5.765625 C 3.894531 -5.765625 4.332031 -5.691406 4.71875 -5.546875 C 4.832031 -5.492188 4.910156 -5.4375 4.953125 -5.375 C 4.992188 -5.320312 5.015625 -5.226562 5.015625 -5.09375 L 5.015625 -4.453125 C 5.015625 -4.253906 4.9375 -4.15625 4.78125 -4.15625 C 4.75 -4.15625 4.660156 -4.175781 4.515625 -4.21875 C 4.273438 -4.269531 4.039062 -4.296875 3.8125 -4.296875 C 3.363281 -4.296875 3.03125 -4.179688 2.8125 -3.953125 C 2.601562 -3.734375 2.5 -3.378906 2.5 -2.890625 L 2.5 -2.734375 C 2.5 -2.265625 2.601562 -1.914062 2.8125 -1.6875 C 3.03125 -1.457031 3.351562 -1.34375 3.78125 -1.34375 C 3.894531 -1.34375 4.023438 -1.351562 4.171875 -1.375 C 4.328125 -1.394531 4.445312 -1.421875 4.53125 -1.453125 C 4.675781 -1.484375 4.765625 -1.5 4.796875 -1.5 C 4.953125 -1.5 5.03125 -1.398438 5.03125 -1.203125 L 5.03125 -0.578125 C 5.03125 -0.429688 5.007812 -0.328125 4.96875 -0.265625 C 4.925781 -0.210938 4.847656 -0.164062 4.734375 -0.125 C 4.296875 0.0390625 3.820312 0.125 3.3125 0.125 Z M 3.3125 0.125 "/></g></g></g><g fill="#ff9900" fill-opacity="1"><g transform="translate(14.619079, 10.83503)"><g><path d="M 3.375 0.171875 C 1.40625 0.171875 0.421875 -0.820312 0.421875 -2.8125 C 0.421875 -3.75 0.671875 -4.484375 1.171875 -5.015625 C 1.679688 -5.546875 2.382812 -5.8125 3.28125 -5.8125 C 4.039062 -5.8125 4.628906 -5.609375 5.046875 -5.203125 C 5.460938 -4.796875 5.671875 -4.21875 5.671875 -3.46875 C 5.671875 -3.207031 5.648438 -2.925781 5.609375 -2.625 C 5.585938 -2.507812 5.550781 -2.425781 5.5 -2.375 C 5.445312 -2.320312 5.363281 -2.296875 5.25 -2.296875 L 2.296875 -2.296875 C 2.328125 -1.929688 2.460938 -1.664062 2.703125 -1.5 C 2.953125 -1.34375 3.320312 -1.265625 3.8125 -1.265625 C 4.207031 -1.265625 4.609375 -1.320312 5.015625 -1.4375 C 5.128906 -1.46875 5.21875 -1.484375 5.28125 -1.484375 C 5.445312 -1.484375 5.53125 -1.390625 5.53125 -1.203125 L 5.53125 -0.609375 C 5.53125 -0.472656 5.507812 -0.375 5.46875 -0.3125 C 5.4375 -0.257812 5.359375 -0.207031 5.234375 -0.15625 C 4.992188 -0.0625 4.695312 0.015625 4.34375 0.078125 C 4 0.140625 3.675781 0.171875 3.375 0.171875 Z M 3.9375 -3.484375 L 3.9375 -3.625 C 3.9375 -4.164062 3.695312 -4.4375 3.21875 -4.4375 C 2.957031 -4.4375 2.742188 -4.351562 2.578125 -4.1875 C 2.421875 -4.03125 2.328125 -3.796875 2.296875 -3.484375 Z M 3.9375 -3.484375 "/></g></g></g><g fill="#ff9900" fill-opacity="1"><g transform="translate(20.697613, 10.83503)"><g><path d="M 2.15625 0.203125 C 1.613281 0.203125 1.175781 0.046875 0.84375 -0.265625 C 0.507812 -0.585938 0.34375 -1.007812 0.34375 -1.53125 C 0.34375 -1.90625 0.441406 -2.234375 0.640625 -2.515625 C 0.835938 -2.796875 1.109375 -3.007812 1.453125 -3.15625 C 1.796875 -3.3125 2.1875 -3.390625 2.625 -3.390625 C 2.988281 -3.390625 3.320312 -3.359375 3.625 -3.296875 L 3.625 -3.578125 C 3.625 -3.878906 3.550781 -4.085938 3.40625 -4.203125 C 3.269531 -4.328125 3.023438 -4.390625 2.671875 -4.390625 C 2.484375 -4.390625 2.265625 -4.367188 2.015625 -4.328125 C 1.765625 -4.285156 1.539062 -4.234375 1.34375 -4.171875 C 1.175781 -4.128906 1.0625 -4.109375 1 -4.109375 C 0.863281 -4.109375 0.796875 -4.203125 0.796875 -4.390625 L 0.796875 -5 C 0.796875 -5.132812 0.8125 -5.226562 0.84375 -5.28125 C 0.882812 -5.34375 0.96875 -5.398438 1.09375 -5.453125 C 1.695312 -5.691406 2.394531 -5.8125 3.1875 -5.8125 C 4 -5.8125 4.59375 -5.648438 4.96875 -5.328125 C 5.34375 -5.003906 5.53125 -4.488281 5.53125 -3.78125 L 5.53125 -0.328125 C 5.53125 -0.210938 5.503906 -0.128906 5.453125 -0.078125 C 5.410156 -0.0234375 5.328125 0 5.203125 0 L 4.1875 0 C 4.082031 0 4.003906 -0.0195312 3.953125 -0.0625 C 3.898438 -0.101562 3.851562 -0.175781 3.8125 -0.28125 L 3.765625 -0.4375 C 3.546875 -0.226562 3.296875 -0.0703125 3.015625 0.03125 C 2.734375 0.144531 2.445312 0.203125 2.15625 0.203125 Z M 2.828125 -1.109375 C 2.960938 -1.109375 3.101562 -1.140625 3.25 -1.203125 C 3.40625 -1.265625 3.53125 -1.34375 3.625 -1.4375 L 3.625 -2.25 C 3.375 -2.28125 3.171875 -2.296875 3.015625 -2.296875 C 2.523438 -2.296875 2.28125 -2.085938 2.28125 -1.671875 C 2.28125 -1.503906 2.328125 -1.367188 2.421875 -1.265625 C 2.523438 -1.160156 2.660156 -1.109375 2.828125 -1.109375 Z M 2.828125 -1.109375 "/></g></g></g><g fill="#ff9900" fill-opacity="1"><g transform="translate(26.907815, 10.83503)"><g><path d="M 1.03125 0 C 0.914062 0 0.832031 -0.0234375 0.78125 -0.078125 C 0.726562 -0.128906 0.703125 -0.210938 0.703125 -0.328125 L 0.703125 -5.3125 C 0.703125 -5.4375 0.726562 -5.523438 0.78125 -5.578125 C 0.832031 -5.628906 0.914062 -5.65625 1.03125 -5.65625 L 2.09375 -5.65625 C 2.195312 -5.65625 2.273438 -5.632812 2.328125 -5.59375 C 2.378906 -5.550781 2.425781 -5.472656 2.46875 -5.359375 L 2.5625 -5.078125 C 2.90625 -5.335938 3.238281 -5.523438 3.5625 -5.640625 C 3.894531 -5.753906 4.242188 -5.8125 4.609375 -5.8125 C 5.128906 -5.8125 5.53125 -5.664062 5.8125 -5.375 C 6.09375 -5.09375 6.234375 -4.691406 6.234375 -4.171875 L 6.234375 -0.328125 C 6.234375 -0.210938 6.207031 -0.128906 6.15625 -0.078125 C 6.113281 -0.0234375 6.03125 0 5.90625 0 L 4.5 0 C 4.382812 0 4.300781 -0.0234375 4.25 -0.078125 C 4.195312 -0.128906 4.171875 -0.210938 4.171875 -0.328125 L 4.171875 -3.703125 C 4.171875 -3.921875 4.128906 -4.082031 4.046875 -4.1875 C 3.960938 -4.289062 3.820312 -4.34375 3.625 -4.34375 C 3.351562 -4.34375 3.066406 -4.25 2.765625 -4.0625 L 2.765625 -0.328125 C 2.765625 -0.210938 2.738281 -0.128906 2.6875 -0.078125 C 2.644531 -0.0234375 2.5625 0 2.4375 0 Z M 1.03125 0 "/></g></g></g><g fill="#ff9900" fill-opacity="1"><g transform="translate(33.820226, 10.83503)"><g><path d="M 1.03125 0 C 0.914062 0 0.832031 -0.0234375 0.78125 -0.078125 C 0.726562 -0.128906 0.703125 -0.210938 0.703125 -0.328125 L 0.703125 -5.3125 C 0.703125 -5.4375 0.726562 -5.523438 0.78125 -5.578125 C 0.832031 -5.628906 0.914062 -5.65625 1.03125 -5.65625 L 2.4375 -5.65625 C 2.5625 -5.65625 2.644531 -5.628906 2.6875 -5.578125 C 2.738281 -5.523438 2.765625 -5.4375 2.765625 -5.3125 L 2.765625 -0.328125 C 2.765625 -0.210938 2.738281 -0.128906 2.6875 -0.078125 C 2.644531 -0.0234375 2.5625 0 2.4375 0 Z M 1.734375 -6.359375 C 1.378906 -6.359375 1.097656 -6.453125 0.890625 -6.640625 C 0.679688 -6.835938 0.578125 -7.09375 0.578125 -7.40625 C 0.578125 -7.71875 0.679688 -7.96875 0.890625 -8.15625 C 1.097656 -8.351562 1.378906 -8.453125 1.734375 -8.453125 C 2.085938 -8.453125 2.367188 -8.351562 2.578125 -8.15625 C 2.785156 -7.96875 2.890625 -7.71875 2.890625 -7.40625 C 2.890625 -7.09375 2.785156 -6.835938 2.578125 -6.640625 C 2.367188 -6.453125 2.085938 -6.359375 1.734375 -6.359375 Z M 1.734375 -6.359375 "/></g></g></g><g fill="#ff9900" fill-opacity="1"><g transform="translate(37.287407, 10.83503)"><g><path d="M 2.15625 0.203125 C 1.613281 0.203125 1.175781 0.046875 0.84375 -0.265625 C 0.507812 -0.585938 0.34375 -1.007812 0.34375 -1.53125 C 0.34375 -1.90625 0.441406 -2.234375 0.640625 -2.515625 C 0.835938 -2.796875 1.109375 -3.007812 1.453125 -3.15625 C 1.796875 -3.3125 2.1875 -3.390625 2.625 -3.390625 C 2.988281 -3.390625 3.320312 -3.359375 3.625 -3.296875 L 3.625 -3.578125 C 3.625 -3.878906 3.550781 -4.085938 3.40625 -4.203125 C 3.269531 -4.328125 3.023438 -4.390625 2.671875 -4.390625 C 2.484375 -4.390625 2.265625 -4.367188 2.015625 -4.328125 C 1.765625 -4.285156 1.539062 -4.234375 1.34375 -4.171875 C 1.175781 -4.128906 1.0625 -4.109375 1 -4.109375 C 0.863281 -4.109375 0.796875 -4.203125 0.796875 -4.390625 L 0.796875 -5 C 0.796875 -5.132812 0.8125 -5.226562 0.84375 -5.28125 C 0.882812 -5.34375 0.96875 -5.398438 1.09375 -5.453125 C 1.695312 -5.691406 2.394531 -5.8125 3.1875 -5.8125 C 4 -5.8125 4.59375 -5.648438 4.96875 -5.328125 C 5.34375 -5.003906 5.53125 -4.488281 5.53125 -3.78125 L 5.53125 -0.328125 C 5.53125 -0.210938 5.503906 -0.128906 5.453125 -0.078125 C 5.410156 -0.0234375 5.328125 0 5.203125 0 L 4.1875 0 C 4.082031 0 4.003906 -0.0195312 3.953125 -0.0625 C 3.898438 -0.101562 3.851562 -0.175781 3.8125 -0.28125 L 3.765625 -0.4375 C 3.546875 -0.226562 3.296875 -0.0703125 3.015625 0.03125 C 2.734375 0.144531 2.445312 0.203125 2.15625 0.203125 Z M 2.828125 -1.109375 C 2.960938 -1.109375 3.101562 -1.140625 3.25 -1.203125 C 3.40625 -1.265625 3.53125 -1.34375 3.625 -1.4375 L 3.625 -2.25 C 3.375 -2.28125 3.171875 -2.296875 3.015625 -2.296875 C 2.523438 -2.296875 2.28125 -2.085938 2.28125 -1.671875 C 2.28125 -1.503906 2.328125 -1.367188 2.421875 -1.265625 C 2.523438 -1.160156 2.660156 -1.109375 2.828125 -1.109375 Z M 2.828125 -1.109375 "/></g></g></g></g></g><g clip-path="url(#6a66754d4f)"><g transform="matrix(1, 0, 0, 1, 2, 4)"><g clip-path="url(#4a930e9137)"><g clip-path="url(#7929eab831)"><g transform="matrix(1, 0, 0, 1, 28, 0.000000000000003553)"><g clip-path="url(#ec018f7a98)"><g clip-path="url(#a9bf264aad)"><g fill="#ff9900" fill-opacity="1"><g transform="translate(0.197377, 12.707776)"><g><path d="M 4.984375 0.15625 C 3.566406 0.15625 2.488281 -0.210938 1.75 -0.953125 C 1.019531 -1.703125 0.65625 -2.796875 0.65625 -4.234375 C 0.65625 -5.640625 1.039062 -6.734375 1.8125 -7.515625 C 2.582031 -8.296875 3.648438 -8.6875 5.015625 -8.6875 C 5.671875 -8.6875 6.285156 -8.597656 6.859375 -8.421875 C 6.992188 -8.378906 7.082031 -8.320312 7.125 -8.25 C 7.164062 -8.1875 7.1875 -8.078125 7.1875 -7.921875 L 7.1875 -6.890625 C 7.1875 -6.660156 7.101562 -6.546875 6.9375 -6.546875 C 6.894531 -6.546875 6.789062 -6.566406 6.625 -6.609375 C 6.226562 -6.703125 5.828125 -6.75 5.421875 -6.75 C 4.671875 -6.75 4.101562 -6.550781 3.71875 -6.15625 C 3.332031 -5.757812 3.140625 -5.171875 3.140625 -4.390625 L 3.140625 -4.125 C 3.140625 -3.351562 3.320312 -2.765625 3.6875 -2.359375 C 4.0625 -1.960938 4.613281 -1.765625 5.34375 -1.765625 C 5.851562 -1.765625 6.332031 -1.820312 6.78125 -1.9375 C 6.90625 -1.96875 7 -1.984375 7.0625 -1.984375 C 7.226562 -1.984375 7.3125 -1.867188 7.3125 -1.640625 L 7.3125 -0.609375 C 7.3125 -0.453125 7.289062 -0.335938 7.25 -0.265625 C 7.207031 -0.203125 7.117188 -0.148438 6.984375 -0.109375 C 6.429688 0.0664062 5.765625 0.15625 4.984375 0.15625 Z M 4.984375 0.15625 "/></g></g></g></g><g fill="#ff9900" fill-opacity="1"><g transform="translate(7.852059, 12.707776)"><g><path d="M 1.28125 0 C 1.144531 0 1.046875 -0.0234375 0.984375 -0.078125 C 0.929688 -0.140625 0.90625 -0.238281 0.90625 -0.375 L 0.90625 -8.15625 C 0.90625 -8.289062 0.929688 -8.382812 0.984375 -8.4375 C 1.046875 -8.488281 1.144531 -8.515625 1.28125 -8.515625 L 4.25 -8.515625 C 5.550781 -8.515625 6.5625 -8.144531 7.28125 -7.40625 C 8.007812 -6.675781 8.375 -5.628906 8.375 -4.265625 C 8.375 -3.367188 8.210938 -2.597656 7.890625 -1.953125 C 7.578125 -1.316406 7.117188 -0.832031 6.515625 -0.5 C 5.921875 -0.164062 5.210938 0 4.390625 0 Z M 3.28125 -1.8125 L 4.09375 -1.8125 C 5.332031 -1.8125 5.953125 -2.59375 5.953125 -4.15625 L 5.953125 -4.375 C 5.953125 -5.925781 5.34375 -6.703125 4.125 -6.703125 L 3.28125 -6.703125 Z M 3.28125 -1.8125 "/></g></g></g></g></g></g><g clip-path="url(#ae5f88dfa0)"><path fill="#000000" d="M 8.394531 10.453125 C 8.394531 10.8125 8.429688 11.105469 8.5 11.320312 C 8.574219 11.535156 8.675781 11.765625 8.808594 12.019531 C 8.851562 12.089844 8.875 12.164062 8.875 12.246094 C 8.875 12.339844 8.816406 12.441406 8.695312 12.535156 L 8.082031 12.945312 C 8.007812 13 7.921875 13.027344 7.832031 13.03125 C 7.730469 13.03125 7.636719 12.984375 7.539062 12.898438 C 7.40625 12.753906 7.289062 12.601562 7.1875 12.441406 C 7.082031 12.253906 6.980469 12.0625 6.890625 11.867188 C 6.132812 12.761719 5.183594 13.207031 4.039062 13.207031 C 3.222656 13.207031 2.574219 12.972656 2.097656 12.507812 C 1.625 12.039062 1.378906 11.417969 1.378906 10.640625 C 1.378906 9.8125 1.671875 9.140625 2.261719 8.632812 C 2.855469 8.128906 3.640625 7.875 4.640625 7.875 C 4.96875 7.875 5.308594 7.90625 5.667969 7.953125 C 6.027344 8 6.394531 8.082031 6.78125 8.167969 L 6.78125 7.457031 C 6.78125 6.71875 6.628906 6.203125 6.328125 5.902344 C 6.015625 5.597656 5.492188 5.453125 4.746094 5.453125 C 4.40625 5.453125 4.058594 5.492188 3.699219 5.578125 C 3.339844 5.664062 2.992188 5.773438 2.652344 5.910156 C 2.539062 5.960938 2.429688 6.003906 2.3125 6.039062 C 2.261719 6.054688 2.210938 6.0625 2.15625 6.066406 C 2.019531 6.066406 1.953125 5.96875 1.953125 5.765625 L 1.953125 5.285156 C 1.953125 5.132812 1.972656 5.011719 2.019531 4.949219 C 2.09375 4.855469 2.1875 4.789062 2.292969 4.742188 C 2.632812 4.566406 3.039062 4.421875 3.515625 4.304688 C 3.988281 4.175781 4.492188 4.121094 5.027344 4.121094 C 6.179688 4.121094 7.023438 4.382812 7.566406 4.90625 C 8.101562 5.433594 8.375 6.230469 8.375 7.300781 L 8.375 10.453125 Z M 4.457031 11.933594 C 4.773438 11.933594 5.105469 11.875 5.453125 11.757812 C 5.804688 11.640625 6.113281 11.425781 6.375 11.132812 C 6.53125 10.953125 6.644531 10.746094 6.703125 10.511719 C 6.761719 10.277344 6.800781 9.996094 6.800781 9.664062 L 6.800781 9.257812 C 6.507812 9.1875 6.210938 9.132812 5.910156 9.09375 C 5.605469 9.054688 5.304688 9.035156 5 9.035156 C 4.347656 9.035156 3.875 9.160156 3.554688 9.421875 C 3.230469 9.6875 3.078125 10.054688 3.078125 10.542969 C 3.078125 10.996094 3.195312 11.339844 3.4375 11.574219 C 3.667969 11.816406 4.007812 11.933594 4.457031 11.933594 Z M 12.242188 12.984375 C 12.066406 12.984375 11.949219 12.957031 11.875 12.886719 C 11.796875 12.828125 11.730469 12.691406 11.671875 12.507812 L 9.390625 4.984375 C 9.347656 4.859375 9.320312 4.730469 9.304688 4.59375 C 9.304688 4.441406 9.382812 4.351562 9.535156 4.351562 L 10.488281 4.351562 C 10.667969 4.351562 10.796875 4.382812 10.863281 4.449219 C 10.941406 4.507812 11 4.644531 11.058594 4.828125 L 12.6875 11.269531 L 14.203125 4.828125 C 14.25 4.636719 14.308594 4.507812 14.386719 4.449219 C 14.503906 4.375 14.632812 4.34375 14.773438 4.351562 L 15.550781 4.351562 C 15.734375 4.351562 15.859375 4.382812 15.9375 4.449219 C 16.015625 4.507812 16.082031 4.644531 16.121094 4.828125 L 17.652344 11.351562 L 19.332031 4.828125 C 19.363281 4.683594 19.425781 4.558594 19.523438 4.449219 C 19.640625 4.375 19.765625 4.34375 19.902344 4.351562 L 20.804688 4.351562 C 20.960938 4.351562 21.046875 4.429688 21.046875 4.59375 C 21.046875 4.644531 21.039062 4.695312 21.03125 4.753906 C 21.015625 4.835938 20.992188 4.917969 20.960938 4.996094 L 18.621094 12.515625 C 18.566406 12.710938 18.496094 12.839844 18.421875 12.898438 C 18.308594 12.96875 18.183594 13 18.050781 12.992188 L 17.21875 12.992188 C 17.035156 12.992188 16.90625 12.964844 16.828125 12.898438 C 16.75 12.828125 16.683594 12.703125 16.644531 12.507812 L 15.140625 6.230469 L 13.648438 12.5 C 13.601562 12.695312 13.542969 12.820312 13.464844 12.886719 C 13.386719 12.957031 13.25 12.984375 13.078125 12.984375 Z M 24.703125 13.246094 C 24.199219 13.246094 23.703125 13.1875 23.210938 13.070312 C 22.726562 12.957031 22.347656 12.828125 22.09375 12.683594 C 21.941406 12.59375 21.835938 12.496094 21.792969 12.410156 C 21.757812 12.320312 21.738281 12.230469 21.738281 12.136719 L 21.738281 11.640625 C 21.738281 11.4375 21.8125 11.339844 21.960938 11.339844 C 22.019531 11.339844 22.078125 11.347656 22.136719 11.367188 C 22.191406 11.386719 22.28125 11.425781 22.378906 11.464844 C 22.707031 11.613281 23.066406 11.730469 23.445312 11.808594 C 23.832031 11.882812 24.207031 11.921875 24.597656 11.921875 C 25.210938 11.921875 25.683594 11.816406 26.011719 11.601562 C 26.359375 11.390625 26.527344 11.082031 26.519531 10.675781 C 26.523438 10.414062 26.4375 10.1875 26.253906 9.996094 C 26.082031 9.8125 25.753906 9.644531 25.277344 9.492188 L 23.871094 9.054688 C 23.164062 8.828125 22.636719 8.496094 22.320312 8.058594 C 21.996094 7.644531 21.835938 7.175781 21.835938 6.648438 C 21.835938 6.242188 21.921875 5.878906 22.09375 5.570312 C 22.269531 5.257812 22.503906 4.984375 22.792969 4.769531 C 23.085938 4.546875 23.414062 4.382812 23.800781 4.265625 C 24.191406 4.148438 24.597656 4.101562 25.023438 4.101562 C 25.238281 4.101562 25.460938 4.109375 25.675781 4.136719 C 25.894531 4.167969 26.101562 4.207031 26.304688 4.246094 C 26.496094 4.296875 26.683594 4.34375 26.855469 4.402344 C 27.03125 4.460938 27.167969 4.519531 27.265625 4.578125 C 27.382812 4.636719 27.476562 4.714844 27.558594 4.820312 C 27.621094 4.917969 27.648438 5.023438 27.640625 5.140625 L 27.640625 5.597656 C 27.640625 5.800781 27.566406 5.910156 27.421875 5.910156 C 27.289062 5.894531 27.167969 5.855469 27.050781 5.792969 C 26.457031 5.53125 25.839844 5.402344 25.1875 5.414062 C 24.636719 5.414062 24.199219 5.5 23.898438 5.6875 C 23.597656 5.871094 23.445312 6.152344 23.445312 6.554688 C 23.445312 6.824219 23.539062 7.058594 23.734375 7.242188 C 23.929688 7.429688 24.289062 7.613281 24.800781 7.777344 L 26.179688 8.214844 C 26.875 8.4375 27.382812 8.75 27.683594 9.148438 C 27.984375 9.550781 28.128906 10.007812 28.128906 10.511719 C 28.128906 10.933594 28.042969 11.308594 27.875 11.640625 C 27.703125 11.976562 27.464844 12.261719 27.167969 12.496094 C 26.867188 12.738281 26.507812 12.917969 26.089844 13.042969 C 25.652344 13.179688 25.199219 13.246094 24.703125 13.246094 Z M 24.703125 13.246094 " fill-opacity="1" fill-rule="nonzero"/></g><g clip-path="url(#93d7bbd4d8)"><path fill="#ff9900" d="M 26.4375 18.320312 C 23.257812 20.675781 18.640625 21.925781 14.667969 21.925781 C 9.105469 21.925781 4.089844 19.863281 0.304688 16.429688 C 0.00390625 16.15625 0.273438 15.789062 0.628906 16.003906 C 4.726562 18.386719 9.78125 19.832031 15.007812 19.832031 C 18.53125 19.832031 22.40625 19.09375 25.972656 17.582031 C 26.503906 17.339844 26.957031 17.929688 26.4375 18.320312 Z M 26.4375 18.320312 " fill-opacity="1" fill-rule="evenodd"/></g><g clip-path="url(#2c9bc50d94)"><path fill="#ff9900" d="M 27.757812 16.808594 C 27.355469 16.285156 25.074219 16.558594 24.039062 16.683594 C 23.730469 16.722656 23.683594 16.449219 23.964844 16.246094 C 25.777344 14.964844 28.765625 15.335938 29.113281 15.761719 C 29.460938 16.199219 29.015625 19.191406 27.3125 20.628906 C 27.054688 20.851562 26.804688 20.738281 26.921875 20.445312 C 27.304688 19.484375 28.164062 17.324219 27.757812 16.808594 Z M 27.757812 16.808594 " fill-opacity="1" fill-rule="evenodd"/></g></g></g></g></svg>