<svg xmlns="http://www.w3.org/2000/svg" xmlns:xlink="http://www.w3.org/1999/xlink" width="538" zoomAndPan="magnify" viewBox="0 0 403.5 331.499995" height="442" preserveAspectRatio="xMidYMid meet" version="1.0"><defs><g/><clipPath id="952ae088ea"><rect x="0" width="132" y="0" height="115"/></clipPath><clipPath id="a83a6fe80b"><path d="M 19.042969 141 L 224 141 L 224 188 L 19.042969 188 Z M 19.042969 141 " clip-rule="nonzero"/></clipPath><clipPath id="c02bc11fbb"><path d="M 201 137 L 242.957031 137 L 242.957031 179 L 201 179 Z M 201 137 " clip-rule="nonzero"/></clipPath></defs><path fill="#252f3e" d="M 82.242188 102.265625 C 82.242188 105.023438 82.523438 107.265625 83.054688 108.921875 C 83.644531 110.558594 84.398438 112.355469 85.4375 114.300781 C 85.773438 114.828125 85.945312 115.402344 85.957031 116.023438 C 85.957031 116.769531 85.507812 117.523438 84.554688 118.265625 L 79.847656 121.40625 C 79.269531 121.824219 78.625 122.046875 77.910156 122.078125 C 77.15625 122.078125 76.414062 121.714844 75.671875 121.042969 C 74.660156 119.957031 73.761719 118.78125 72.980469 117.523438 C 72.148438 116.085938 71.382812 114.613281 70.679688 113.109375 C 64.851562 119.992188 57.550781 123.4375 48.75 123.4375 C 42.488281 123.4375 37.484375 121.628906 33.839844 118.042969 C 30.183594 114.457031 28.320312 109.664062 28.320312 103.679688 C 28.320312 97.316406 30.5625 92.160156 35.101562 88.265625 C 39.65625 84.371094 45.695312 82.4375 53.375 82.4375 C 55.898438 82.4375 58.519531 82.660156 61.277344 83.023438 C 64.039062 83.402344 66.882812 84.003906 69.855469 84.679688 L 69.855469 79.214844 C 69.855469 73.523438 68.664062 69.558594 66.351562 67.246094 C 63.96875 64.921875 59.933594 63.800781 54.1875 63.800781 C 51.582031 63.800781 48.90625 64.109375 46.144531 64.78125 C 43.398438 65.433594 40.714844 66.277344 38.085938 67.316406 C 37.238281 67.699219 36.371094 68.027344 35.480469 68.296875 C 35.09375 68.425781 34.695312 68.5 34.289062 68.523438 C 33.238281 68.523438 32.722656 67.765625 32.722656 66.195312 L 32.722656 62.523438 C 32.722656 61.332031 32.859375 60.421875 33.238281 59.917969 C 33.8125 59.21875 34.511719 58.691406 35.339844 58.335938 C 37.933594 56.988281 41.074219 55.867188 44.730469 54.972656 C 48.371094 53.992188 52.253906 53.554688 56.359375 53.554688 C 65.230469 53.554688 71.71875 55.574219 75.894531 59.609375 C 80 63.644531 82.085938 69.78125 82.085938 78.023438 L 82.085938 102.265625 Z M 51.960938 113.628906 C 54.414062 113.628906 56.949219 113.179688 59.640625 112.285156 C 62.328125 111.386719 64.710938 109.734375 66.714844 107.492188 C 67.933594 106.097656 68.777344 104.503906 69.253906 102.714844 C 69.699219 100.90625 70.007812 98.746094 70.007812 96.195312 L 70.007812 93.058594 C 67.742188 92.507812 65.453125 92.089844 63.140625 91.796875 C 60.816406 91.496094 58.480469 91.34375 56.136719 91.335938 C 51.132812 91.335938 47.488281 92.316406 45.023438 94.332031 C 42.558594 96.351562 41.378906 99.195312 41.378906 102.9375 C 41.378906 106.441406 42.261719 109.0625 44.128906 110.867188 C 45.921875 112.730469 48.527344 113.628906 51.960938 113.628906 Z M 111.835938 121.714844 C 110.492188 121.714844 109.59375 121.488281 109.007812 120.957031 C 108.402344 120.507812 107.886719 119.472656 107.4375 118.042969 L 89.921875 60.210938 C 89.578125 59.238281 89.355469 58.238281 89.25 57.214844 C 89.25 56.023438 89.835938 55.351562 91.027344 55.351562 L 98.34375 55.351562 C 99.742188 55.351562 100.726562 55.574219 101.242188 56.09375 C 101.847656 56.539062 102.292969 57.589844 102.742188 59.007812 L 115.269531 108.542969 L 126.902344 59.007812 C 127.265625 57.523438 127.714844 56.539062 128.316406 56.09375 C 129.234375 55.53125 130.226562 55.285156 131.300781 55.351562 L 137.269531 55.351562 C 138.671875 55.351562 139.652344 55.574219 140.242188 56.09375 C 140.84375 56.539062 141.363281 57.589844 141.671875 59.007812 L 153.441406 109.144531 L 166.332031 59.007812 C 166.578125 57.902344 167.078125 56.933594 167.832031 56.09375 C 168.722656 55.527344 169.695312 55.28125 170.746094 55.351562 L 177.683594 55.351562 C 178.875 55.351562 179.546875 55.953125 179.546875 57.214844 C 179.546875 57.589844 179.460938 57.96875 179.40625 58.417969 C 179.285156 59.054688 179.109375 59.675781 178.875 60.28125 L 160.894531 118.113281 C 160.460938 119.613281 159.929688 120.59375 159.339844 121.042969 C 158.472656 121.597656 157.523438 121.84375 156.496094 121.785156 L 150.09375 121.785156 C 148.675781 121.785156 147.710938 121.558594 147.105469 121.042969 C 146.503906 120.507812 145.984375 119.542969 145.691406 118.042969 L 134.132812 69.796875 L 122.640625 117.988281 C 122.277344 119.484375 121.828125 120.453125 121.238281 120.972656 C 120.636719 121.503906 119.585938 121.726562 118.253906 121.726562 L 111.835938 121.726562 Z M 207.65625 123.730469 C 203.773438 123.738281 199.941406 123.289062 196.164062 122.386719 C 192.4375 121.488281 189.539062 120.507812 187.589844 119.386719 C 186.398438 118.714844 185.585938 117.972656 185.277344 117.285156 C 184.992188 116.621094 184.847656 115.925781 184.84375 115.199219 L 184.84375 111.386719 C 184.84375 109.816406 185.433594 109.0625 186.554688 109.0625 C 187.015625 109.0625 187.460938 109.136719 187.898438 109.285156 C 188.347656 109.4375 189.019531 109.734375 189.761719 110.042969 C 192.285156 111.164062 195.058594 112.058594 197.960938 112.660156 C 200.945312 113.25 203.84375 113.558594 206.828125 113.558594 C 211.539062 113.558594 215.179688 112.730469 217.71875 111.09375 C 218.328125 110.722656 218.878906 110.28125 219.371094 109.765625 C 219.863281 109.253906 220.277344 108.683594 220.617188 108.058594 C 220.960938 107.433594 221.214844 106.773438 221.378906 106.082031 C 221.546875 105.386719 221.621094 104.6875 221.597656 103.972656 C 221.625 103.003906 221.460938 102.066406 221.113281 101.160156 C 220.761719 100.253906 220.253906 99.449219 219.582031 98.746094 C 218.25 97.316406 215.714844 96.042969 212.054688 94.851562 L 201.238281 91.488281 C 195.800781 89.765625 191.765625 87.214844 189.3125 83.851562 C 188.113281 82.296875 187.195312 80.59375 186.554688 78.734375 C 185.917969 76.878906 185.59375 74.96875 185.585938 73.003906 C 185.585938 69.867188 186.257812 67.09375 187.589844 64.695312 C 188.933594 62.3125 190.730469 60.210938 192.972656 58.558594 C 195.214844 56.847656 197.734375 55.574219 200.71875 54.675781 C 203.703125 53.78125 206.828125 53.402344 210.109375 53.402344 C 211.761719 53.402344 213.472656 53.472656 215.109375 53.695312 C 216.820312 53.921875 218.390625 54.230469 219.960938 54.535156 C 221.445312 54.902344 222.875 55.265625 224.207031 55.726562 C 225.550781 56.175781 226.585938 56.625 227.34375 57.074219 C 228.234375 57.519531 228.984375 58.140625 229.585938 58.9375 C 230.078125 59.6875 230.296875 60.507812 230.246094 61.402344 L 230.246094 64.921875 C 230.246094 66.488281 229.65625 67.316406 228.535156 67.316406 C 227.535156 67.203125 226.589844 66.902344 225.703125 66.417969 C 221.144531 64.398438 216.371094 63.425781 211.382812 63.503906 C 207.136719 63.503906 203.773438 64.175781 201.460938 65.605469 C 199.152344 67.007812 197.960938 69.195312 197.960938 72.261719 C 197.960938 74.351562 198.703125 76.144531 200.203125 77.574219 C 201.6875 78.988281 204.449219 80.40625 208.398438 81.679688 L 218.992188 85.042969 C 224.359375 86.765625 228.242188 89.164062 230.554688 92.230469 C 232.867188 95.300781 233.972656 98.816406 233.972656 102.714844 C 233.972656 105.9375 233.3125 108.835938 232.039062 111.386719 C 230.703125 113.976562 228.890625 116.171875 226.601562 117.972656 C 224.289062 119.835938 221.527344 121.195312 218.320312 122.164062 C 214.957031 123.214844 211.453125 123.730469 207.65625 123.730469 Z M 207.65625 123.730469 " fill-opacity="1" fill-rule="nonzero"/><g transform="matrix(1, 0, 0, 1, 243, 28)"><g clip-path="url(#952ae088ea)"><g fill="#ff9900" fill-opacity="1"><g transform="translate(0.252133, 90.734282)"><g><path d="M 38.71875 1.25 C 27.75 1.25 19.410156 -1.648438 13.703125 -7.453125 C 8.003906 -13.253906 5.15625 -21.734375 5.15625 -32.890625 C 5.15625 -43.847656 8.132812 -52.351562 14.09375 -58.40625 C 20.050781 -64.457031 28.351562 -67.484375 39 -67.484375 C 44.101562 -67.484375 48.882812 -66.816406 53.34375 -65.484375 C 54.363281 -65.160156 55.046875 -64.726562 55.390625 -64.1875 C 55.742188 -63.644531 55.921875 -62.769531 55.921875 -61.5625 L 55.921875 -53.53125 C 55.921875 -51.8125 55.253906 -50.953125 53.921875 -50.953125 C 53.597656 -50.953125 52.800781 -51.109375 51.53125 -51.421875 C 48.40625 -52.128906 45.28125 -52.484375 42.15625 -52.484375 C 36.289062 -52.484375 31.859375 -50.9375 28.859375 -47.84375 C 25.867188 -44.75 24.375 -40.175781 24.375 -34.125 L 24.375 -32.03125 C 24.375 -26.101562 25.820312 -21.578125 28.71875 -18.453125 C 31.625 -15.328125 35.910156 -13.765625 41.578125 -13.765625 C 45.535156 -13.765625 49.234375 -14.179688 52.671875 -15.015625 C 53.691406 -15.265625 54.425781 -15.390625 54.875 -15.390625 C 56.207031 -15.390625 56.875 -14.53125 56.875 -12.8125 L 56.875 -4.78125 C 56.875 -3.570312 56.695312 -2.695312 56.34375 -2.15625 C 56 -1.613281 55.316406 -1.179688 54.296875 -0.859375 C 49.960938 0.546875 44.769531 1.25 38.71875 1.25 Z M 38.71875 1.25 "/></g></g></g><g fill="#ff9900" fill-opacity="1"><g transform="translate(59.78861, 90.734282)"><g><path d="M 9.9375 0 C 8.914062 0 8.179688 -0.222656 7.734375 -0.671875 C 7.296875 -1.117188 7.078125 -1.851562 7.078125 -2.875 L 7.078125 -63.375 C 7.078125 -64.457031 7.296875 -65.207031 7.734375 -65.625 C 8.179688 -66.039062 8.914062 -66.25 9.9375 -66.25 L 32.984375 -66.25 C 43.179688 -66.25 51.082031 -63.378906 56.6875 -57.640625 C 62.289062 -51.910156 65.09375 -43.753906 65.09375 -33.171875 C 65.09375 -26.222656 63.847656 -20.25 61.359375 -15.25 C 58.878906 -10.25 55.328125 -6.457031 50.703125 -3.875 C 46.085938 -1.289062 40.5625 0 34.125 0 Z M 25.53125 -14.140625 L 31.828125 -14.140625 C 41.453125 -14.140625 46.265625 -20.195312 46.265625 -32.3125 L 46.265625 -34.03125 C 46.265625 -46.070312 41.519531 -52.09375 32.03125 -52.09375 L 25.53125 -52.09375 Z M 25.53125 -14.140625 "/></g></g></g></g></g><g fill="#ff9900" fill-opacity="1"><g transform="translate(34.164257, 286.739814)"><g><path d="M 33.296875 -11.234375 C 37.472656 -11.234375 40.625 -12.691406 42.75 -15.609375 C 44.875 -18.523438 45.9375 -22.820312 45.9375 -28.5 C 45.9375 -34.28125 44.859375 -38.644531 42.703125 -41.59375 C 40.554688 -44.539062 37.421875 -46.015625 33.296875 -46.015625 C 29.160156 -46.015625 26.03125 -44.550781 23.90625 -41.625 C 21.789062 -38.707031 20.734375 -34.414062 20.734375 -28.75 C 20.734375 -23.019531 21.789062 -18.664062 23.90625 -15.6875 C 26.03125 -12.71875 29.160156 -11.234375 33.296875 -11.234375 Z M 33.296875 1.40625 C 27.285156 1.40625 22.101562 0.15625 17.75 -2.34375 C 13.40625 -4.851562 10.101562 -8.363281 7.84375 -12.875 C 5.582031 -17.394531 4.453125 -22.6875 4.453125 -28.75 C 4.453125 -34.96875 5.632812 -40.320312 8 -44.8125 C 10.375 -49.300781 13.722656 -52.726562 18.046875 -55.09375 C 22.367188 -57.46875 27.453125 -58.65625 33.296875 -58.65625 C 39.296875 -58.65625 44.46875 -57.414062 48.8125 -54.9375 C 53.164062 -52.457031 56.484375 -48.957031 58.765625 -44.4375 C 61.054688 -39.925781 62.203125 -34.613281 62.203125 -28.5 C 62.203125 -22.28125 61.015625 -16.910156 58.640625 -12.390625 C 56.273438 -7.878906 52.914062 -4.453125 48.5625 -2.109375 C 44.21875 0.234375 39.128906 1.40625 33.296875 1.40625 Z M 33.296875 1.40625 "/></g></g></g><g fill="#ff9900" fill-opacity="1"><g transform="translate(100.830318, 286.739814)"><g><path d="M 24.953125 0.90625 C 17.847656 0.90625 12.4375 -0.953125 8.71875 -4.671875 C 5 -8.390625 3.140625 -13.828125 3.140625 -20.984375 C 3.140625 -28.085938 5.109375 -33.609375 9.046875 -37.546875 C 12.984375 -41.484375 18.503906 -43.453125 25.609375 -43.453125 C 29.296875 -43.453125 32.597656 -42.875 35.515625 -41.71875 C 36.398438 -41.382812 36.992188 -41 37.296875 -40.5625 C 37.597656 -40.125 37.75 -39.378906 37.75 -38.328125 L 37.75 -33.546875 C 37.75 -32.054688 37.171875 -31.3125 36.015625 -31.3125 C 35.742188 -31.3125 35.054688 -31.445312 33.953125 -31.71875 C 32.191406 -32.164062 30.457031 -32.390625 28.75 -32.390625 C 25.332031 -32.390625 22.820312 -31.535156 21.21875 -29.828125 C 19.625 -28.117188 18.828125 -25.445312 18.828125 -21.8125 L 18.828125 -20.65625 C 18.828125 -17.070312 19.625 -14.425781 21.21875 -12.71875 C 22.820312 -11.007812 25.25 -10.15625 28.5 -10.15625 C 29.320312 -10.15625 30.3125 -10.222656 31.46875 -10.359375 C 32.625 -10.503906 33.507812 -10.6875 34.125 -10.90625 C 35.21875 -11.175781 35.90625 -11.3125 36.1875 -11.3125 C 37.34375 -11.3125 37.921875 -10.570312 37.921875 -9.09375 L 37.921875 -4.296875 C 37.921875 -3.242188 37.769531 -2.5 37.46875 -2.0625 C 37.164062 -1.625 36.570312 -1.238281 35.6875 -0.90625 C 32.382812 0.300781 28.804688 0.90625 24.953125 0.90625 Z M 24.953125 0.90625 "/></g></g></g><g fill="#ff9900" fill-opacity="1"><g transform="translate(140.482937, 286.739814)"><g><path d="M 25.4375 1.234375 C 10.570312 1.234375 3.140625 -6.253906 3.140625 -21.234375 C 3.140625 -28.273438 5.039062 -33.789062 8.84375 -37.78125 C 12.644531 -41.78125 17.929688 -43.78125 24.703125 -43.78125 C 30.429688 -43.78125 34.863281 -42.25 38 -39.1875 C 41.132812 -36.132812 42.703125 -31.773438 42.703125 -26.109375 C 42.703125 -24.117188 42.539062 -22.023438 42.21875 -19.828125 C 42.050781 -18.890625 41.785156 -18.238281 41.421875 -17.875 C 41.066406 -17.519531 40.445312 -17.34375 39.5625 -17.34375 L 17.265625 -17.34375 C 17.535156 -14.59375 18.59375 -12.597656 20.4375 -11.359375 C 22.289062 -10.117188 25.0625 -9.5 28.75 -9.5 C 31.71875 -9.5 34.71875 -9.941406 37.75 -10.828125 C 38.632812 -11.097656 39.320312 -11.234375 39.8125 -11.234375 C 41.03125 -11.234375 41.640625 -10.488281 41.640625 -9 L 41.640625 -4.546875 C 41.640625 -3.554688 41.5 -2.835938 41.21875 -2.390625 C 40.945312 -1.953125 40.34375 -1.539062 39.40625 -1.15625 C 37.582031 -0.4375 35.363281 0.140625 32.75 0.578125 C 30.132812 1.015625 27.695312 1.234375 25.4375 1.234375 Z M 29.65625 -26.265625 L 29.65625 -27.265625 C 29.65625 -31.390625 27.863281 -33.453125 24.28125 -33.453125 C 22.300781 -33.453125 20.703125 -32.832031 19.484375 -31.59375 C 18.273438 -30.351562 17.535156 -28.578125 17.265625 -26.265625 Z M 29.65625 -26.265625 "/></g></g></g><g fill="#ff9900" fill-opacity="1"><g transform="translate(186.24873, 286.739814)"><g><path d="M 16.28125 1.484375 C 12.144531 1.484375 8.835938 0.285156 6.359375 -2.109375 C 3.878906 -4.503906 2.640625 -7.65625 2.640625 -11.5625 C 2.640625 -14.375 3.382812 -16.835938 4.875 -18.953125 C 6.363281 -21.078125 8.398438 -22.703125 10.984375 -23.828125 C 13.578125 -24.960938 16.523438 -25.53125 19.828125 -25.53125 C 22.523438 -25.53125 25.003906 -25.28125 27.265625 -24.78125 L 27.265625 -26.9375 C 27.265625 -29.1875 26.738281 -30.765625 25.6875 -31.671875 C 24.644531 -32.585938 22.800781 -33.046875 20.15625 -33.046875 C 18.726562 -33.046875 17.0625 -32.894531 15.15625 -32.59375 C 13.257812 -32.289062 11.566406 -31.914062 10.078125 -31.46875 C 8.867188 -31.082031 8.015625 -30.890625 7.515625 -30.890625 C 6.523438 -30.890625 6.03125 -31.609375 6.03125 -33.046875 L 6.03125 -37.671875 C 6.03125 -38.660156 6.164062 -39.375 6.4375 -39.8125 C 6.71875 -40.257812 7.328125 -40.675781 8.265625 -41.0625 C 12.773438 -42.875 18.035156 -43.78125 24.046875 -43.78125 C 30.097656 -43.78125 34.539062 -42.554688 37.375 -40.109375 C 40.21875 -37.660156 41.640625 -33.789062 41.640625 -28.5 L 41.640625 -2.484375 C 41.640625 -1.597656 41.457031 -0.960938 41.09375 -0.578125 C 40.738281 -0.191406 40.09375 0 39.15625 0 L 31.5625 0 C 30.789062 0 30.195312 -0.148438 29.78125 -0.453125 C 29.363281 -0.753906 29.019531 -1.316406 28.75 -2.140625 L 28.328125 -3.296875 C 26.679688 -1.753906 24.8125 -0.570312 22.71875 0.25 C 20.625 1.070312 18.476562 1.484375 16.28125 1.484375 Z M 21.3125 -8.34375 C 22.351562 -8.34375 23.425781 -8.578125 24.53125 -9.046875 C 25.632812 -9.515625 26.546875 -10.109375 27.265625 -10.828125 L 27.265625 -16.9375 C 25.390625 -17.15625 23.875 -17.265625 22.71875 -17.265625 C 19.03125 -17.265625 17.1875 -15.722656 17.1875 -12.640625 C 17.1875 -11.316406 17.554688 -10.269531 18.296875 -9.5 C 19.035156 -8.726562 20.039062 -8.34375 21.3125 -8.34375 Z M 21.3125 -8.34375 "/></g></g></g><g fill="#ff9900" fill-opacity="1"><g transform="translate(233.005859, 286.739814)"><g><path d="M 7.765625 0 C 6.878906 0 6.242188 -0.191406 5.859375 -0.578125 C 5.472656 -0.960938 5.28125 -1.597656 5.28125 -2.484375 L 5.28125 -40.0625 C 5.28125 -41 5.472656 -41.644531 5.859375 -42 C 6.242188 -42.363281 6.878906 -42.546875 7.765625 -42.546875 L 15.78125 -42.546875 C 16.550781 -42.546875 17.140625 -42.394531 17.546875 -42.09375 C 17.960938 -41.789062 18.3125 -41.222656 18.59375 -40.390625 L 19.25 -38.25 C 21.832031 -40.175781 24.363281 -41.578125 26.84375 -42.453125 C 29.320312 -43.335938 31.941406 -43.78125 34.703125 -43.78125 C 38.660156 -43.78125 41.6875 -42.707031 43.78125 -40.5625 C 45.875 -38.414062 46.921875 -35.359375 46.921875 -31.390625 L 46.921875 -2.484375 C 46.921875 -1.597656 46.738281 -0.960938 46.375 -0.578125 C 46.019531 -0.191406 45.375 0 44.4375 0 L 33.875 0 C 32.988281 0 32.351562 -0.191406 31.96875 -0.578125 C 31.582031 -0.960938 31.390625 -1.597656 31.390625 -2.484375 L 31.390625 -27.921875 C 31.390625 -29.578125 31.070312 -30.789062 30.4375 -31.5625 C 29.800781 -32.332031 28.742188 -32.71875 27.265625 -32.71875 C 25.222656 -32.71875 23.070312 -32.023438 20.8125 -30.640625 L 20.8125 -2.484375 C 20.8125 -1.597656 20.632812 -0.960938 20.28125 -0.578125 C 19.925781 -0.191406 19.28125 0 18.34375 0 Z M 7.765625 0 "/></g></g></g><g fill="#ff9900" fill-opacity="1"><g transform="translate(285.049977, 286.739814)"><g><path d="M 7.765625 0 C 6.878906 0 6.242188 -0.191406 5.859375 -0.578125 C 5.472656 -0.960938 5.28125 -1.597656 5.28125 -2.484375 L 5.28125 -40.0625 C 5.28125 -41 5.472656 -41.644531 5.859375 -42 C 6.242188 -42.363281 6.878906 -42.546875 7.765625 -42.546875 L 18.34375 -42.546875 C 19.28125 -42.546875 19.925781 -42.363281 20.28125 -42 C 20.632812 -41.644531 20.8125 -41 20.8125 -40.0625 L 20.8125 -2.484375 C 20.8125 -1.597656 20.632812 -0.960938 20.28125 -0.578125 C 19.925781 -0.191406 19.28125 0 18.34375 0 Z M 13.046875 -47.90625 C 10.410156 -47.90625 8.304688 -48.617188 6.734375 -50.046875 C 5.160156 -51.484375 4.375 -53.390625 4.375 -55.765625 C 4.375 -58.128906 5.160156 -60.023438 6.734375 -61.453125 C 8.304688 -62.890625 10.410156 -63.609375 13.046875 -63.609375 C 15.691406 -63.609375 17.796875 -62.890625 19.359375 -61.453125 C 20.929688 -60.023438 21.71875 -58.128906 21.71875 -55.765625 C 21.71875 -53.390625 20.929688 -51.484375 19.359375 -50.046875 C 17.796875 -48.617188 15.691406 -47.90625 13.046875 -47.90625 Z M 13.046875 -47.90625 "/></g></g></g><g fill="#ff9900" fill-opacity="1"><g transform="translate(311.154676, 286.739814)"><g><path d="M 16.28125 1.484375 C 12.144531 1.484375 8.835938 0.285156 6.359375 -2.109375 C 3.878906 -4.503906 2.640625 -7.65625 2.640625 -11.5625 C 2.640625 -14.375 3.382812 -16.835938 4.875 -18.953125 C 6.363281 -21.078125 8.398438 -22.703125 10.984375 -23.828125 C 13.578125 -24.960938 16.523438 -25.53125 19.828125 -25.53125 C 22.523438 -25.53125 25.003906 -25.28125 27.265625 -24.78125 L 27.265625 -26.9375 C 27.265625 -29.1875 26.738281 -30.765625 25.6875 -31.671875 C 24.644531 -32.585938 22.800781 -33.046875 20.15625 -33.046875 C 18.726562 -33.046875 17.0625 -32.894531 15.15625 -32.59375 C 13.257812 -32.289062 11.566406 -31.914062 10.078125 -31.46875 C 8.867188 -31.082031 8.015625 -30.890625 7.515625 -30.890625 C 6.523438 -30.890625 6.03125 -31.609375 6.03125 -33.046875 L 6.03125 -37.671875 C 6.03125 -38.660156 6.164062 -39.375 6.4375 -39.8125 C 6.71875 -40.257812 7.328125 -40.675781 8.265625 -41.0625 C 12.773438 -42.875 18.035156 -43.78125 24.046875 -43.78125 C 30.097656 -43.78125 34.539062 -42.554688 37.375 -40.109375 C 40.21875 -37.660156 41.640625 -33.789062 41.640625 -28.5 L 41.640625 -2.484375 C 41.640625 -1.597656 41.457031 -0.960938 41.09375 -0.578125 C 40.738281 -0.191406 40.09375 0 39.15625 0 L 31.5625 0 C 30.789062 0 30.195312 -0.148438 29.78125 -0.453125 C 29.363281 -0.753906 29.019531 -1.316406 28.75 -2.140625 L 28.328125 -3.296875 C 26.679688 -1.753906 24.8125 -0.570312 22.71875 0.25 C 20.625 1.070312 18.476562 1.484375 16.28125 1.484375 Z M 21.3125 -8.34375 C 22.351562 -8.34375 23.425781 -8.578125 24.53125 -9.046875 C 25.632812 -9.515625 26.546875 -10.109375 27.265625 -10.828125 L 27.265625 -16.9375 C 25.390625 -17.15625 23.875 -17.265625 22.71875 -17.265625 C 19.03125 -17.265625 17.1875 -15.722656 17.1875 -12.640625 C 17.1875 -11.316406 17.554688 -10.269531 18.296875 -9.5 C 19.035156 -8.726562 20.039062 -8.34375 21.3125 -8.34375 Z M 21.3125 -8.34375 "/></g></g></g><g clip-path="url(#a83a6fe80b)"><path fill="#ff9900" d="M 221.738281 160.082031 C 197.21875 178.257812 161.570312 187.910156 130.921875 187.910156 C 87.972656 187.910156 49.269531 171.976562 20.039062 145.492188 C 17.726562 143.390625 19.816406 140.546875 22.5625 142.199219 C 54.1875 160.601562 93.1875 171.753906 133.542969 171.753906 C 160.742188 171.753906 190.644531 166.066406 218.167969 154.390625 C 222.273438 152.527344 225.773438 157.082031 221.738281 160.082031 Z M 221.738281 160.082031 " fill-opacity="1" fill-rule="evenodd"/></g><g clip-path="url(#c02bc11fbb)"><path fill="#ff9900" d="M 231.953125 148.410156 C 228.828125 144.386719 211.230469 146.476562 203.257812 147.441406 C 200.875 147.75 200.496094 145.648438 202.652344 144.078125 C 216.667969 134.199219 239.71875 137.042969 242.394531 140.335938 C 245.085938 143.699219 241.652344 166.820312 228.523438 177.890625 C 226.519531 179.613281 224.582031 178.730469 225.480469 176.492188 C 228.453125 169.0625 235.09375 152.386719 231.953125 148.421875 Z M 231.953125 148.410156 " fill-opacity="1" fill-rule="evenodd"/></g></svg>